{"glyphs":{"0":{"ha":850,"x_min":67,"x_max":783,"o":"m 424 -15 q 163 114 260 -15 q 67 498 67 244 q 111 785 67 669 q 236 960 156 901 q 426 1018 317 1018 q 686 887 589 1018 q 783 500 783 756 q 686 115 783 245 q 424 -15 590 -15 m 426 96 q 589 191 533 96 q 644 499 644 285 q 588 814 644 717 q 425 910 532 910 q 261 813 319 910 q 204 499 204 716 q 261 191 204 286 q 426 96 318 96 z "},"1":{"ha":565,"x_min":65,"x_max":391,"o":"m 258 0 l 258 799 l 65 799 l 65 883 q 205 897 155 883 q 276 937 255 910 q 299 1004 297 964 l 391 1004 l 391 0 l 258 0 z "},"2":{"ha":828,"x_min":65,"x_max":759,"o":"m 86 0 l 86 78 l 86 119 q 115 253 86 197 q 191 351 144 309 q 295 426 239 393 q 409 491 352 460 q 513 555 465 522 q 589 632 560 589 q 617 733 617 674 q 564 857 617 809 q 418 905 510 905 q 260 849 319 905 q 192 701 200 794 l 65 701 q 108 860 67 788 q 228 975 149 932 q 423 1018 307 1018 q 598 982 524 1018 q 713 882 672 947 q 753 733 753 818 q 725 599 753 655 q 650 503 697 544 q 547 431 603 463 q 435 369 492 399 q 333 307 379 340 q 258 233 286 275 q 229 134 229 192 l 229 114 l 759 114 l 759 0 l 86 0 z "},"3":{"ha":875,"x_min":67,"x_max":808,"o":"m 422 -15 q 239 23 318 -15 q 115 128 160 60 q 67 289 70 196 l 195 289 q 272 145 210 195 q 426 95 333 95 q 555 118 500 95 q 640 183 610 142 q 669 278 669 224 q 636 381 669 339 q 545 444 603 422 q 417 467 488 466 l 326 469 l 326 578 l 413 580 q 531 605 478 581 q 613 668 583 629 q 643 755 643 708 q 617 832 643 797 q 543 890 592 868 q 426 911 495 911 q 323 890 372 911 q 242 825 274 869 q 208 712 210 781 l 80 712 q 127 877 80 809 q 253 982 174 946 q 427 1018 332 1018 q 611 988 531 1018 q 736 900 691 958 q 781 759 781 842 q 734 625 781 685 q 590 531 687 565 q 705 478 656 513 q 781 393 754 443 q 808 277 808 342 q 780 154 808 208 q 699 61 751 99 q 576 4 647 24 q 422 -15 505 -16 z "},"4":{"ha":873,"x_min":65,"x_max":830,"o":"m 538 0 l 538 256 l 65 256 l 65 374 l 533 1004 l 663 1004 l 663 369 l 830 369 l 830 256 l 663 256 l 663 0 l 538 0 m 188 369 l 535 369 l 535 835 l 188 369 z "},"5":{"ha":890,"x_min":67,"x_max":822,"o":"m 458 -15 q 285 17 365 -15 q 150 108 206 50 q 67 242 93 167 l 178 289 q 241 188 203 232 q 331 118 278 143 q 449 93 383 93 q 620 155 556 93 q 685 324 685 217 q 655 441 685 391 q 573 518 624 490 q 458 546 521 546 q 382 539 417 546 q 312 510 347 531 q 239 447 277 490 q 233 445 235 445 q 226 448 231 446 l 117 482 l 163 1004 l 762 1004 l 758 893 l 272 893 l 247 569 q 356 635 297 615 q 485 655 415 655 q 652 618 576 655 q 776 508 729 581 q 822 328 822 435 q 777 147 822 224 q 650 27 732 70 q 458 -15 568 -15 z "},"6":{"ha":865,"x_min":67,"x_max":798,"o":"m 449 -15 q 246 45 332 -15 q 114 218 160 106 q 67 487 67 330 q 112 767 67 648 q 245 952 158 887 q 460 1018 333 1018 q 614 987 543 1018 q 731 897 684 956 q 788 756 777 839 l 667 756 q 594 869 647 828 q 462 911 542 911 q 314 861 373 911 q 227 714 254 810 q 208 476 200 617 q 266 565 227 526 q 356 625 304 603 q 467 646 407 646 q 640 607 566 646 q 756 498 715 569 q 798 328 798 426 q 755 150 798 227 q 634 28 713 72 q 449 -15 556 -15 m 447 91 q 557 120 509 91 q 632 201 605 149 q 660 322 660 253 q 635 440 660 390 q 563 515 610 489 q 446 542 515 542 q 341 516 391 542 q 259 447 290 490 q 227 353 227 405 q 254 218 226 277 q 331 125 281 158 q 447 91 381 91 z "},"7":{"ha":834,"x_min":65,"x_max":769,"o":"m 246 0 q 286 170 257 69 q 362 392 315 272 q 476 641 409 513 q 628 893 542 769 l 65 893 l 65 1004 l 769 1004 l 769 893 q 664 727 716 820 q 564 534 611 635 q 479 334 517 433 q 417 150 442 236 q 385 0 392 63 l 246 0 z "},"8":{"ha":899,"x_min":67,"x_max":833,"o":"m 449 -15 q 248 20 334 -15 q 114 121 162 56 q 67 272 67 185 q 96 384 67 331 q 172 475 126 438 q 269 522 219 513 q 156 607 201 551 q 111 744 111 663 q 156 893 111 832 q 277 986 200 954 q 449 1018 353 1018 q 622 986 546 1018 q 743 893 699 954 q 788 744 788 832 q 743 607 788 663 q 630 522 699 551 q 727 475 681 513 q 803 384 773 438 q 833 272 833 331 q 785 121 833 185 q 651 20 738 56 q 449 -15 565 -15 m 449 89 q 628 139 561 89 q 694 273 694 190 q 664 371 694 328 q 579 439 634 414 q 449 463 524 463 q 320 439 375 463 q 236 371 266 414 q 206 273 206 328 q 272 139 206 190 q 449 89 338 89 m 449 576 q 598 622 541 576 q 656 747 656 667 q 598 875 656 828 q 449 922 540 922 q 301 875 358 922 q 243 747 243 828 q 301 622 243 667 q 449 576 358 576 z "},"9":{"ha":867,"x_min":69,"x_max":800,"o":"m 403 -15 q 248 16 320 -15 q 128 106 176 48 q 69 246 80 165 l 194 246 q 266 134 211 177 q 399 92 321 92 q 552 138 488 92 q 647 282 615 185 q 670 531 678 379 q 615 439 653 478 q 525 376 578 399 q 408 353 472 353 q 233 392 309 353 q 116 503 158 431 q 74 676 74 575 q 115 853 74 776 q 235 974 157 931 q 419 1018 313 1018 q 622 958 536 1018 q 753 786 707 898 q 800 517 800 674 q 754 229 800 348 q 619 48 708 110 q 403 -15 531 -15 m 422 462 q 528 488 478 462 q 609 556 578 513 q 641 649 641 599 q 615 786 642 727 q 538 880 588 846 q 421 913 488 913 q 313 884 360 913 q 239 803 266 855 q 213 682 213 751 q 266 522 213 581 q 422 462 319 462 z "},"A":{"ha":986,"x_min":58,"x_max":929,"o":"m 58 0 l 421 1004 l 566 1004 l 929 0 l 798 0 l 699 275 l 288 275 l 188 0 l 58 0 m 322 393 l 664 393 l 493 878 l 322 393 z "},"Á":{"ha":986,"x_min":58,"x_max":929,"o":"m 58 0 l 421 1004 l 566 1004 l 929 0 l 798 0 l 699 275 l 288 275 l 188 0 l 58 0 m 322 393 l 664 393 l 493 878 l 322 393 m 437 1088 l 580 1290 l 726 1290 l 536 1088 l 437 1088 z "},"Ă":{"ha":986,"x_min":58,"x_max":929,"o":"m 58 0 l 421 1004 l 566 1004 l 929 0 l 798 0 l 699 275 l 288 275 l 188 0 l 58 0 m 322 393 l 664 393 l 493 878 l 322 393 m 492 1086 q 397 1103 441 1086 q 324 1155 353 1121 q 283 1237 294 1188 l 376 1237 q 418 1182 388 1203 q 492 1161 448 1161 q 568 1182 536 1161 q 611 1237 599 1203 l 704 1237 q 664 1156 693 1190 q 590 1104 634 1122 q 492 1086 546 1086 z "},"Ắ":{"ha":986,"x_min":58,"x_max":929,"o":"m 58 0 l 421 1004 l 566 1004 l 929 0 l 798 0 l 699 275 l 288 275 l 188 0 l 58 0 m 322 393 l 664 393 l 493 878 l 322 393 m 495 1086 q 400 1103 444 1086 q 326 1155 356 1121 q 285 1237 297 1188 l 379 1237 q 420 1182 390 1203 q 495 1161 451 1161 q 570 1182 539 1161 q 614 1237 602 1203 l 707 1237 q 666 1156 696 1190 q 593 1104 637 1122 q 495 1086 549 1086 m 453 1257 l 553 1426 l 674 1426 l 535 1257 l 453 1257 z "},"Ặ":{"ha":986,"x_min":58,"x_max":929,"o":"m 58 0 l 421 1004 l 566 1004 l 929 0 l 798 0 l 699 275 l 288 275 l 188 0 l 58 0 m 322 393 l 664 393 l 493 878 l 322 393 m 428 -249 l 428 -125 l 558 -125 l 558 -249 l 428 -249 m 492 1086 q 397 1103 441 1086 q 324 1155 353 1121 q 283 1237 294 1188 l 376 1237 q 418 1182 388 1203 q 492 1161 448 1161 q 568 1182 536 1161 q 611 1237 599 1203 l 704 1237 q 664 1156 693 1190 q 590 1104 634 1122 q 492 1086 546 1086 z "},"Ằ":{"ha":986,"x_min":58,"x_max":929,"o":"m 58 0 l 421 1004 l 566 1004 l 929 0 l 798 0 l 699 275 l 288 275 l 188 0 l 58 0 m 322 393 l 664 393 l 493 878 l 322 393 m 495 1086 q 400 1103 444 1086 q 326 1155 356 1121 q 285 1237 297 1188 l 379 1237 q 420 1182 390 1203 q 495 1161 451 1161 q 570 1182 539 1161 q 614 1237 602 1203 l 707 1237 q 666 1156 696 1190 q 593 1104 637 1122 q 495 1086 549 1086 m 463 1256 l 317 1424 l 437 1424 l 547 1256 l 463 1256 z "},"Ẳ":{"ha":986,"x_min":58,"x_max":929,"o":"m 58 0 l 421 1004 l 566 1004 l 929 0 l 798 0 l 699 275 l 288 275 l 188 0 l 58 0 m 322 393 l 664 393 l 493 878 l 322 393 m 495 1086 q 400 1103 444 1086 q 326 1155 356 1121 q 285 1237 297 1188 l 379 1237 q 420 1182 390 1203 q 495 1161 451 1161 q 570 1182 539 1161 q 614 1237 602 1203 l 707 1237 q 666 1156 696 1190 q 593 1104 637 1122 q 495 1086 549 1086 m 502 1231 l 464 1290 q 506 1334 494 1309 q 503 1383 518 1360 q 460 1405 490 1406 q 403 1386 431 1405 l 365 1444 q 464 1476 415 1476 q 565 1424 530 1476 q 582 1320 599 1371 q 502 1231 564 1269 z "},"Ẵ":{"ha":986,"x_min":58,"x_max":929,"o":"m 58 0 l 421 1004 l 566 1004 l 929 0 l 798 0 l 699 275 l 288 275 l 188 0 l 58 0 m 322 393 l 664 393 l 493 878 l 322 393 m 495 1086 q 400 1103 444 1086 q 326 1155 356 1121 q 285 1237 297 1188 l 379 1237 q 420 1182 390 1203 q 495 1161 451 1161 q 570 1182 539 1161 q 614 1237 602 1203 l 707 1237 q 666 1156 696 1190 q 593 1104 637 1122 q 495 1086 549 1086 m 313 1317 l 288 1394 q 338 1430 311 1415 q 403 1445 364 1445 q 468 1436 438 1445 q 527 1417 499 1426 q 587 1407 556 1407 q 641 1418 618 1407 q 684 1445 663 1430 l 706 1361 q 659 1334 688 1348 q 586 1321 631 1321 q 522 1330 549 1321 q 468 1348 494 1339 q 410 1356 442 1356 q 355 1345 376 1356 q 313 1317 334 1334 z "},"Â":{"ha":986,"x_min":58,"x_max":929,"o":"m 58 0 l 421 1004 l 566 1004 l 929 0 l 798 0 l 699 275 l 288 275 l 188 0 l 58 0 m 322 393 l 664 393 l 493 878 l 322 393 m 274 1088 l 448 1244 l 540 1244 l 710 1088 l 590 1088 l 492 1178 l 388 1088 l 274 1088 z "},"Ấ":{"ha":986,"x_min":58,"x_max":929,"o":"m 58 0 l 421 1004 l 566 1004 l 929 0 l 798 0 l 699 275 l 288 275 l 188 0 l 58 0 m 322 393 l 664 393 l 493 878 l 322 393 m 274 1088 l 449 1244 l 540 1244 l 711 1088 l 590 1088 l 493 1178 l 388 1088 l 274 1088 m 621 1242 l 722 1410 l 842 1410 l 703 1242 l 621 1242 z "},"Ậ":{"ha":986,"x_min":58,"x_max":929,"o":"m 58 0 l 421 1004 l 566 1004 l 929 0 l 798 0 l 699 275 l 288 275 l 188 0 l 58 0 m 322 393 l 664 393 l 493 878 l 322 393 m 428 -249 l 428 -125 l 558 -125 l 558 -249 l 428 -249 m 274 1088 l 449 1244 l 540 1244 l 711 1088 l 590 1088 l 493 1178 l 388 1088 l 274 1088 z "},"Ầ":{"ha":986,"x_min":58,"x_max":929,"o":"m 58 0 l 421 1004 l 566 1004 l 929 0 l 798 0 l 699 275 l 288 275 l 188 0 l 58 0 m 322 393 l 664 393 l 493 878 l 322 393 m 274 1088 l 449 1244 l 540 1244 l 711 1088 l 590 1088 l 493 1178 l 388 1088 l 274 1088 m 689 1242 l 542 1410 l 663 1410 l 773 1242 l 689 1242 z "},"Ẩ":{"ha":986,"x_min":58,"x_max":929,"o":"m 58 0 l 421 1004 l 566 1004 l 929 0 l 798 0 l 699 275 l 288 275 l 188 0 l 58 0 m 322 393 l 664 393 l 493 878 l 322 393 m 277 1088 l 451 1244 l 543 1244 l 714 1088 l 593 1088 l 496 1178 l 391 1088 l 277 1088 m 658 1210 l 619 1268 q 661 1312 649 1287 q 659 1361 674 1338 q 616 1383 645 1383 q 558 1364 587 1383 l 521 1422 q 635 1453 580 1460 q 720 1401 691 1446 q 737 1298 754 1349 q 658 1210 719 1247 z "},"Ẫ":{"ha":986,"x_min":58,"x_max":929,"o":"m 58 0 l 421 1004 l 566 1004 l 929 0 l 798 0 l 699 275 l 288 275 l 188 0 l 58 0 m 322 393 l 664 393 l 493 878 l 322 393 m 275 1088 l 449 1244 l 541 1244 l 712 1088 l 591 1088 l 494 1178 l 389 1088 l 275 1088 m 309 1319 l 285 1396 q 334 1432 308 1417 q 400 1447 360 1447 q 465 1438 435 1447 q 524 1419 495 1428 q 583 1409 553 1409 q 637 1420 615 1409 q 681 1447 660 1432 l 703 1363 q 656 1336 685 1350 q 583 1323 627 1323 q 518 1332 546 1323 q 464 1350 490 1341 q 406 1358 438 1358 q 351 1347 372 1358 q 309 1319 331 1336 z "},"Ȁ":{"ha":986,"x_min":58,"x_max":929,"o":"m 58 0 l 421 1004 l 566 1004 l 929 0 l 798 0 l 699 275 l 288 275 l 188 0 l 58 0 m 322 393 l 664 393 l 493 878 l 322 393 m 346 1088 l 144 1290 l 281 1290 l 445 1088 l 346 1088 m 540 1088 l 369 1290 l 503 1290 l 639 1088 l 540 1088 z "},"Ä":{"ha":986,"x_min":58,"x_max":929,"o":"m 58 0 l 421 1004 l 566 1004 l 929 0 l 798 0 l 699 275 l 288 275 l 188 0 l 58 0 m 322 393 l 664 393 l 493 878 l 322 393 m 565 1166 l 566 1290 l 692 1290 l 691 1166 l 565 1166 m 295 1166 l 296 1290 l 422 1290 l 421 1166 l 295 1166 z "},"Ạ":{"ha":986,"x_min":58,"x_max":929,"o":"m 58 0 l 421 1004 l 566 1004 l 929 0 l 798 0 l 699 275 l 288 275 l 188 0 l 58 0 m 322 393 l 664 393 l 493 878 l 322 393 m 428 -249 l 428 -125 l 558 -125 l 558 -249 l 428 -249 z "},"À":{"ha":986,"x_min":58,"x_max":929,"o":"m 58 0 l 421 1004 l 566 1004 l 929 0 l 798 0 l 699 275 l 288 275 l 188 0 l 58 0 m 322 393 l 664 393 l 493 878 l 322 393 m 447 1088 l 257 1290 l 403 1290 l 547 1088 l 447 1088 z "},"Ả":{"ha":986,"x_min":58,"x_max":929,"o":"m 58 0 l 421 1004 l 566 1004 l 929 0 l 798 0 l 699 275 l 288 275 l 188 0 l 58 0 m 322 393 l 664 393 l 493 878 l 322 393 m 535 1086 l 497 1144 q 539 1189 527 1163 q 537 1238 551 1214 q 493 1260 523 1260 q 436 1240 464 1259 l 398 1299 q 513 1330 457 1337 q 597 1278 569 1322 q 614 1174 632 1225 q 535 1086 597 1124 z "},"Ȃ":{"ha":986,"x_min":58,"x_max":929,"o":"m 58 0 l 421 1004 l 566 1004 l 929 0 l 798 0 l 699 275 l 288 275 l 188 0 l 58 0 m 322 393 l 664 393 l 493 878 l 322 393 m 280 1125 q 320 1207 290 1174 q 394 1258 351 1240 q 489 1275 438 1275 q 587 1257 543 1275 q 661 1206 631 1239 q 701 1125 691 1172 l 608 1125 q 565 1179 596 1158 q 489 1200 533 1200 q 415 1179 445 1200 q 373 1125 385 1158 l 280 1125 z "},"Ā":{"ha":986,"x_min":58,"x_max":929,"o":"m 58 0 l 421 1004 l 566 1004 l 929 0 l 798 0 l 699 275 l 288 275 l 188 0 l 58 0 m 322 393 l 664 393 l 493 878 l 322 393 m 285 1144 l 285 1234 l 700 1234 l 700 1144 l 285 1144 z "},"Ą":{"ha":986,"x_min":58,"x_max":963,"o":"m 58 0 l 421 1004 l 566 1004 l 929 0 l 798 0 l 699 275 l 288 275 l 188 0 l 58 0 m 322 393 l 664 393 l 493 878 l 322 393 m 833 -233 q 731 -203 766 -233 q 696 -123 696 -174 q 725 -48 696 -81 q 838 11 755 -15 l 931 3 q 830 -52 861 -26 q 799 -112 799 -78 q 814 -150 799 -137 q 863 -162 829 -162 q 922 -154 897 -162 q 963 -137 948 -145 l 963 -204 q 910 -224 946 -215 q 833 -233 874 -233 z "},"Å":{"ha":986,"x_min":58,"x_max":929,"o":"m 58 0 l 421 1004 l 566 1004 l 929 0 l 798 0 l 699 275 l 288 275 l 188 0 l 58 0 m 322 393 l 664 393 l 493 878 l 322 393 m 494 1088 q 392 1130 434 1088 q 351 1233 351 1172 q 393 1331 351 1290 q 494 1372 435 1372 q 567 1352 534 1372 q 618 1301 599 1333 q 638 1231 638 1269 q 596 1129 638 1170 q 494 1088 554 1088 m 492 1154 q 545 1177 524 1154 q 566 1230 566 1200 q 545 1283 566 1263 q 492 1303 524 1303 q 440 1283 463 1303 q 417 1230 417 1263 q 440 1177 417 1200 q 492 1154 463 1154 z "},"Ǻ":{"ha":986,"x_min":58,"x_max":929,"o":"m 583 1306 l 543 1210 q 608 1162 583 1196 q 633 1083 633 1128 q 592 985 633 1024 q 492 947 551 947 q 393 986 433 947 q 353 1086 353 1026 q 385 1172 353 1136 q 466 1216 418 1208 l 488 1306 l 583 1306 m 491 1006 q 544 1030 522 1006 q 565 1082 565 1053 q 544 1136 565 1115 q 491 1157 522 1157 q 439 1136 462 1157 q 416 1082 416 1115 q 439 1030 416 1053 q 491 1006 462 1006 m 58 0 l 421 1004 l 566 1004 l 929 0 l 798 0 l 699 275 l 288 275 l 188 0 l 58 0 m 322 393 l 664 393 l 493 878 l 322 393 z "},"Ã":{"ha":986,"x_min":58,"x_max":929,"o":"m 58 0 l 421 1004 l 566 1004 l 929 0 l 798 0 l 699 275 l 288 275 l 188 0 l 58 0 m 322 393 l 664 393 l 493 878 l 322 393 m 310 1133 l 286 1209 q 336 1246 310 1231 q 402 1261 363 1261 q 466 1251 436 1261 q 525 1232 497 1242 q 585 1222 554 1222 q 639 1234 616 1222 q 682 1261 662 1245 l 704 1176 q 657 1150 686 1163 q 585 1136 628 1136 q 519 1145 547 1136 q 466 1163 492 1154 q 408 1172 440 1172 q 353 1161 374 1172 q 310 1133 332 1149 z "},"Æ":{"ha":1353,"x_min":0,"x_max":1270,"o":"m 0 0 l 556 1004 l 1253 1004 l 1253 893 l 774 893 l 774 562 l 1203 562 l 1203 451 l 774 451 l 774 112 l 1270 112 l 1270 0 l 628 0 l 628 278 l 285 278 l 131 0 l 0 0 m 336 393 l 628 393 l 628 911 l 336 393 z "},"Ǽ":{"ha":1353,"x_min":0,"x_max":1270,"o":"m 0 0 l 556 1004 l 1253 1004 l 1253 893 l 774 893 l 774 562 l 1203 562 l 1203 451 l 774 451 l 774 112 l 1270 112 l 1270 0 l 628 0 l 628 278 l 285 278 l 131 0 l 0 0 m 336 393 l 628 393 l 628 911 l 336 393 m 836 1088 l 979 1290 l 1125 1290 l 935 1088 l 836 1088 z "},"B":{"ha":931,"x_min":133,"x_max":852,"o":"m 133 0 l 133 1004 l 456 1004 q 733 937 639 1004 q 827 742 827 869 q 786 606 827 663 q 641 512 744 549 q 741 476 700 499 q 806 420 781 452 q 841 351 831 389 q 852 270 852 313 q 755 67 852 134 q 466 0 658 0 l 133 0 m 261 107 l 465 107 q 656 148 590 107 q 722 276 722 190 q 689 378 722 339 q 602 435 657 417 q 480 453 547 453 l 261 453 l 261 107 m 261 563 l 480 563 q 558 570 519 563 q 630 597 597 578 q 683 647 663 615 q 703 726 703 678 q 636 856 703 814 q 462 898 569 898 l 261 898 l 261 563 z "},"C":{"ha":956,"x_min":75,"x_max":881,"o":"m 502 -14 q 271 48 367 -14 q 125 226 176 110 q 75 506 75 342 q 125 783 75 669 q 270 958 175 898 q 502 1018 366 1018 q 690 974 608 1018 q 822 856 772 930 q 881 694 872 783 l 744 694 q 702 801 733 753 q 620 878 671 849 q 499 906 569 906 q 345 864 408 906 q 250 732 282 821 q 217 504 217 643 q 289 196 217 294 q 499 98 361 98 q 620 128 569 98 q 702 208 671 158 q 744 316 733 258 l 881 316 q 847 193 874 252 q 774 87 820 133 q 659 13 727 40 q 502 -14 592 -14 z "},"Ć":{"ha":956,"x_min":75,"x_max":881,"o":"m 502 -14 q 271 48 367 -14 q 125 226 176 110 q 75 506 75 342 q 125 783 75 669 q 270 958 175 898 q 502 1018 366 1018 q 690 974 608 1018 q 822 856 772 930 q 881 694 872 783 l 744 694 q 702 801 733 753 q 620 878 671 849 q 499 906 569 906 q 345 864 408 906 q 250 732 282 821 q 217 504 217 643 q 289 196 217 294 q 499 98 361 98 q 620 128 569 98 q 702 208 671 158 q 744 316 733 258 l 881 316 q 847 193 874 252 q 774 87 820 133 q 659 13 727 40 q 502 -14 592 -14 m 442 1088 l 585 1290 l 731 1290 l 541 1088 l 442 1088 z "},"Č":{"ha":956,"x_min":75,"x_max":881,"o":"m 502 -14 q 271 48 367 -14 q 125 226 176 110 q 75 506 75 342 q 125 783 75 669 q 270 958 175 898 q 502 1018 366 1018 q 690 974 608 1018 q 822 856 772 930 q 881 694 872 783 l 744 694 q 702 801 733 753 q 620 878 671 849 q 499 906 569 906 q 345 864 408 906 q 250 732 282 821 q 217 504 217 643 q 289 196 217 294 q 499 98 361 98 q 620 128 569 98 q 702 208 671 158 q 744 316 733 258 l 881 316 q 847 193 874 252 q 774 87 820 133 q 659 13 727 40 q 502 -14 592 -14 m 453 1088 l 278 1244 l 393 1244 l 498 1151 l 595 1244 l 716 1244 l 545 1088 l 453 1088 z "},"Ç":{"ha":956,"x_min":75,"x_max":881,"o":"m 483 -286 q 413 -278 446 -286 q 351 -251 380 -269 l 373 -197 q 414 -220 391 -210 q 468 -230 438 -230 q 525 -217 506 -230 q 543 -179 543 -203 q 517 -134 543 -149 q 432 -118 491 -119 q 423 -116 425 -118 q 424 -109 422 -114 l 474 7 l 542 7 l 509 -77 q 584 -95 556 -79 q 622 -133 611 -110 q 633 -178 633 -156 q 613 -237 633 -214 q 558 -274 592 -261 q 483 -286 524 -286 m 502 -14 q 271 48 367 -14 q 125 226 176 110 q 75 506 75 342 q 125 783 75 669 q 270 958 175 898 q 502 1018 366 1018 q 690 974 608 1018 q 822 856 772 930 q 881 694 872 783 l 744 694 q 702 801 733 753 q 620 878 671 849 q 499 906 569 906 q 345 864 408 906 q 250 732 282 821 q 217 504 217 643 q 289 196 217 294 q 499 98 361 98 q 620 128 569 98 q 702 208 671 158 q 744 316 733 258 l 881 316 q 847 193 874 252 q 774 87 820 133 q 659 13 727 40 q 502 -14 592 -14 z "},"Ĉ":{"ha":956,"x_min":75,"x_max":881,"o":"m 502 -14 q 271 48 367 -14 q 125 226 176 110 q 75 506 75 342 q 125 783 75 669 q 270 958 175 898 q 502 1018 366 1018 q 690 974 608 1018 q 822 856 772 930 q 881 694 872 783 l 744 694 q 702 801 733 753 q 620 878 671 849 q 499 906 569 906 q 345 864 408 906 q 250 732 282 821 q 217 504 217 643 q 289 196 217 294 q 499 98 361 98 q 620 128 569 98 q 702 208 671 158 q 744 316 733 258 l 881 316 q 847 193 874 252 q 774 87 820 133 q 659 13 727 40 q 502 -14 592 -14 m 279 1088 l 453 1244 l 545 1244 l 716 1088 l 595 1088 l 498 1178 l 393 1088 l 279 1088 z "},"Ċ":{"ha":956,"x_min":75,"x_max":881,"o":"m 502 -14 q 271 48 367 -14 q 125 226 176 110 q 75 506 75 342 q 125 783 75 669 q 270 958 175 898 q 502 1018 366 1018 q 690 974 608 1018 q 822 856 772 930 q 881 694 872 783 l 744 694 q 702 801 733 753 q 620 878 671 849 q 499 906 569 906 q 345 864 408 906 q 250 732 282 821 q 217 504 217 643 q 289 196 217 294 q 499 98 361 98 q 620 128 569 98 q 702 208 671 158 q 744 316 733 258 l 881 316 q 847 193 874 252 q 774 87 820 133 q 659 13 727 40 q 502 -14 592 -14 m 433 1166 l 433 1290 l 563 1290 l 563 1166 l 433 1166 z "},"D":{"ha":963,"x_min":133,"x_max":888,"o":"m 133 0 l 133 1004 q 162 1004 138 1004 q 222 1004 187 1003 q 296 1004 258 1004 q 366 1003 334 1003 q 666 943 551 1000 q 834 776 781 885 q 888 508 888 667 q 830 228 888 342 q 654 58 772 115 q 353 0 535 0 l 133 0 m 265 110 l 353 110 q 567 149 477 110 q 705 274 656 188 q 753 506 753 361 q 706 736 753 651 q 571 857 659 821 q 358 894 483 894 l 265 894 l 265 110 z "},"Ð":{"ha":982,"x_min":49,"x_max":907,"o":"m 49 451 l 49 553 l 511 553 l 511 451 l 49 451 m 151 0 l 151 1004 q 181 1004 156 1004 q 241 1004 205 1003 q 315 1004 276 1004 q 385 1003 353 1003 q 684 943 569 1000 q 853 776 799 885 q 907 508 907 667 q 849 228 907 342 q 672 58 791 115 q 372 0 553 0 l 151 0 m 283 110 l 372 110 q 585 149 496 110 q 723 274 675 188 q 772 506 772 361 q 725 736 772 651 q 590 857 678 821 q 377 894 501 894 l 283 894 l 283 110 z "},"Ď":{"ha":963,"x_min":133,"x_max":888,"o":"m 133 0 l 133 1004 q 162 1004 138 1004 q 222 1004 187 1003 q 296 1004 258 1004 q 366 1003 334 1003 q 666 943 551 1000 q 834 776 781 885 q 888 508 888 667 q 830 228 888 342 q 654 58 772 115 q 353 0 535 0 l 133 0 m 265 110 l 353 110 q 567 149 477 110 q 705 274 656 188 q 753 506 753 361 q 706 736 753 651 q 571 857 659 821 q 358 894 483 894 l 265 894 l 265 110 m 428 1088 l 253 1244 l 368 1244 l 473 1151 l 570 1244 l 691 1244 l 520 1088 l 428 1088 z "},"Đ":{"ha":982,"x_min":49,"x_max":907,"o":"m 49 451 l 49 553 l 511 553 l 511 451 l 49 451 m 151 0 l 151 1004 q 181 1004 156 1004 q 241 1004 205 1003 q 315 1004 276 1004 q 385 1003 353 1003 q 684 943 569 1000 q 853 776 799 885 q 907 508 907 667 q 849 228 907 342 q 672 58 791 115 q 372 0 553 0 l 151 0 m 283 110 l 372 110 q 585 149 496 110 q 723 274 675 188 q 772 506 772 361 q 725 736 772 651 q 590 857 678 821 q 377 894 501 894 l 283 894 l 283 110 z "},"Ḍ":{"ha":963,"x_min":133,"x_max":888,"o":"m 133 0 l 133 1004 q 162 1004 138 1004 q 222 1004 187 1003 q 296 1004 258 1004 q 366 1003 334 1003 q 666 943 551 1000 q 834 776 781 885 q 888 508 888 667 q 830 228 888 342 q 654 58 772 115 q 353 0 535 0 l 133 0 m 265 110 l 353 110 q 567 149 477 110 q 705 274 656 188 q 753 506 753 361 q 706 736 753 651 q 571 857 659 821 q 358 894 483 894 l 265 894 l 265 110 m 429 -249 l 429 -125 l 559 -125 l 559 -249 l 429 -249 z "},"E":{"ha":862,"x_min":133,"x_max":779,"o":"m 133 0 l 133 1004 l 766 1004 l 765 891 l 262 891 l 262 563 l 715 563 l 715 451 l 261 451 l 261 116 l 779 115 l 779 0 l 133 0 z "},"É":{"ha":862,"x_min":133,"x_max":779,"o":"m 133 0 l 133 1004 l 766 1004 l 765 891 l 262 891 l 262 563 l 715 563 l 715 451 l 261 451 l 261 116 l 779 115 l 779 0 l 133 0 m 395 1088 l 538 1290 l 684 1290 l 494 1088 l 395 1088 z "},"Ĕ":{"ha":862,"x_min":133,"x_max":779,"o":"m 133 0 l 133 1004 l 766 1004 l 765 891 l 262 891 l 262 563 l 715 563 l 715 451 l 261 451 l 261 116 l 779 115 l 779 0 l 133 0 m 450 1086 q 355 1103 399 1086 q 281 1155 311 1121 q 240 1237 251 1188 l 334 1237 q 375 1182 345 1203 q 450 1161 406 1161 q 525 1182 494 1161 q 569 1237 557 1203 l 662 1237 q 621 1156 651 1190 q 548 1104 592 1122 q 450 1086 503 1086 z "},"Ě":{"ha":862,"x_min":133,"x_max":779,"o":"m 133 0 l 133 1004 l 766 1004 l 765 891 l 262 891 l 262 563 l 715 563 l 715 451 l 261 451 l 261 116 l 779 115 l 779 0 l 133 0 m 406 1088 l 231 1244 l 346 1244 l 451 1151 l 548 1244 l 669 1244 l 498 1088 l 406 1088 z "},"Ê":{"ha":862,"x_min":133,"x_max":779,"o":"m 133 0 l 133 1004 l 766 1004 l 765 891 l 262 891 l 262 563 l 715 563 l 715 451 l 261 451 l 261 116 l 779 115 l 779 0 l 133 0 m 232 1088 l 406 1244 l 498 1244 l 669 1088 l 548 1088 l 451 1178 l 346 1088 l 232 1088 z "},"Ế":{"ha":862,"x_min":133,"x_max":800,"o":"m 133 0 l 133 1004 l 766 1004 l 765 891 l 262 891 l 262 563 l 715 563 l 715 451 l 261 451 l 261 116 l 779 115 l 779 0 l 133 0 m 232 1088 l 406 1244 l 498 1244 l 669 1088 l 548 1088 l 451 1178 l 346 1088 l 232 1088 m 578 1242 l 680 1410 l 800 1410 l 660 1242 l 578 1242 z "},"Ệ":{"ha":862,"x_min":133,"x_max":779,"o":"m 133 0 l 133 1004 l 766 1004 l 765 891 l 262 891 l 262 563 l 715 563 l 715 451 l 261 451 l 261 116 l 779 115 l 779 0 l 133 0 m 411 -249 l 411 -125 l 541 -125 l 541 -249 l 411 -249 m 232 1088 l 406 1244 l 498 1244 l 669 1088 l 548 1088 l 451 1178 l 346 1088 l 232 1088 z "},"Ề":{"ha":862,"x_min":133,"x_max":779,"o":"m 133 0 l 133 1004 l 766 1004 l 765 891 l 262 891 l 262 563 l 715 563 l 715 451 l 261 451 l 261 116 l 779 115 l 779 0 l 133 0 m 232 1088 l 406 1244 l 498 1244 l 669 1088 l 548 1088 l 451 1178 l 346 1088 l 232 1088 m 647 1242 l 500 1410 l 620 1410 l 731 1242 l 647 1242 z "},"Ể":{"ha":862,"x_min":133,"x_max":779,"o":"m 133 0 l 133 1004 l 766 1004 l 765 891 l 262 891 l 262 563 l 715 563 l 715 451 l 261 451 l 261 116 l 779 115 l 779 0 l 133 0 m 235 1088 l 410 1244 l 501 1244 l 672 1088 l 551 1088 l 454 1178 l 349 1088 l 235 1088 m 616 1210 l 578 1268 q 620 1312 608 1287 q 617 1361 632 1338 q 574 1383 603 1383 q 517 1364 545 1383 l 479 1422 q 594 1453 538 1460 q 678 1401 649 1446 q 695 1298 713 1349 q 616 1210 678 1247 z "},"Ễ":{"ha":862,"x_min":133,"x_max":779,"o":"m 133 0 l 133 1004 l 766 1004 l 765 891 l 262 891 l 262 563 l 715 563 l 715 451 l 261 451 l 261 116 l 779 115 l 779 0 l 133 0 m 233 1088 l 408 1244 l 499 1244 l 670 1088 l 549 1088 l 452 1178 l 347 1088 l 233 1088 m 267 1319 l 243 1396 q 292 1432 266 1417 q 358 1447 319 1447 q 423 1438 393 1447 q 482 1419 453 1428 q 542 1409 511 1409 q 595 1420 573 1409 q 639 1447 618 1432 l 661 1363 q 614 1336 643 1350 q 541 1323 585 1323 q 476 1332 504 1323 q 423 1350 449 1341 q 365 1358 397 1358 q 310 1347 331 1358 q 267 1319 289 1336 z "},"Ȅ":{"ha":862,"x_min":101,"x_max":779,"o":"m 133 0 l 133 1004 l 766 1004 l 765 891 l 262 891 l 262 563 l 715 563 l 715 451 l 261 451 l 261 116 l 779 115 l 779 0 l 133 0 m 303 1088 l 101 1290 l 239 1290 l 403 1088 l 303 1088 m 497 1088 l 326 1290 l 460 1290 l 597 1088 l 497 1088 z "},"Ë":{"ha":862,"x_min":133,"x_max":779,"o":"m 133 0 l 133 1004 l 766 1004 l 765 891 l 262 891 l 262 563 l 715 563 l 715 451 l 261 451 l 261 116 l 779 115 l 779 0 l 133 0 m 523 1166 l 524 1290 l 649 1290 l 649 1166 l 523 1166 m 253 1166 l 253 1290 l 379 1290 l 378 1166 l 253 1166 z "},"Ė":{"ha":862,"x_min":133,"x_max":779,"o":"m 133 0 l 133 1004 l 766 1004 l 765 891 l 262 891 l 262 563 l 715 563 l 715 451 l 261 451 l 261 116 l 779 115 l 779 0 l 133 0 m 386 1166 l 386 1290 l 516 1290 l 516 1166 l 386 1166 z "},"Ẹ":{"ha":862,"x_min":133,"x_max":779,"o":"m 133 0 l 133 1004 l 766 1004 l 765 891 l 262 891 l 262 563 l 715 563 l 715 451 l 261 451 l 261 116 l 779 115 l 779 0 l 133 0 m 411 -249 l 411 -125 l 541 -125 l 541 -249 l 411 -249 z "},"È":{"ha":862,"x_min":133,"x_max":779,"o":"m 133 0 l 133 1004 l 766 1004 l 765 891 l 262 891 l 262 563 l 715 563 l 715 451 l 261 451 l 261 116 l 779 115 l 779 0 l 133 0 m 405 1088 l 215 1290 l 361 1290 l 504 1088 l 405 1088 z "},"Ẻ":{"ha":862,"x_min":133,"x_max":779,"o":"m 133 0 l 133 1004 l 766 1004 l 765 891 l 262 891 l 262 563 l 715 563 l 715 451 l 261 451 l 261 116 l 779 115 l 779 0 l 133 0 m 492 1086 l 455 1144 q 497 1189 485 1163 q 494 1238 509 1214 q 451 1260 481 1260 q 394 1240 422 1259 l 356 1299 q 470 1330 415 1337 q 555 1278 526 1322 q 572 1174 590 1225 q 492 1086 554 1124 z "},"Ȇ":{"ha":862,"x_min":133,"x_max":779,"o":"m 133 0 l 133 1004 l 766 1004 l 765 891 l 262 891 l 262 563 l 715 563 l 715 451 l 261 451 l 261 116 l 779 115 l 779 0 l 133 0 m 238 1125 q 279 1207 249 1174 q 353 1258 309 1240 q 447 1275 397 1275 q 545 1257 501 1275 q 619 1206 590 1239 q 659 1125 649 1172 l 567 1125 q 523 1179 554 1158 q 447 1200 492 1200 q 373 1179 403 1200 q 331 1125 343 1158 l 238 1125 z "},"Ē":{"ha":862,"x_min":133,"x_max":779,"o":"m 133 0 l 133 1004 l 766 1004 l 765 891 l 262 891 l 262 563 l 715 563 l 715 451 l 261 451 l 261 116 l 779 115 l 779 0 l 133 0 m 244 1144 l 244 1234 l 658 1234 l 658 1144 l 244 1144 z "},"Ę":{"ha":862,"x_min":133,"x_max":820,"o":"m 133 0 l 133 1004 l 766 1004 l 765 891 l 262 891 l 262 563 l 715 563 l 715 451 l 261 451 l 261 116 l 779 115 l 779 0 l 133 0 m 691 -233 q 589 -203 624 -233 q 553 -123 553 -174 q 583 -48 553 -81 q 696 11 613 -15 l 789 3 q 688 -52 719 -26 q 657 -112 657 -78 q 672 -150 657 -137 q 721 -162 687 -162 q 780 -154 754 -162 q 820 -137 806 -145 l 820 -204 q 768 -224 803 -215 q 691 -233 732 -233 z "},"Ẽ":{"ha":862,"x_min":133,"x_max":779,"o":"m 133 0 l 133 1004 l 766 1004 l 765 891 l 262 891 l 262 563 l 715 563 l 715 451 l 261 451 l 261 116 l 779 115 l 779 0 l 133 0 m 269 1133 l 244 1209 q 294 1246 268 1231 q 360 1261 321 1261 q 425 1251 394 1261 q 484 1232 455 1242 q 543 1222 513 1222 q 597 1234 574 1222 q 640 1261 620 1245 l 663 1176 q 616 1150 644 1163 q 543 1136 587 1136 q 478 1145 506 1136 q 424 1163 450 1154 q 366 1172 398 1172 q 311 1161 332 1172 q 269 1133 290 1149 z "},"F":{"ha":825,"x_min":133,"x_max":758,"o":"m 133 0 l 133 1004 l 758 1004 l 758 892 l 265 892 l 265 560 l 708 560 l 708 449 l 265 449 l 265 0 l 133 0 z "},"G":{"ha":1018,"x_min":75,"x_max":901,"o":"m 501 -14 q 274 47 369 -14 q 126 222 178 108 q 75 499 75 337 q 127 779 75 663 q 277 957 180 895 q 507 1018 374 1018 q 649 992 583 1018 q 767 920 716 965 q 850 816 819 874 q 885 694 881 758 l 747 694 q 704 798 738 750 q 620 875 671 846 q 505 904 569 904 q 352 861 418 904 q 250 730 287 819 q 214 502 214 641 q 236 319 214 395 q 298 195 258 242 q 392 125 338 147 q 508 102 446 102 q 618 124 572 102 q 697 182 665 147 q 745 257 728 217 q 763 335 762 298 l 767 424 l 523 424 l 523 519 l 901 518 l 901 0 l 804 0 l 804 153 q 738 72 778 110 q 639 10 697 33 q 501 -14 581 -14 z "},"Ğ":{"ha":1018,"x_min":75,"x_max":901,"o":"m 501 -14 q 274 47 369 -14 q 126 222 178 108 q 75 499 75 337 q 127 779 75 663 q 277 957 180 895 q 507 1018 374 1018 q 649 992 583 1018 q 767 920 716 965 q 850 816 819 874 q 885 694 881 758 l 747 694 q 704 798 738 750 q 620 875 671 846 q 505 904 569 904 q 352 861 418 904 q 250 730 287 819 q 214 502 214 641 q 236 319 214 395 q 298 195 258 242 q 392 125 338 147 q 508 102 446 102 q 618 124 572 102 q 697 182 665 147 q 745 257 728 217 q 763 335 762 298 l 767 424 l 523 424 l 523 519 l 901 518 l 901 0 l 804 0 l 804 153 q 738 72 778 110 q 639 10 697 33 q 501 -14 581 -14 m 503 1086 q 408 1103 452 1086 q 335 1155 365 1121 q 294 1237 305 1188 l 388 1237 q 429 1182 399 1203 q 503 1161 459 1161 q 579 1182 547 1161 q 622 1237 610 1203 l 715 1237 q 675 1156 704 1190 q 601 1104 645 1122 q 503 1086 557 1086 z "},"Ĝ":{"ha":1018,"x_min":75,"x_max":901,"o":"m 501 -14 q 274 47 369 -14 q 126 222 178 108 q 75 499 75 337 q 127 779 75 663 q 277 957 180 895 q 507 1018 374 1018 q 649 992 583 1018 q 767 920 716 965 q 850 816 819 874 q 885 694 881 758 l 747 694 q 704 798 738 750 q 620 875 671 846 q 505 904 569 904 q 352 861 418 904 q 250 730 287 819 q 214 502 214 641 q 236 319 214 395 q 298 195 258 242 q 392 125 338 147 q 508 102 446 102 q 618 124 572 102 q 697 182 665 147 q 745 257 728 217 q 763 335 762 298 l 767 424 l 523 424 l 523 519 l 901 518 l 901 0 l 804 0 l 804 153 q 738 72 778 110 q 639 10 697 33 q 501 -14 581 -14 m 285 1088 l 460 1244 l 551 1244 l 722 1088 l 601 1088 l 504 1178 l 399 1088 l 285 1088 z "},"Ģ":{"ha":1018,"x_min":75,"x_max":901,"o":"m 501 -14 q 274 47 369 -14 q 126 222 178 108 q 75 499 75 337 q 127 779 75 663 q 277 957 180 895 q 507 1018 374 1018 q 649 992 583 1018 q 767 920 716 965 q 850 816 819 874 q 885 694 881 758 l 747 694 q 704 798 738 750 q 620 875 671 846 q 505 904 569 904 q 352 861 418 904 q 250 730 287 819 q 214 502 214 641 q 236 319 214 395 q 298 195 258 242 q 392 125 338 147 q 508 102 446 102 q 618 124 572 102 q 697 182 665 147 q 745 257 728 217 q 763 335 762 298 l 767 424 l 523 424 l 523 519 l 901 518 l 901 0 l 804 0 l 804 153 q 738 72 778 110 q 639 10 697 33 q 501 -14 581 -14 m 425 -264 l 482 -178 l 438 -174 l 438 -67 l 568 -67 l 568 -157 l 478 -264 l 425 -264 z "},"Ġ":{"ha":1018,"x_min":75,"x_max":901,"o":"m 501 -14 q 274 47 369 -14 q 126 222 178 108 q 75 499 75 337 q 127 779 75 663 q 277 957 180 895 q 507 1018 374 1018 q 649 992 583 1018 q 767 920 716 965 q 850 816 819 874 q 885 694 881 758 l 747 694 q 704 798 738 750 q 620 875 671 846 q 505 904 569 904 q 352 861 418 904 q 250 730 287 819 q 214 502 214 641 q 236 319 214 395 q 298 195 258 242 q 392 125 338 147 q 508 102 446 102 q 618 124 572 102 q 697 182 665 147 q 745 257 728 217 q 763 335 762 298 l 767 424 l 523 424 l 523 519 l 901 518 l 901 0 l 804 0 l 804 153 q 738 72 778 110 q 639 10 697 33 q 501 -14 581 -14 m 439 1166 l 439 1290 l 569 1290 l 569 1166 l 439 1166 z "},"H":{"ha":1064,"x_min":133,"x_max":931,"o":"m 133 0 l 133 1004 l 261 1004 l 261 576 l 803 576 l 803 1004 l 931 1004 l 931 0 l 803 0 l 803 463 l 261 463 l 261 0 l 133 0 z "},"Ħ":{"ha":1099,"x_min":19,"x_max":1081,"o":"m 19 772 l 19 856 l 1081 856 l 1081 772 l 19 772 m 155 0 l 155 1004 l 283 1004 l 283 576 l 825 576 l 825 1004 l 953 1004 l 953 0 l 825 0 l 825 463 l 283 463 l 283 0 l 155 0 z "},"Ĥ":{"ha":1064,"x_min":133,"x_max":931,"o":"m 133 0 l 133 1004 l 261 1004 l 261 576 l 803 576 l 803 1004 l 931 1004 l 931 0 l 803 0 l 803 463 l 261 463 l 261 0 l 133 0 m 311 1094 l 485 1250 l 577 1250 l 748 1094 l 627 1094 l 530 1184 l 425 1094 l 311 1094 z "},"Ḥ":{"ha":1064,"x_min":133,"x_max":931,"o":"m 133 0 l 133 1004 l 261 1004 l 261 576 l 803 576 l 803 1004 l 931 1004 l 931 0 l 803 0 l 803 463 l 261 463 l 261 0 l 133 0 m 478 -249 l 478 -125 l 608 -125 l 608 -249 l 478 -249 z "},"I":{"ha":393,"x_min":133,"x_max":261,"o":"m 133 0 l 133 1004 l 261 1004 l 261 0 l 133 0 z "},"Í":{"ha":393,"x_min":133,"x_max":431,"o":"m 133 0 l 133 1004 l 261 1004 l 261 0 l 133 0 m 141 1088 l 284 1290 l 430 1290 l 240 1088 l 141 1088 z "},"Ĭ":{"ha":393,"x_min":-13,"x_max":408,"o":"m 133 0 l 133 1004 l 261 1004 l 261 0 l 133 0 m 197 1086 q 101 1103 145 1086 q 28 1155 58 1121 q -13 1237 -2 1188 l 81 1237 q 122 1182 92 1203 q 197 1161 152 1161 q 272 1182 240 1161 q 315 1237 303 1203 l 408 1237 q 368 1156 397 1190 q 294 1104 338 1122 q 197 1086 250 1086 z "},"Î":{"ha":393,"x_min":-22,"x_max":415,"o":"m 133 0 l 133 1004 l 261 1004 l 261 0 l 133 0 m -22 1088 l 153 1244 l 244 1244 l 415 1088 l 294 1088 l 197 1178 l 92 1088 l -22 1088 z "},"Ȉ":{"ha":393,"x_min":-152,"x_max":343,"o":"m 133 0 l 133 1004 l 261 1004 l 261 0 l 133 0 m 50 1088 l -152 1290 l -15 1290 l 149 1088 l 50 1088 m 244 1088 l 73 1290 l 207 1290 l 343 1088 l 244 1088 z "},"Ï":{"ha":393,"x_min":-1,"x_max":396,"o":"m 133 0 l 133 1004 l 261 1004 l 261 0 l 133 0 m 269 1166 l 270 1290 l 396 1290 l 395 1166 l 269 1166 m -1 1166 l 0 1290 l 126 1290 l 125 1166 l -1 1166 z "},"İ":{"ha":393,"x_min":132,"x_max":263,"o":"m 133 0 l 133 1004 l 261 1004 l 261 0 l 133 0 m 132 1166 l 132 1290 l 262 1290 l 262 1166 l 132 1166 z "},"Ị":{"ha":393,"x_min":133,"x_max":269,"o":"m 133 0 l 133 1004 l 261 1004 l 261 0 l 133 0 m 138 -249 l 138 -125 l 268 -125 l 268 -249 l 138 -249 z "},"Ì":{"ha":393,"x_min":-39,"x_max":261,"o":"m 133 0 l 133 1004 l 261 1004 l 261 0 l 133 0 m 151 1088 l -39 1290 l 108 1290 l 251 1088 l 151 1088 z "},"Ỉ":{"ha":393,"x_min":102,"x_max":336,"o":"m 133 0 l 133 1004 l 261 1004 l 261 0 l 133 0 m 239 1086 l 201 1144 q 243 1189 231 1163 q 241 1238 256 1214 q 198 1260 227 1260 q 140 1240 168 1259 l 102 1299 q 217 1330 161 1337 q 301 1278 273 1322 q 318 1174 336 1225 q 239 1086 301 1124 z "},"Ȋ":{"ha":393,"x_min":-16,"x_max":405,"o":"m 133 0 l 133 1004 l 261 1004 l 261 0 l 133 0 m -16 1125 q 25 1207 -6 1174 q 99 1258 55 1240 q 193 1275 142 1275 q 291 1257 247 1275 q 365 1206 335 1239 q 405 1125 395 1172 l 313 1125 q 269 1179 300 1158 q 193 1200 238 1200 q 119 1179 149 1200 q 77 1125 89 1158 l -16 1125 z "},"Ī":{"ha":393,"x_min":-10,"x_max":404,"o":"m 133 0 l 133 1004 l 261 1004 l 261 0 l 133 0 m -10 1144 l -10 1234 l 404 1234 l 404 1144 l -10 1144 z "},"Į":{"ha":393,"x_min":25,"x_max":292,"o":"m 133 0 l 133 1004 l 261 1004 l 261 0 l 133 0 m 162 -235 q 59 -206 94 -235 q 24 -126 24 -176 q 54 -51 24 -84 q 167 8 83 -18 l 260 0 q 159 -55 190 -29 q 128 -115 128 -81 q 143 -152 128 -140 q 192 -165 158 -165 q 251 -157 225 -165 q 291 -140 276 -148 l 291 -207 q 239 -226 274 -217 q 162 -235 203 -235 z "},"Ĩ":{"ha":393,"x_min":-10,"x_max":408,"o":"m 133 0 l 133 1004 l 261 1004 l 261 0 l 133 0 m 15 1133 l -10 1209 q 40 1246 14 1231 q 106 1261 67 1261 q 170 1251 140 1261 q 230 1232 201 1242 q 289 1222 258 1222 q 343 1234 320 1222 q 386 1261 366 1245 l 408 1176 q 361 1150 390 1163 q 289 1136 333 1136 q 224 1145 251 1136 q 170 1163 196 1154 q 112 1172 144 1172 q 57 1161 78 1172 q 15 1133 36 1149 z "},"J":{"ha":540,"x_min":58,"x_max":433,"o":"m 220 -14 q 120 -1 167 -14 q 58 17 73 11 l 67 140 q 116 121 88 133 q 186 110 144 110 q 280 147 254 110 q 305 274 305 185 l 305 1004 l 433 1004 l 433 237 q 415 101 433 157 q 351 15 397 44 q 220 -14 305 -14 z "},"Ĵ":{"ha":540,"x_min":58,"x_max":584,"o":"m 220 -14 q 120 -1 167 -14 q 58 17 73 11 l 67 140 q 116 121 88 133 q 186 110 144 110 q 280 147 254 110 q 305 274 305 185 l 305 1004 l 433 1004 l 433 237 q 415 101 433 157 q 351 15 397 44 q 220 -14 305 -14 m 147 1088 l 322 1244 l 413 1244 l 584 1088 l 463 1088 l 366 1178 l 261 1088 l 147 1088 z "},"K":{"ha":947,"x_min":133,"x_max":899,"o":"m 133 0 l 133 1004 l 266 1004 l 266 485 l 716 1004 l 869 1004 l 534 610 l 899 0 l 753 0 l 440 516 l 266 317 l 266 0 l 133 0 z "},"Ķ":{"ha":947,"x_min":133,"x_max":899,"o":"m 133 0 l 133 1004 l 266 1004 l 266 485 l 716 1004 l 869 1004 l 534 610 l 899 0 l 753 0 l 440 516 l 266 317 l 266 0 l 133 0 m 397 -264 l 454 -178 l 410 -174 l 410 -67 l 540 -67 l 540 -157 l 450 -264 l 397 -264 z "},"L":{"ha":802,"x_min":133,"x_max":739,"o":"m 133 0 l 133 1004 l 265 1004 l 265 115 l 739 115 l 739 0 l 133 0 z "},"Ĺ":{"ha":802,"x_min":133,"x_max":739,"o":"m 133 0 l 133 1004 l 265 1004 l 265 115 l 739 115 l 739 0 l 133 0 m 142 1088 l 285 1290 l 431 1290 l 241 1088 l 142 1088 z "},"Ľ":{"ha":802,"x_min":133,"x_max":739,"o":"m 133 0 l 133 1004 l 265 1004 l 265 115 l 739 115 l 739 0 l 133 0 m 528 735 l 581 863 l 543 869 l 543 1004 l 649 1004 l 649 863 l 594 735 l 528 735 z "},"Ļ":{"ha":802,"x_min":133,"x_max":739,"o":"m 133 0 l 133 1004 l 265 1004 l 265 115 l 739 115 l 739 0 l 133 0 m 352 -264 l 409 -178 l 365 -174 l 365 -67 l 495 -67 l 495 -157 l 405 -264 l 352 -264 z "},"Ŀ":{"ha":802,"x_min":133,"x_max":739,"o":"m 133 0 l 133 1004 l 265 1004 l 265 115 l 739 115 l 739 0 l 133 0 m 522 471 l 522 624 l 681 624 l 681 471 l 522 471 z "},"Ł":{"ha":807,"x_min":14,"x_max":744,"o":"m 14 417 l 14 528 l 484 650 l 484 545 l 14 417 m 138 0 l 138 1004 l 269 1004 l 269 115 l 744 115 l 744 0 l 138 0 z "},"M":{"ha":1230,"x_min":133,"x_max":1097,"o":"m 133 0 l 133 1004 l 310 1004 l 613 175 l 920 1004 l 1097 1004 l 1097 0 l 965 0 l 965 812 l 674 0 l 553 0 l 265 804 l 265 0 l 133 0 z "},"N":{"ha":1047,"x_min":133,"x_max":915,"o":"m 133 0 l 133 1004 l 256 1004 l 786 224 l 786 1004 l 915 1004 l 915 0 l 800 0 l 261 792 l 261 0 l 133 0 z "},"Ń":{"ha":1047,"x_min":133,"x_max":915,"o":"m 133 0 l 133 1004 l 256 1004 l 786 224 l 786 1004 l 915 1004 l 915 0 l 800 0 l 261 792 l 261 0 l 133 0 m 467 1088 l 610 1290 l 756 1290 l 567 1088 l 467 1088 z "},"Ň":{"ha":1047,"x_min":133,"x_max":915,"o":"m 133 0 l 133 1004 l 256 1004 l 786 224 l 786 1004 l 915 1004 l 915 0 l 800 0 l 261 792 l 261 0 l 133 0 m 478 1088 l 303 1244 l 418 1244 l 523 1151 l 620 1244 l 741 1244 l 570 1088 l 478 1088 z "},"Ņ":{"ha":1047,"x_min":133,"x_max":915,"o":"m 133 0 l 133 1004 l 256 1004 l 786 224 l 786 1004 l 915 1004 l 915 0 l 800 0 l 261 792 l 261 0 l 133 0 m 425 -264 l 482 -178 l 438 -174 l 438 -67 l 568 -67 l 568 -157 l 478 -264 l 425 -264 z "},"Ṅ":{"ha":1047,"x_min":133,"x_max":915,"o":"m 133 0 l 133 1004 l 256 1004 l 786 224 l 786 1004 l 915 1004 l 915 0 l 800 0 l 261 792 l 261 0 l 133 0 m 458 1166 l 458 1290 l 588 1290 l 588 1166 l 458 1166 z "},"Ŋ":{"ha":1047,"x_min":133,"x_max":915,"o":"m 701 -333 q 601 -321 648 -333 q 538 -302 554 -308 l 547 -179 q 597 -198 569 -187 q 667 -210 625 -210 q 759 -176 731 -210 q 787 -62 787 -142 l 787 19 l 261 792 l 261 0 l 133 0 l 133 1004 l 256 1004 l 786 224 l 786 1004 l 915 1004 l 915 -82 q 895 -222 915 -167 q 829 -306 876 -278 q 701 -333 783 -333 z "},"Ñ":{"ha":1047,"x_min":133,"x_max":915,"o":"m 133 0 l 133 1004 l 256 1004 l 786 224 l 786 1004 l 915 1004 l 915 0 l 800 0 l 261 792 l 261 0 l 133 0 m 340 1133 l 316 1209 q 366 1246 340 1231 q 432 1261 392 1261 q 496 1251 466 1261 q 555 1232 526 1242 q 615 1222 584 1222 q 669 1234 646 1222 q 712 1261 692 1245 l 734 1176 q 687 1150 716 1163 q 615 1136 658 1136 q 549 1145 577 1136 q 495 1163 522 1154 q 438 1172 469 1172 q 383 1161 403 1172 q 340 1133 362 1149 z "},"O":{"ha":1019,"x_min":75,"x_max":944,"o":"m 511 -14 q 279 47 377 -14 q 128 222 181 107 q 75 500 75 337 q 128 780 75 665 q 280 957 182 896 q 511 1018 378 1018 q 742 957 644 1018 q 892 781 839 897 q 944 500 944 665 q 892 222 944 337 q 742 47 840 107 q 511 -14 645 -14 m 511 98 q 669 140 604 98 q 769 272 735 183 q 803 499 803 360 q 769 729 803 639 q 669 863 734 819 q 511 906 603 906 q 353 863 419 906 q 252 728 288 819 q 217 499 217 638 q 252 272 217 360 q 353 140 288 183 q 511 98 419 98 z "},"Ó":{"ha":1019,"x_min":75,"x_max":944,"o":"m 511 -14 q 279 47 377 -14 q 128 222 181 107 q 75 500 75 337 q 128 780 75 665 q 280 957 182 896 q 511 1018 378 1018 q 742 957 644 1018 q 892 781 839 897 q 944 500 944 665 q 892 222 944 337 q 742 47 840 107 q 511 -14 645 -14 m 511 98 q 669 140 604 98 q 769 272 735 183 q 803 499 803 360 q 769 729 803 639 q 669 863 734 819 q 511 906 603 906 q 353 863 419 906 q 252 728 288 819 q 217 499 217 638 q 252 272 217 360 q 353 140 288 183 q 511 98 419 98 m 456 1088 l 599 1290 l 744 1290 l 555 1088 l 456 1088 z "},"Ŏ":{"ha":1019,"x_min":75,"x_max":944,"o":"m 511 -14 q 279 47 377 -14 q 128 222 181 107 q 75 500 75 337 q 128 780 75 665 q 280 957 182 896 q 511 1018 378 1018 q 742 957 644 1018 q 892 781 839 897 q 944 500 944 665 q 892 222 944 337 q 742 47 840 107 q 511 -14 645 -14 m 511 98 q 669 140 604 98 q 769 272 735 183 q 803 499 803 360 q 769 729 803 639 q 669 863 734 819 q 511 906 603 906 q 353 863 419 906 q 252 728 288 819 q 217 499 217 638 q 252 272 217 360 q 353 140 288 183 q 511 98 419 98 m 510 1086 q 415 1103 459 1086 q 342 1155 372 1121 q 301 1237 312 1188 l 394 1237 q 436 1182 406 1203 q 510 1161 466 1161 q 586 1182 554 1161 q 629 1237 617 1203 l 722 1237 q 682 1156 711 1190 q 608 1104 652 1122 q 510 1086 564 1086 z "},"Ô":{"ha":1019,"x_min":75,"x_max":944,"o":"m 511 -14 q 279 47 377 -14 q 128 222 181 107 q 75 500 75 337 q 128 780 75 665 q 280 957 182 896 q 511 1018 378 1018 q 742 957 644 1018 q 892 781 839 897 q 944 500 944 665 q 892 222 944 337 q 742 47 840 107 q 511 -14 645 -14 m 511 98 q 669 140 604 98 q 769 272 735 183 q 803 499 803 360 q 769 729 803 639 q 669 863 734 819 q 511 906 603 906 q 353 863 419 906 q 252 728 288 819 q 217 499 217 638 q 252 272 217 360 q 353 140 288 183 q 511 98 419 98 m 292 1088 l 467 1244 l 558 1244 l 729 1088 l 608 1088 l 511 1178 l 406 1088 l 292 1088 z "},"Ố":{"ha":1019,"x_min":75,"x_max":944,"o":"m 511 -14 q 279 47 377 -14 q 128 222 181 107 q 75 500 75 337 q 128 780 75 665 q 280 957 182 896 q 511 1018 378 1018 q 742 957 644 1018 q 892 781 839 897 q 944 500 944 665 q 892 222 944 337 q 742 47 840 107 q 511 -14 645 -14 m 511 98 q 669 140 604 98 q 769 272 735 183 q 803 499 803 360 q 769 729 803 639 q 669 863 734 819 q 511 906 603 906 q 353 863 419 906 q 252 728 288 819 q 217 499 217 638 q 252 272 217 360 q 353 140 288 183 q 511 98 419 98 m 292 1088 l 467 1244 l 558 1244 l 729 1088 l 608 1088 l 511 1178 l 406 1088 l 292 1088 m 639 1242 l 740 1410 l 860 1410 l 721 1242 l 639 1242 z "},"Ộ":{"ha":1019,"x_min":75,"x_max":944,"o":"m 511 -14 q 279 47 377 -14 q 128 222 181 107 q 75 500 75 337 q 128 780 75 665 q 280 957 182 896 q 511 1018 378 1018 q 742 957 644 1018 q 892 781 839 897 q 944 500 944 665 q 892 222 944 337 q 742 47 840 107 q 511 -14 645 -14 m 511 98 q 669 140 604 98 q 769 272 735 183 q 803 499 803 360 q 769 729 803 639 q 669 863 734 819 q 511 906 603 906 q 353 863 419 906 q 252 728 288 819 q 217 499 217 638 q 252 272 217 360 q 353 140 288 183 q 511 98 419 98 m 448 -249 l 448 -125 l 578 -125 l 578 -249 l 448 -249 m 292 1088 l 467 1244 l 558 1244 l 729 1088 l 608 1088 l 511 1178 l 406 1088 l 292 1088 z "},"Ồ":{"ha":1019,"x_min":75,"x_max":944,"o":"m 511 -14 q 279 47 377 -14 q 128 222 181 107 q 75 500 75 337 q 128 780 75 665 q 280 957 182 896 q 511 1018 378 1018 q 742 957 644 1018 q 892 781 839 897 q 944 500 944 665 q 892 222 944 337 q 742 47 840 107 q 511 -14 645 -14 m 511 98 q 669 140 604 98 q 769 272 735 183 q 803 499 803 360 q 769 729 803 639 q 669 863 734 819 q 511 906 603 906 q 353 863 419 906 q 252 728 288 819 q 217 499 217 638 q 252 272 217 360 q 353 140 288 183 q 511 98 419 98 m 292 1088 l 467 1244 l 558 1244 l 729 1088 l 608 1088 l 511 1178 l 406 1088 l 292 1088 m 707 1242 l 560 1410 l 681 1410 l 791 1242 l 707 1242 z "},"Ổ":{"ha":1019,"x_min":75,"x_max":944,"o":"m 511 -14 q 279 47 377 -14 q 128 222 181 107 q 75 500 75 337 q 128 780 75 665 q 280 957 182 896 q 511 1018 378 1018 q 742 957 644 1018 q 892 781 839 897 q 944 500 944 665 q 892 222 944 337 q 742 47 840 107 q 511 -14 645 -14 m 511 98 q 669 140 604 98 q 769 272 735 183 q 803 499 803 360 q 769 729 803 639 q 669 863 734 819 q 511 906 603 906 q 353 863 419 906 q 252 728 288 819 q 217 499 217 638 q 252 272 217 360 q 353 140 288 183 q 511 98 419 98 m 296 1088 l 470 1244 l 562 1244 l 733 1088 l 612 1088 l 515 1178 l 410 1088 l 296 1088 m 676 1210 l 638 1268 q 680 1312 668 1287 q 678 1361 692 1338 q 635 1383 664 1383 q 577 1364 606 1383 l 540 1422 q 654 1453 599 1460 q 739 1401 710 1446 q 756 1298 773 1349 q 676 1210 738 1247 z "},"Ỗ":{"ha":1019,"x_min":75,"x_max":944,"o":"m 511 -14 q 279 47 377 -14 q 128 222 181 107 q 75 500 75 337 q 128 780 75 665 q 280 957 182 896 q 511 1018 378 1018 q 742 957 644 1018 q 892 781 839 897 q 944 500 944 665 q 892 222 944 337 q 742 47 840 107 q 511 -14 645 -14 m 511 98 q 669 140 604 98 q 769 272 735 183 q 803 499 803 360 q 769 729 803 639 q 669 863 734 819 q 511 906 603 906 q 353 863 419 906 q 252 728 288 819 q 217 499 217 638 q 252 272 217 360 q 353 140 288 183 q 511 98 419 98 m 294 1088 l 468 1244 l 560 1244 l 731 1088 l 610 1088 l 513 1178 l 408 1088 l 294 1088 m 328 1319 l 303 1396 q 353 1432 326 1417 q 419 1447 379 1447 q 484 1438 453 1447 q 543 1419 514 1428 q 602 1409 572 1409 q 656 1420 633 1409 q 699 1447 678 1432 l 722 1363 q 675 1336 703 1350 q 601 1323 646 1323 q 537 1332 565 1323 q 483 1350 509 1341 q 425 1358 457 1358 q 370 1347 391 1358 q 328 1319 349 1336 z "},"Ȍ":{"ha":1019,"x_min":75,"x_max":944,"o":"m 511 -14 q 279 47 377 -14 q 128 222 181 107 q 75 500 75 337 q 128 780 75 665 q 280 957 182 896 q 511 1018 378 1018 q 742 957 644 1018 q 892 781 839 897 q 944 500 944 665 q 892 222 944 337 q 742 47 840 107 q 511 -14 645 -14 m 511 98 q 669 140 604 98 q 769 272 735 183 q 803 499 803 360 q 769 729 803 639 q 669 863 734 819 q 511 906 603 906 q 353 863 419 906 q 252 728 288 819 q 217 499 217 638 q 252 272 217 360 q 353 140 288 183 q 511 98 419 98 m 364 1088 l 162 1290 l 299 1290 l 463 1088 l 364 1088 m 558 1088 l 387 1290 l 521 1290 l 657 1088 l 558 1088 z "},"Ö":{"ha":1019,"x_min":75,"x_max":944,"o":"m 511 -14 q 279 47 377 -14 q 128 222 181 107 q 75 500 75 337 q 128 780 75 665 q 280 957 182 896 q 511 1018 378 1018 q 742 957 644 1018 q 892 781 839 897 q 944 500 944 665 q 892 222 944 337 q 742 47 840 107 q 511 -14 645 -14 m 511 98 q 669 140 604 98 q 769 272 735 183 q 803 499 803 360 q 769 729 803 639 q 669 863 734 819 q 511 906 603 906 q 353 863 419 906 q 252 728 288 819 q 217 499 217 638 q 252 272 217 360 q 353 140 288 183 q 511 98 419 98 m 584 1166 l 585 1290 l 710 1290 l 710 1166 l 584 1166 m 314 1166 l 315 1290 l 440 1290 l 440 1166 l 314 1166 z "},"Ọ":{"ha":1019,"x_min":75,"x_max":944,"o":"m 511 -14 q 279 47 377 -14 q 128 222 181 107 q 75 500 75 337 q 128 780 75 665 q 280 957 182 896 q 511 1018 378 1018 q 742 957 644 1018 q 892 781 839 897 q 944 500 944 665 q 892 222 944 337 q 742 47 840 107 q 511 -14 645 -14 m 511 98 q 669 140 604 98 q 769 272 735 183 q 803 499 803 360 q 769 729 803 639 q 669 863 734 819 q 511 906 603 906 q 353 863 419 906 q 252 728 288 819 q 217 499 217 638 q 252 272 217 360 q 353 140 288 183 q 511 98 419 98 m 448 -249 l 448 -125 l 578 -125 l 578 -249 l 448 -249 z "},"Ò":{"ha":1019,"x_min":75,"x_max":944,"o":"m 511 -14 q 279 47 377 -14 q 128 222 181 107 q 75 500 75 337 q 128 780 75 665 q 280 957 182 896 q 511 1018 378 1018 q 742 957 644 1018 q 892 781 839 897 q 944 500 944 665 q 892 222 944 337 q 742 47 840 107 q 511 -14 645 -14 m 511 98 q 669 140 604 98 q 769 272 735 183 q 803 499 803 360 q 769 729 803 639 q 669 863 734 819 q 511 906 603 906 q 353 863 419 906 q 252 728 288 819 q 217 499 217 638 q 252 272 217 360 q 353 140 288 183 q 511 98 419 98 m 465 1088 l 275 1290 l 422 1290 l 565 1088 l 465 1088 z "},"Ỏ":{"ha":1019,"x_min":75,"x_max":944,"o":"m 511 -14 q 279 47 377 -14 q 128 222 181 107 q 75 500 75 337 q 128 780 75 665 q 280 957 182 896 q 511 1018 378 1018 q 742 957 644 1018 q 892 781 839 897 q 944 500 944 665 q 892 222 944 337 q 742 47 840 107 q 511 -14 645 -14 m 511 98 q 669 140 604 98 q 769 272 735 183 q 803 499 803 360 q 769 729 803 639 q 669 863 734 819 q 511 906 603 906 q 353 863 419 906 q 252 728 288 819 q 217 499 217 638 q 252 272 217 360 q 353 140 288 183 q 511 98 419 98 m 553 1086 l 515 1144 q 557 1189 545 1163 q 555 1238 569 1214 q 511 1260 541 1260 q 454 1240 482 1259 l 416 1299 q 531 1330 475 1337 q 615 1278 587 1322 q 632 1174 650 1225 q 553 1086 615 1124 z "},"Ơ":{"ha":1091,"x_min":75,"x_max":1034,"o":"m 511 -14 q 279 47 377 -14 q 128 222 181 107 q 75 500 75 337 q 128 780 75 665 q 280 957 182 896 q 511 1018 378 1018 q 689 985 610 1018 q 824 888 767 951 q 871 894 851 888 q 903 914 890 899 q 922 956 915 928 q 931 1026 929 983 l 1034 1026 q 1018 910 1033 956 q 968 839 1002 863 q 876 811 933 815 q 927 673 909 751 q 944 500 944 595 q 892 222 944 337 q 742 47 840 107 q 511 -14 645 -14 m 511 98 q 669 140 604 98 q 769 272 735 183 q 803 499 803 360 q 769 729 803 639 q 669 863 734 819 q 511 906 603 906 q 353 863 419 906 q 252 728 288 819 q 217 499 217 638 q 252 272 217 360 q 353 140 288 183 q 511 98 419 98 z "},"Ớ":{"ha":1091,"x_min":75,"x_max":1034,"o":"m 511 -14 q 279 47 377 -14 q 128 222 181 107 q 75 500 75 337 q 128 780 75 665 q 280 957 182 896 q 511 1018 378 1018 q 689 985 610 1018 q 824 888 767 951 q 871 894 851 888 q 903 914 890 899 q 922 956 915 928 q 931 1026 929 983 l 1034 1026 q 1018 910 1033 956 q 968 839 1002 863 q 876 811 933 815 q 927 673 909 751 q 944 500 944 595 q 892 222 944 337 q 742 47 840 107 q 511 -14 645 -14 m 511 98 q 669 140 604 98 q 769 272 735 183 q 803 499 803 360 q 769 729 803 639 q 669 863 734 819 q 511 906 603 906 q 353 863 419 906 q 252 728 288 819 q 217 499 217 638 q 252 272 217 360 q 353 140 288 183 q 511 98 419 98 m 456 1088 l 599 1290 l 744 1290 l 555 1088 l 456 1088 z "},"Ợ":{"ha":1091,"x_min":75,"x_max":1034,"o":"m 511 -14 q 279 47 377 -14 q 128 222 181 107 q 75 500 75 337 q 128 780 75 665 q 280 957 182 896 q 511 1018 378 1018 q 689 985 610 1018 q 824 888 767 951 q 871 894 851 888 q 903 914 890 899 q 922 956 915 928 q 931 1026 929 983 l 1034 1026 q 1018 910 1033 956 q 968 839 1002 863 q 876 811 933 815 q 927 673 909 751 q 944 500 944 595 q 892 222 944 337 q 742 47 840 107 q 511 -14 645 -14 m 511 98 q 669 140 604 98 q 769 272 735 183 q 803 499 803 360 q 769 729 803 639 q 669 863 734 819 q 511 906 603 906 q 353 863 419 906 q 252 728 288 819 q 217 499 217 638 q 252 272 217 360 q 353 140 288 183 q 511 98 419 98 m 448 -249 l 448 -125 l 578 -125 l 578 -249 l 448 -249 z "},"Ờ":{"ha":1091,"x_min":75,"x_max":1034,"o":"m 511 -14 q 279 47 377 -14 q 128 222 181 107 q 75 500 75 337 q 128 780 75 665 q 280 957 182 896 q 511 1018 378 1018 q 689 985 610 1018 q 824 888 767 951 q 871 894 851 888 q 903 914 890 899 q 922 956 915 928 q 931 1026 929 983 l 1034 1026 q 1018 910 1033 956 q 968 839 1002 863 q 876 811 933 815 q 927 673 909 751 q 944 500 944 595 q 892 222 944 337 q 742 47 840 107 q 511 -14 645 -14 m 511 98 q 669 140 604 98 q 769 272 735 183 q 803 499 803 360 q 769 729 803 639 q 669 863 734 819 q 511 906 603 906 q 353 863 419 906 q 252 728 288 819 q 217 499 217 638 q 252 272 217 360 q 353 140 288 183 q 511 98 419 98 m 465 1088 l 275 1290 l 422 1290 l 565 1088 l 465 1088 z "},"Ở":{"ha":1091,"x_min":75,"x_max":1034,"o":"m 511 -14 q 279 47 377 -14 q 128 222 181 107 q 75 500 75 337 q 128 780 75 665 q 280 957 182 896 q 511 1018 378 1018 q 689 985 610 1018 q 824 888 767 951 q 871 894 851 888 q 903 914 890 899 q 922 956 915 928 q 931 1026 929 983 l 1034 1026 q 1018 910 1033 956 q 968 839 1002 863 q 876 811 933 815 q 927 673 909 751 q 944 500 944 595 q 892 222 944 337 q 742 47 840 107 q 511 -14 645 -14 m 511 98 q 669 140 604 98 q 769 272 735 183 q 803 499 803 360 q 769 729 803 639 q 669 863 734 819 q 511 906 603 906 q 353 863 419 906 q 252 728 288 819 q 217 499 217 638 q 252 272 217 360 q 353 140 288 183 q 511 98 419 98 m 553 1086 l 515 1144 q 557 1189 545 1163 q 555 1238 569 1214 q 511 1260 541 1260 q 454 1240 482 1259 l 416 1299 q 531 1330 475 1337 q 615 1278 587 1322 q 632 1174 650 1225 q 553 1086 615 1124 z "},"Ỡ":{"ha":1091,"x_min":75,"x_max":1034,"o":"m 511 -14 q 279 47 377 -14 q 128 222 181 107 q 75 500 75 337 q 128 780 75 665 q 280 957 182 896 q 511 1018 378 1018 q 689 985 610 1018 q 824 888 767 951 q 871 894 851 888 q 903 914 890 899 q 922 956 915 928 q 931 1026 929 983 l 1034 1026 q 1018 910 1033 956 q 968 839 1002 863 q 876 811 933 815 q 927 673 909 751 q 944 500 944 595 q 892 222 944 337 q 742 47 840 107 q 511 -14 645 -14 m 511 98 q 669 140 604 98 q 769 272 735 183 q 803 499 803 360 q 769 729 803 639 q 669 863 734 819 q 511 906 603 906 q 353 863 419 906 q 252 728 288 819 q 217 499 217 638 q 252 272 217 360 q 353 140 288 183 q 511 98 419 98 m 329 1133 l 305 1209 q 355 1246 328 1231 q 421 1261 381 1261 q 485 1251 455 1261 q 544 1232 515 1242 q 603 1222 573 1222 q 658 1234 635 1222 q 701 1261 681 1245 l 723 1176 q 676 1150 705 1163 q 603 1136 647 1136 q 538 1145 566 1136 q 484 1163 510 1154 q 426 1172 458 1172 q 372 1161 392 1172 q 329 1133 351 1149 z "},"Ő":{"ha":1019,"x_min":75,"x_max":944,"o":"m 511 -14 q 279 47 377 -14 q 128 222 181 107 q 75 500 75 337 q 128 780 75 665 q 280 957 182 896 q 511 1018 378 1018 q 742 957 644 1018 q 892 781 839 897 q 944 500 944 665 q 892 222 944 337 q 742 47 840 107 q 511 -14 645 -14 m 511 98 q 669 140 604 98 q 769 272 735 183 q 803 499 803 360 q 769 729 803 639 q 669 863 734 819 q 511 906 603 906 q 353 863 419 906 q 252 728 288 819 q 217 499 217 638 q 252 272 217 360 q 353 140 288 183 q 511 98 419 98 m 563 1088 l 726 1290 l 864 1290 l 661 1088 l 563 1088 m 369 1088 l 505 1290 l 639 1290 l 467 1088 l 369 1088 z "},"Ȏ":{"ha":1019,"x_min":75,"x_max":944,"o":"m 511 -14 q 279 47 377 -14 q 128 222 181 107 q 75 500 75 337 q 128 780 75 665 q 280 957 182 896 q 511 1018 378 1018 q 742 957 644 1018 q 892 781 839 897 q 944 500 944 665 q 892 222 944 337 q 742 47 840 107 q 511 -14 645 -14 m 511 98 q 669 140 604 98 q 769 272 735 183 q 803 499 803 360 q 769 729 803 639 q 669 863 734 819 q 511 906 603 906 q 353 863 419 906 q 252 728 288 819 q 217 499 217 638 q 252 272 217 360 q 353 140 288 183 q 511 98 419 98 m 299 1125 q 339 1207 309 1174 q 413 1258 369 1240 q 508 1275 457 1275 q 606 1257 562 1275 q 680 1206 650 1239 q 719 1125 710 1172 l 627 1125 q 583 1179 615 1158 q 508 1200 552 1200 q 434 1179 464 1200 q 392 1125 403 1158 l 299 1125 z "},"Ō":{"ha":1019,"x_min":75,"x_max":944,"o":"m 511 -14 q 279 47 377 -14 q 128 222 181 107 q 75 500 75 337 q 128 780 75 665 q 280 957 182 896 q 511 1018 378 1018 q 742 957 644 1018 q 892 781 839 897 q 944 500 944 665 q 892 222 944 337 q 742 47 840 107 q 511 -14 645 -14 m 511 98 q 669 140 604 98 q 769 272 735 183 q 803 499 803 360 q 769 729 803 639 q 669 863 734 819 q 511 906 603 906 q 353 863 419 906 q 252 728 288 819 q 217 499 217 638 q 252 272 217 360 q 353 140 288 183 q 511 98 419 98 m 304 1144 l 304 1234 l 719 1234 l 719 1144 l 304 1144 z "},"Ǫ":{"ha":1019,"x_min":75,"x_max":944,"o":"m 535 -233 q 432 -204 467 -233 q 397 -124 397 -174 q 426 -49 397 -82 q 539 10 456 -16 l 633 2 q 531 -53 563 -27 q 500 -112 500 -78 q 515 -150 500 -137 q 565 -163 531 -163 q 623 -155 597 -163 q 664 -137 649 -146 l 664 -205 q 611 -224 647 -215 q 535 -233 576 -233 m 511 -14 q 279 47 377 -14 q 128 222 181 107 q 75 500 75 337 q 128 780 75 665 q 280 957 182 896 q 511 1018 378 1018 q 742 957 644 1018 q 892 781 839 897 q 944 500 944 665 q 892 222 944 337 q 742 47 840 107 q 511 -14 645 -14 m 511 98 q 669 140 604 98 q 769 272 735 183 q 803 499 803 360 q 769 729 803 639 q 669 863 734 819 q 511 906 603 906 q 353 863 419 906 q 252 728 288 819 q 217 499 217 638 q 252 272 217 360 q 353 140 288 183 q 511 98 419 98 z "},"Ø":{"ha":1042,"x_min":39,"x_max":1001,"o":"m 108 -19 l 39 49 l 158 179 q 103 320 122 240 q 84 498 84 401 q 137 780 84 663 q 288 957 190 896 q 519 1018 385 1018 q 689 988 613 1018 q 819 900 765 958 l 932 1022 l 1001 955 l 879 821 q 934 678 915 759 q 953 500 953 598 q 901 222 953 337 q 750 47 848 107 q 519 -14 653 -14 q 349 16 425 -14 q 219 101 274 45 l 108 -19 m 520 97 q 719 183 651 97 q 792 448 786 269 q 788 583 794 519 q 764 704 781 647 l 309 194 q 520 97 379 97 m 272 296 l 728 806 q 642 883 694 858 q 519 908 590 908 q 318 818 388 908 q 243 542 248 728 q 248 410 241 472 q 272 296 256 349 z "},"Ǿ":{"ha":1042,"x_min":39,"x_max":1001,"o":"m 108 -19 l 39 49 l 158 179 q 103 320 122 240 q 84 498 84 401 q 137 780 84 663 q 288 957 190 896 q 519 1018 385 1018 q 689 988 613 1018 q 819 900 765 958 l 932 1022 l 1001 955 l 879 821 q 934 678 915 759 q 953 500 953 598 q 901 222 953 337 q 750 47 848 107 q 519 -14 653 -14 q 349 16 425 -14 q 219 101 274 45 l 108 -19 m 520 97 q 719 183 651 97 q 792 448 786 269 q 788 583 794 519 q 764 704 781 647 l 309 194 q 520 97 379 97 m 272 296 l 728 806 q 642 883 694 858 q 519 908 590 908 q 318 818 388 908 q 243 542 248 728 q 248 410 241 472 q 272 296 256 349 m 463 1088 l 606 1290 l 751 1290 l 562 1088 l 463 1088 z "},"Õ":{"ha":1019,"x_min":75,"x_max":944,"o":"m 511 -14 q 279 47 377 -14 q 128 222 181 107 q 75 500 75 337 q 128 780 75 665 q 280 957 182 896 q 511 1018 378 1018 q 742 957 644 1018 q 892 781 839 897 q 944 500 944 665 q 892 222 944 337 q 742 47 840 107 q 511 -14 645 -14 m 511 98 q 669 140 604 98 q 769 272 735 183 q 803 499 803 360 q 769 729 803 639 q 669 863 734 819 q 511 906 603 906 q 353 863 419 906 q 252 728 288 819 q 217 499 217 638 q 252 272 217 360 q 353 140 288 183 q 511 98 419 98 m 329 1133 l 305 1209 q 355 1246 328 1231 q 421 1261 381 1261 q 485 1251 455 1261 q 544 1232 515 1242 q 603 1222 573 1222 q 658 1234 635 1222 q 701 1261 681 1245 l 723 1176 q 676 1150 705 1163 q 603 1136 647 1136 q 538 1145 566 1136 q 484 1163 510 1154 q 426 1172 458 1172 q 372 1161 392 1172 q 329 1133 351 1149 z "},"Œ":{"ha":1553,"x_min":75,"x_max":1469,"o":"m 951 451 l 951 116 l 1469 115 l 1469 0 l 823 0 l 823 156 q 696 30 775 73 q 511 -14 617 -14 q 279 47 377 -14 q 128 222 181 107 q 75 500 75 337 q 128 780 75 665 q 280 957 182 896 q 511 1018 378 1018 q 696 975 617 1018 q 823 847 775 931 l 823 1004 l 1456 1004 l 1456 891 l 952 891 l 952 563 l 1406 563 l 1406 451 l 951 451 m 511 98 q 669 140 604 98 q 769 272 735 183 q 803 499 803 360 q 769 729 803 639 q 669 863 734 819 q 511 906 603 906 q 353 863 419 906 q 252 728 288 819 q 217 499 217 638 q 252 272 217 360 q 353 140 288 183 q 511 98 419 98 z "},"P":{"ha":884,"x_min":133,"x_max":844,"o":"m 133 0 l 133 1004 l 472 1004 q 664 968 580 1004 q 796 861 748 932 q 844 687 844 790 q 800 516 844 587 q 675 408 755 445 q 490 372 595 372 l 265 372 l 265 0 l 133 0 m 264 480 l 487 480 q 655 538 590 480 q 719 694 719 595 q 653 846 719 794 q 481 897 586 897 l 264 897 l 264 480 z "},"Þ":{"ha":903,"x_min":133,"x_max":864,"o":"m 133 0 l 133 1004 l 265 1004 l 265 798 l 492 798 q 685 768 601 798 q 816 677 769 739 q 864 520 864 615 q 817 355 864 419 q 686 258 769 290 q 497 227 603 227 l 265 227 l 265 0 l 133 0 m 265 339 l 493 339 q 616 357 563 339 q 700 414 669 374 q 730 520 730 453 q 700 618 730 582 q 615 671 669 655 q 486 687 560 687 l 265 687 l 265 339 z "},"Q":{"ha":1038,"x_min":75,"x_max":944,"o":"m 937 -168 q 833 -156 888 -168 q 725 -108 778 -144 q 629 -1 673 -72 q 567 -11 594 -8 q 510 -14 539 -14 q 280 45 378 -14 q 128 219 182 105 q 75 500 75 334 q 128 781 75 665 q 279 958 181 897 q 510 1018 377 1018 q 742 958 644 1018 q 892 781 840 897 q 944 500 944 665 q 898 233 944 344 q 749 55 852 122 q 825 -30 774 -2 q 937 -59 875 -57 l 937 -168 m 510 98 q 727 194 651 98 q 804 499 804 291 q 728 806 804 706 q 510 906 652 906 q 293 806 369 906 q 217 497 217 705 q 294 194 217 290 q 510 98 371 98 z "},"R":{"ha":940,"x_min":133,"x_max":851,"o":"m 133 0 l 133 1004 l 522 1004 q 703 971 630 1004 q 812 877 776 938 q 848 730 848 815 q 819 594 848 648 q 746 507 790 540 q 653 456 701 474 l 851 0 l 715 0 l 531 433 l 261 433 l 261 0 l 133 0 m 261 539 l 480 539 q 655 585 593 539 q 717 722 717 631 q 661 855 717 811 q 510 899 606 899 l 261 899 l 261 539 z "},"Ŕ":{"ha":940,"x_min":133,"x_max":851,"o":"m 133 0 l 133 1004 l 522 1004 q 703 971 630 1004 q 812 877 776 938 q 848 730 848 815 q 819 594 848 648 q 746 507 790 540 q 653 456 701 474 l 851 0 l 715 0 l 531 433 l 261 433 l 261 0 l 133 0 m 261 539 l 480 539 q 655 585 593 539 q 717 722 717 631 q 661 855 717 811 q 510 899 606 899 l 261 899 l 261 539 m 401 1088 l 544 1290 l 690 1290 l 501 1088 l 401 1088 z "},"Ř":{"ha":940,"x_min":133,"x_max":851,"o":"m 133 0 l 133 1004 l 522 1004 q 703 971 630 1004 q 812 877 776 938 q 848 730 848 815 q 819 594 848 648 q 746 507 790 540 q 653 456 701 474 l 851 0 l 715 0 l 531 433 l 261 433 l 261 0 l 133 0 m 261 539 l 480 539 q 655 585 593 539 q 717 722 717 631 q 661 855 717 811 q 510 899 606 899 l 261 899 l 261 539 m 412 1088 l 237 1244 l 352 1244 l 457 1151 l 554 1244 l 675 1244 l 504 1088 l 412 1088 z "},"Ŗ":{"ha":940,"x_min":133,"x_max":851,"o":"m 133 0 l 133 1004 l 522 1004 q 703 971 630 1004 q 812 877 776 938 q 848 730 848 815 q 819 594 848 648 q 746 507 790 540 q 653 456 701 474 l 851 0 l 715 0 l 531 433 l 261 433 l 261 0 l 133 0 m 261 539 l 480 539 q 655 585 593 539 q 717 722 717 631 q 661 855 717 811 q 510 899 606 899 l 261 899 l 261 539 m 392 -264 l 449 -178 l 405 -174 l 405 -67 l 535 -67 l 535 -157 l 444 -264 l 392 -264 z "},"Ȑ":{"ha":940,"x_min":108,"x_max":851,"o":"m 133 0 l 133 1004 l 522 1004 q 703 971 630 1004 q 812 877 776 938 q 848 730 848 815 q 819 594 848 648 q 746 507 790 540 q 653 456 701 474 l 851 0 l 715 0 l 531 433 l 261 433 l 261 0 l 133 0 m 261 539 l 480 539 q 655 585 593 539 q 717 722 717 631 q 661 855 717 811 q 510 899 606 899 l 261 899 l 261 539 m 310 1088 l 108 1290 l 245 1290 l 409 1088 l 310 1088 m 503 1088 l 333 1290 l 467 1290 l 603 1088 l 503 1088 z "},"Ṛ":{"ha":940,"x_min":133,"x_max":851,"o":"m 133 0 l 133 1004 l 522 1004 q 703 971 630 1004 q 812 877 776 938 q 848 730 848 815 q 819 594 848 648 q 746 507 790 540 q 653 456 701 474 l 851 0 l 715 0 l 531 433 l 261 433 l 261 0 l 133 0 m 261 539 l 480 539 q 655 585 593 539 q 717 722 717 631 q 661 855 717 811 q 510 899 606 899 l 261 899 l 261 539 m 404 -249 l 404 -125 l 534 -125 l 534 -249 l 404 -249 z "},"Ȓ":{"ha":940,"x_min":133,"x_max":851,"o":"m 133 0 l 133 1004 l 522 1004 q 703 971 630 1004 q 812 877 776 938 q 848 730 848 815 q 819 594 848 648 q 746 507 790 540 q 653 456 701 474 l 851 0 l 715 0 l 531 433 l 261 433 l 261 0 l 133 0 m 261 539 l 480 539 q 655 585 593 539 q 717 722 717 631 q 661 855 717 811 q 510 899 606 899 l 261 899 l 261 539 m 244 1125 q 285 1207 255 1174 q 359 1258 315 1240 q 453 1275 403 1275 q 552 1257 508 1275 q 626 1206 596 1239 q 665 1125 656 1172 l 573 1125 q 529 1179 560 1158 q 453 1200 498 1200 q 380 1179 410 1200 q 338 1125 349 1158 l 244 1125 z "},"S":{"ha":931,"x_min":81,"x_max":847,"o":"m 473 -14 q 333 4 399 -14 q 214 57 267 22 q 125 145 160 92 q 81 267 90 197 l 215 267 q 265 171 228 210 q 357 113 302 132 q 478 93 413 93 q 596 113 542 93 q 683 172 650 133 q 715 265 715 210 q 676 361 715 324 q 556 419 638 397 l 349 473 q 225 522 279 490 q 141 605 172 553 q 110 734 110 657 q 158 883 110 819 q 286 982 205 947 q 469 1017 367 1017 q 668 976 587 1017 q 790 868 749 935 q 832 726 832 801 l 700 726 q 660 834 694 794 q 575 892 626 874 q 465 910 524 910 q 302 861 357 910 q 247 744 247 812 q 286 647 247 683 q 403 592 326 612 l 604 540 q 747 480 694 519 q 823 388 800 440 q 847 274 847 335 q 800 126 847 191 q 670 23 753 60 q 473 -14 586 -14 z "},"Ś":{"ha":931,"x_min":81,"x_max":847,"o":"m 473 -14 q 333 4 399 -14 q 214 57 267 22 q 125 145 160 92 q 81 267 90 197 l 215 267 q 265 171 228 210 q 357 113 302 132 q 478 93 413 93 q 596 113 542 93 q 683 172 650 133 q 715 265 715 210 q 676 361 715 324 q 556 419 638 397 l 349 473 q 225 522 279 490 q 141 605 172 553 q 110 734 110 657 q 158 883 110 819 q 286 982 205 947 q 469 1017 367 1017 q 668 976 587 1017 q 790 868 749 935 q 832 726 832 801 l 700 726 q 660 834 694 794 q 575 892 626 874 q 465 910 524 910 q 302 861 357 910 q 247 744 247 812 q 286 647 247 683 q 403 592 326 612 l 604 540 q 747 480 694 519 q 823 388 800 440 q 847 274 847 335 q 800 126 847 191 q 670 23 753 60 q 473 -14 586 -14 m 406 1088 l 549 1290 l 695 1290 l 506 1088 l 406 1088 z "},"Š":{"ha":931,"x_min":81,"x_max":847,"o":"m 473 -14 q 333 4 399 -14 q 214 57 267 22 q 125 145 160 92 q 81 267 90 197 l 215 267 q 265 171 228 210 q 357 113 302 132 q 478 93 413 93 q 596 113 542 93 q 683 172 650 133 q 715 265 715 210 q 676 361 715 324 q 556 419 638 397 l 349 473 q 225 522 279 490 q 141 605 172 553 q 110 734 110 657 q 158 883 110 819 q 286 982 205 947 q 469 1017 367 1017 q 668 976 587 1017 q 790 868 749 935 q 832 726 832 801 l 700 726 q 660 834 694 794 q 575 892 626 874 q 465 910 524 910 q 302 861 357 910 q 247 744 247 812 q 286 647 247 683 q 403 592 326 612 l 604 540 q 747 480 694 519 q 823 388 800 440 q 847 274 847 335 q 800 126 847 191 q 670 23 753 60 q 473 -14 586 -14 m 417 1088 l 242 1244 l 358 1244 l 463 1151 l 560 1244 l 681 1244 l 510 1088 l 417 1088 z "},"Ş":{"ha":931,"x_min":81,"x_max":847,"o":"m 435 -286 q 365 -278 398 -286 q 303 -251 332 -269 l 325 -197 q 366 -220 343 -210 q 420 -230 390 -230 q 477 -217 458 -230 q 495 -179 495 -203 q 469 -134 495 -149 q 384 -118 444 -119 q 376 -116 378 -118 q 376 -109 374 -114 l 426 7 l 494 7 l 461 -77 q 536 -95 509 -79 q 575 -133 563 -110 q 586 -178 586 -156 q 565 -237 586 -214 q 510 -274 544 -261 q 435 -286 476 -286 m 473 -14 q 333 4 399 -14 q 214 57 267 22 q 125 145 160 92 q 81 267 90 197 l 215 267 q 265 171 228 210 q 357 113 302 132 q 478 93 413 93 q 596 113 542 93 q 683 172 650 133 q 715 265 715 210 q 676 361 715 324 q 556 419 638 397 l 349 473 q 225 522 279 490 q 141 605 172 553 q 110 734 110 657 q 158 883 110 819 q 286 982 205 947 q 469 1017 367 1017 q 668 976 587 1017 q 790 868 749 935 q 832 726 832 801 l 700 726 q 660 834 694 794 q 575 892 626 874 q 465 910 524 910 q 302 861 357 910 q 247 744 247 812 q 286 647 247 683 q 403 592 326 612 l 604 540 q 747 480 694 519 q 823 388 800 440 q 847 274 847 335 q 800 126 847 191 q 670 23 753 60 q 473 -14 586 -14 z "},"Ŝ":{"ha":931,"x_min":81,"x_max":847,"o":"m 473 -14 q 333 4 399 -14 q 214 57 267 22 q 125 145 160 92 q 81 267 90 197 l 215 267 q 265 171 228 210 q 357 113 302 132 q 478 93 413 93 q 596 113 542 93 q 683 172 650 133 q 715 265 715 210 q 676 361 715 324 q 556 419 638 397 l 349 473 q 225 522 279 490 q 141 605 172 553 q 110 734 110 657 q 158 883 110 819 q 286 982 205 947 q 469 1017 367 1017 q 668 976 587 1017 q 790 868 749 935 q 832 726 832 801 l 700 726 q 660 834 694 794 q 575 892 626 874 q 465 910 524 910 q 302 861 357 910 q 247 744 247 812 q 286 647 247 683 q 403 592 326 612 l 604 540 q 747 480 694 519 q 823 388 800 440 q 847 274 847 335 q 800 126 847 191 q 670 23 753 60 q 473 -14 586 -14 m 244 1088 l 418 1244 l 510 1244 l 681 1088 l 560 1088 l 463 1178 l 358 1088 l 244 1088 z "},"Ș":{"ha":931,"x_min":81,"x_max":847,"o":"m 473 -14 q 333 4 399 -14 q 214 57 267 22 q 125 145 160 92 q 81 267 90 197 l 215 267 q 265 171 228 210 q 357 113 302 132 q 478 93 413 93 q 596 113 542 93 q 683 172 650 133 q 715 265 715 210 q 676 361 715 324 q 556 419 638 397 l 349 473 q 225 522 279 490 q 141 605 172 553 q 110 734 110 657 q 158 883 110 819 q 286 982 205 947 q 469 1017 367 1017 q 668 976 587 1017 q 790 868 749 935 q 832 726 832 801 l 700 726 q 660 834 694 794 q 575 892 626 874 q 465 910 524 910 q 302 861 357 910 q 247 744 247 812 q 286 647 247 683 q 403 592 326 612 l 604 540 q 747 480 694 519 q 823 388 800 440 q 847 274 847 335 q 800 126 847 191 q 670 23 753 60 q 473 -14 586 -14 m 380 -264 l 437 -178 l 393 -174 l 393 -67 l 523 -67 l 523 -157 l 433 -264 l 380 -264 z "},"Ṣ":{"ha":931,"x_min":81,"x_max":847,"o":"m 473 -14 q 333 4 399 -14 q 214 57 267 22 q 125 145 160 92 q 81 267 90 197 l 215 267 q 265 171 228 210 q 357 113 302 132 q 478 93 413 93 q 596 113 542 93 q 683 172 650 133 q 715 265 715 210 q 676 361 715 324 q 556 419 638 397 l 349 473 q 225 522 279 490 q 141 605 172 553 q 110 734 110 657 q 158 883 110 819 q 286 982 205 947 q 469 1017 367 1017 q 668 976 587 1017 q 790 868 749 935 q 832 726 832 801 l 700 726 q 660 834 694 794 q 575 892 626 874 q 465 910 524 910 q 302 861 357 910 q 247 744 247 812 q 286 647 247 683 q 403 592 326 612 l 604 540 q 747 480 694 519 q 823 388 800 440 q 847 274 847 335 q 800 126 847 191 q 670 23 753 60 q 473 -14 586 -14 m 392 -249 l 392 -125 l 522 -125 l 522 -249 l 392 -249 z "},"Ə":{"ha":1018,"x_min":75,"x_max":943,"o":"m 510 -14 q 282 45 379 -14 q 130 227 184 105 q 76 536 76 349 l 791 536 q 718 800 791 706 q 508 894 646 894 q 386 873 439 894 q 296 817 333 852 q 241 743 260 783 q 222 665 222 703 l 75 665 q 105 785 75 724 q 192 899 135 847 q 329 985 249 952 q 510 1018 409 1018 q 742 957 645 1018 q 891 782 839 897 q 943 506 943 667 q 889 218 943 333 q 738 44 835 103 q 510 -14 641 -14 m 510 104 q 664 147 602 104 q 757 264 726 190 q 790 433 789 339 l 233 433 q 264 264 233 338 q 358 147 296 190 q 510 104 419 104 z "},"T":{"ha":824,"x_min":32,"x_max":792,"o":"m 356 0 l 356 886 l 32 886 l 32 1004 l 792 1004 l 792 886 l 485 886 l 485 0 l 356 0 z "},"Ŧ":{"ha":824,"x_min":32,"x_max":792,"o":"m 147 451 l 147 553 l 676 553 l 676 451 l 147 451 m 356 0 l 356 886 l 32 886 l 32 1004 l 792 1004 l 792 886 l 485 886 l 485 0 l 356 0 z "},"Ť":{"ha":824,"x_min":32,"x_max":792,"o":"m 356 0 l 356 886 l 32 886 l 32 1004 l 792 1004 l 792 886 l 485 886 l 485 0 l 356 0 m 381 1088 l 206 1244 l 321 1244 l 426 1151 l 523 1244 l 644 1244 l 473 1088 l 381 1088 z "},"Ţ":{"ha":824,"x_min":32,"x_max":792,"o":"m 405 -284 q 335 -276 368 -284 q 273 -249 302 -267 l 294 -196 q 336 -218 313 -209 q 390 -228 359 -228 q 446 -215 428 -228 q 465 -177 465 -201 q 439 -133 465 -147 q 354 -117 413 -118 q 345 -115 347 -117 q 346 -107 343 -112 l 396 9 l 464 9 l 431 -75 q 506 -93 478 -77 q 544 -131 533 -108 q 556 -177 556 -154 q 535 -236 556 -212 q 480 -272 514 -260 q 405 -284 446 -284 m 356 0 l 356 886 l 32 886 l 32 1004 l 792 1004 l 792 886 l 485 886 l 485 0 l 356 0 z "},"Ț":{"ha":824,"x_min":32,"x_max":792,"o":"m 356 0 l 356 886 l 32 886 l 32 1004 l 792 1004 l 792 886 l 485 886 l 485 0 l 356 0 m 349 -262 l 406 -176 l 363 -172 l 363 -65 l 492 -65 l 492 -155 l 402 -262 l 349 -262 z "},"Ṭ":{"ha":824,"x_min":32,"x_max":792,"o":"m 356 0 l 356 886 l 32 886 l 32 1004 l 792 1004 l 792 886 l 485 886 l 485 0 l 356 0 m 362 -247 l 362 -123 l 492 -123 l 492 -247 l 362 -247 z "},"U":{"ha":973,"x_min":133,"x_max":867,"o":"m 499 -14 q 288 29 369 -14 q 170 156 207 72 q 133 360 133 239 l 133 1004 l 266 1004 l 266 341 q 326 159 266 219 q 499 99 387 99 q 628 125 575 99 q 709 205 681 151 q 738 341 738 259 l 738 1004 l 867 1004 l 867 347 q 828 151 867 231 q 709 28 790 70 q 499 -14 628 -14 z "},"Ú":{"ha":973,"x_min":133,"x_max":867,"o":"m 499 -14 q 288 29 369 -14 q 170 156 207 72 q 133 360 133 239 l 133 1004 l 266 1004 l 266 341 q 326 159 266 219 q 499 99 387 99 q 628 125 575 99 q 709 205 681 151 q 738 341 738 259 l 738 1004 l 867 1004 l 867 347 q 828 151 867 231 q 709 28 790 70 q 499 -14 628 -14 m 444 1088 l 588 1290 l 733 1290 l 544 1088 l 444 1088 z "},"Ŭ":{"ha":973,"x_min":133,"x_max":867,"o":"m 499 -14 q 288 29 369 -14 q 170 156 207 72 q 133 360 133 239 l 133 1004 l 266 1004 l 266 341 q 326 159 266 219 q 499 99 387 99 q 628 125 575 99 q 709 205 681 151 q 738 341 738 259 l 738 1004 l 867 1004 l 867 347 q 828 151 867 231 q 709 28 790 70 q 499 -14 628 -14 m 500 1086 q 405 1103 449 1086 q 331 1155 361 1121 q 290 1237 301 1188 l 384 1237 q 425 1182 395 1203 q 500 1161 456 1161 q 575 1182 544 1161 q 619 1237 607 1203 l 712 1237 q 671 1156 701 1190 q 598 1104 642 1122 q 500 1086 553 1086 z "},"Û":{"ha":973,"x_min":133,"x_max":867,"o":"m 499 -14 q 288 29 369 -14 q 170 156 207 72 q 133 360 133 239 l 133 1004 l 266 1004 l 266 341 q 326 159 266 219 q 499 99 387 99 q 628 125 575 99 q 709 205 681 151 q 738 341 738 259 l 738 1004 l 867 1004 l 867 347 q 828 151 867 231 q 709 28 790 70 q 499 -14 628 -14 m 282 1088 l 456 1244 l 548 1244 l 719 1088 l 598 1088 l 501 1178 l 396 1088 l 282 1088 z "},"Ȕ":{"ha":973,"x_min":133,"x_max":867,"o":"m 499 -14 q 288 29 369 -14 q 170 156 207 72 q 133 360 133 239 l 133 1004 l 266 1004 l 266 341 q 326 159 266 219 q 499 99 387 99 q 628 125 575 99 q 709 205 681 151 q 738 341 738 259 l 738 1004 l 867 1004 l 867 347 q 828 151 867 231 q 709 28 790 70 q 499 -14 628 -14 m 353 1088 l 151 1290 l 289 1290 l 453 1088 l 353 1088 m 547 1088 l 376 1290 l 510 1290 l 647 1088 l 547 1088 z "},"Ü":{"ha":973,"x_min":133,"x_max":867,"o":"m 499 -14 q 288 29 369 -14 q 170 156 207 72 q 133 360 133 239 l 133 1004 l 266 1004 l 266 341 q 326 159 266 219 q 499 99 387 99 q 628 125 575 99 q 709 205 681 151 q 738 341 738 259 l 738 1004 l 867 1004 l 867 347 q 828 151 867 231 q 709 28 790 70 q 499 -14 628 -14 m 573 1166 l 574 1290 l 699 1290 l 699 1166 l 573 1166 m 303 1166 l 303 1290 l 429 1290 l 428 1166 l 303 1166 z "},"Ụ":{"ha":973,"x_min":133,"x_max":867,"o":"m 499 -14 q 288 29 369 -14 q 170 156 207 72 q 133 360 133 239 l 133 1004 l 266 1004 l 266 341 q 326 159 266 219 q 499 99 387 99 q 628 125 575 99 q 709 205 681 151 q 738 341 738 259 l 738 1004 l 867 1004 l 867 347 q 828 151 867 231 q 709 28 790 70 q 499 -14 628 -14 m 433 -247 l 433 -123 l 563 -123 l 563 -247 l 433 -247 z "},"Ù":{"ha":973,"x_min":133,"x_max":867,"o":"m 499 -14 q 288 29 369 -14 q 170 156 207 72 q 133 360 133 239 l 133 1004 l 266 1004 l 266 341 q 326 159 266 219 q 499 99 387 99 q 628 125 575 99 q 709 205 681 151 q 738 341 738 259 l 738 1004 l 867 1004 l 867 347 q 828 151 867 231 q 709 28 790 70 q 499 -14 628 -14 m 455 1088 l 265 1290 l 411 1290 l 554 1088 l 455 1088 z "},"Ủ":{"ha":973,"x_min":133,"x_max":867,"o":"m 499 -14 q 288 29 369 -14 q 170 156 207 72 q 133 360 133 239 l 133 1004 l 266 1004 l 266 341 q 326 159 266 219 q 499 99 387 99 q 628 125 575 99 q 709 205 681 151 q 738 341 738 259 l 738 1004 l 867 1004 l 867 347 q 828 151 867 231 q 709 28 790 70 q 499 -14 628 -14 m 542 1086 l 505 1144 q 547 1189 535 1163 q 544 1238 559 1214 q 501 1260 531 1260 q 444 1240 472 1259 l 406 1299 q 520 1330 465 1337 q 605 1278 576 1322 q 622 1174 640 1225 q 542 1086 604 1124 z "},"Ư":{"ha":1125,"x_min":133,"x_max":1061,"o":"m 499 -14 q 288 29 369 -14 q 170 156 207 72 q 133 360 133 239 l 133 1004 l 266 1004 l 266 341 q 326 159 266 219 q 499 99 387 99 q 628 125 575 99 q 709 205 681 151 q 738 341 738 259 l 738 1004 l 867 1004 l 867 888 q 917 901 899 890 q 946 943 936 913 q 958 1026 956 973 l 1061 1026 q 1041 900 1060 949 q 980 830 1022 851 q 867 811 938 808 l 867 347 q 828 151 867 231 q 709 28 790 70 q 499 -14 628 -14 z "},"Ứ":{"ha":1125,"x_min":133,"x_max":1061,"o":"m 499 -14 q 288 29 369 -14 q 170 156 207 72 q 133 360 133 239 l 133 1004 l 266 1004 l 266 341 q 326 159 266 219 q 499 99 387 99 q 628 125 575 99 q 709 205 681 151 q 738 341 738 259 l 738 1004 l 867 1004 l 867 888 q 917 901 899 890 q 946 943 936 913 q 958 1026 956 973 l 1061 1026 q 1041 900 1060 949 q 980 830 1022 851 q 867 811 938 808 l 867 347 q 828 151 867 231 q 709 28 790 70 q 499 -14 628 -14 m 444 1088 l 588 1290 l 733 1290 l 544 1088 l 444 1088 z "},"Ự":{"ha":1125,"x_min":133,"x_max":1061,"o":"m 499 -14 q 288 29 369 -14 q 170 156 207 72 q 133 360 133 239 l 133 1004 l 266 1004 l 266 341 q 326 159 266 219 q 499 99 387 99 q 628 125 575 99 q 709 205 681 151 q 738 341 738 259 l 738 1004 l 867 1004 l 867 888 q 917 901 899 890 q 946 943 936 913 q 958 1026 956 973 l 1061 1026 q 1041 900 1060 949 q 980 830 1022 851 q 867 811 938 808 l 867 347 q 828 151 867 231 q 709 28 790 70 q 499 -14 628 -14 m 433 -247 l 433 -123 l 563 -123 l 563 -247 l 433 -247 z "},"Ừ":{"ha":1125,"x_min":133,"x_max":1061,"o":"m 499 -14 q 288 29 369 -14 q 170 156 207 72 q 133 360 133 239 l 133 1004 l 266 1004 l 266 341 q 326 159 266 219 q 499 99 387 99 q 628 125 575 99 q 709 205 681 151 q 738 341 738 259 l 738 1004 l 867 1004 l 867 888 q 917 901 899 890 q 946 943 936 913 q 958 1026 956 973 l 1061 1026 q 1041 900 1060 949 q 980 830 1022 851 q 867 811 938 808 l 867 347 q 828 151 867 231 q 709 28 790 70 q 499 -14 628 -14 m 455 1088 l 265 1290 l 411 1290 l 554 1088 l 455 1088 z "},"Ử":{"ha":1125,"x_min":133,"x_max":1061,"o":"m 499 -14 q 288 29 369 -14 q 170 156 207 72 q 133 360 133 239 l 133 1004 l 266 1004 l 266 341 q 326 159 266 219 q 499 99 387 99 q 628 125 575 99 q 709 205 681 151 q 738 341 738 259 l 738 1004 l 867 1004 l 867 888 q 917 901 899 890 q 946 943 936 913 q 958 1026 956 973 l 1061 1026 q 1041 900 1060 949 q 980 830 1022 851 q 867 811 938 808 l 867 347 q 828 151 867 231 q 709 28 790 70 q 499 -14 628 -14 m 542 1086 l 505 1144 q 547 1189 535 1163 q 544 1238 559 1214 q 501 1260 531 1260 q 444 1240 472 1259 l 406 1299 q 520 1330 465 1337 q 605 1278 576 1322 q 622 1174 640 1225 q 542 1086 604 1124 z "},"Ữ":{"ha":1122,"x_min":133,"x_max":1061,"o":"m 499 -14 q 288 29 369 -14 q 170 156 207 72 q 133 360 133 239 l 133 1004 l 266 1004 l 266 341 q 326 159 266 219 q 499 99 387 99 q 628 125 575 99 q 709 205 681 151 q 738 341 738 259 l 738 1004 l 867 1004 l 867 888 q 917 901 899 890 q 946 943 936 913 q 958 1026 956 973 l 1061 1026 q 1041 900 1060 949 q 980 830 1022 851 q 867 811 938 808 l 867 347 q 828 151 867 231 q 709 28 790 70 q 499 -14 628 -14 m 318 1133 l 294 1209 q 344 1246 317 1231 q 410 1261 370 1261 q 474 1251 444 1261 q 533 1232 504 1242 q 592 1222 562 1222 q 647 1234 624 1222 q 690 1261 669 1245 l 712 1176 q 665 1150 694 1163 q 592 1136 636 1136 q 527 1145 555 1136 q 473 1163 499 1154 q 415 1172 447 1172 q 360 1161 381 1172 q 318 1133 340 1149 z "},"Ű":{"ha":973,"x_min":133,"x_max":867,"o":"m 499 -14 q 288 29 369 -14 q 170 156 207 72 q 133 360 133 239 l 133 1004 l 266 1004 l 266 341 q 326 159 266 219 q 499 99 387 99 q 628 125 575 99 q 709 205 681 151 q 738 341 738 259 l 738 1004 l 867 1004 l 867 347 q 828 151 867 231 q 709 28 790 70 q 499 -14 628 -14 m 552 1088 l 716 1290 l 853 1290 l 651 1088 l 552 1088 m 358 1088 l 494 1290 l 628 1290 l 457 1088 l 358 1088 z "},"Ȗ":{"ha":973,"x_min":133,"x_max":867,"o":"m 499 -14 q 288 29 369 -14 q 170 156 207 72 q 133 360 133 239 l 133 1004 l 266 1004 l 266 341 q 326 159 266 219 q 499 99 387 99 q 628 125 575 99 q 709 205 681 151 q 738 341 738 259 l 738 1004 l 867 1004 l 867 347 q 828 151 867 231 q 709 28 790 70 q 499 -14 628 -14 m 288 1125 q 328 1207 298 1174 q 402 1258 358 1240 q 497 1275 446 1275 q 595 1257 551 1275 q 669 1206 639 1239 q 708 1125 699 1172 l 616 1125 q 572 1179 603 1158 q 497 1200 541 1200 q 423 1179 453 1200 q 381 1125 392 1158 l 288 1125 z "},"Ū":{"ha":973,"x_min":133,"x_max":867,"o":"m 499 -14 q 288 29 369 -14 q 170 156 207 72 q 133 360 133 239 l 133 1004 l 266 1004 l 266 341 q 326 159 266 219 q 499 99 387 99 q 628 125 575 99 q 709 205 681 151 q 738 341 738 259 l 738 1004 l 867 1004 l 867 347 q 828 151 867 231 q 709 28 790 70 q 499 -14 628 -14 m 293 1144 l 293 1234 l 708 1234 l 708 1144 l 293 1144 z "},"Ų":{"ha":973,"x_min":133,"x_max":867,"o":"m 518 -233 q 415 -203 450 -233 q 381 -122 381 -174 q 410 -48 381 -81 q 522 11 439 -15 l 616 3 q 515 -52 546 -26 q 483 -112 483 -78 q 499 -149 483 -136 q 547 -162 514 -162 q 607 -154 581 -162 q 647 -137 633 -145 l 647 -204 q 594 -223 630 -214 q 518 -233 559 -233 m 499 -14 q 288 29 369 -14 q 170 156 207 72 q 133 360 133 239 l 133 1004 l 266 1004 l 266 341 q 326 159 266 219 q 499 99 387 99 q 628 125 575 99 q 709 205 681 151 q 738 341 738 259 l 738 1004 l 867 1004 l 867 347 q 828 151 867 231 q 709 28 790 70 q 499 -14 628 -14 z "},"Ů":{"ha":973,"x_min":133,"x_max":867,"o":"m 499 -14 q 288 29 369 -14 q 170 156 207 72 q 133 360 133 239 l 133 1004 l 266 1004 l 266 341 q 326 159 266 219 q 499 99 387 99 q 628 125 575 99 q 709 205 681 151 q 738 341 738 259 l 738 1004 l 867 1004 l 867 347 q 828 151 867 231 q 709 28 790 70 q 499 -14 628 -14 m 501 1088 q 400 1130 442 1088 q 358 1233 358 1172 q 401 1331 358 1290 q 501 1372 443 1372 q 574 1352 542 1372 q 626 1301 607 1333 q 645 1231 645 1269 q 603 1129 645 1170 q 501 1088 562 1088 m 500 1154 q 552 1177 531 1154 q 574 1230 574 1200 q 552 1283 574 1263 q 500 1303 531 1303 q 448 1283 470 1303 q 425 1230 425 1263 q 448 1177 425 1200 q 500 1154 470 1154 z "},"Ũ":{"ha":973,"x_min":133,"x_max":867,"o":"m 499 -14 q 288 29 369 -14 q 170 156 207 72 q 133 360 133 239 l 133 1004 l 266 1004 l 266 341 q 326 159 266 219 q 499 99 387 99 q 628 125 575 99 q 709 205 681 151 q 738 341 738 259 l 738 1004 l 867 1004 l 867 347 q 828 151 867 231 q 709 28 790 70 q 499 -14 628 -14 m 318 1133 l 294 1209 q 344 1246 317 1231 q 410 1261 370 1261 q 474 1251 444 1261 q 533 1232 504 1242 q 592 1222 562 1222 q 647 1234 624 1222 q 690 1261 669 1245 l 712 1176 q 665 1150 694 1163 q 592 1136 636 1136 q 527 1145 555 1136 q 473 1163 499 1154 q 415 1172 447 1172 q 360 1161 381 1172 q 318 1133 340 1149 z "},"V":{"ha":934,"x_min":32,"x_max":901,"o":"m 390 0 l 32 1004 l 159 1004 l 467 146 l 774 1004 l 901 1004 l 544 0 l 390 0 z "},"W":{"ha":1324,"x_min":32,"x_max":1292,"o":"m 322 0 l 32 1004 l 162 1004 l 384 205 l 610 1004 l 711 1004 l 937 205 l 1163 1004 l 1292 1004 l 999 0 l 881 0 l 660 778 l 437 0 l 322 0 z "},"Ẃ":{"ha":1324,"x_min":32,"x_max":1292,"o":"m 322 0 l 32 1004 l 162 1004 l 384 205 l 610 1004 l 711 1004 l 937 205 l 1163 1004 l 1292 1004 l 999 0 l 881 0 l 660 778 l 437 0 l 322 0 m 605 1088 l 748 1290 l 894 1290 l 704 1088 l 605 1088 z "},"Ŵ":{"ha":1324,"x_min":32,"x_max":1292,"o":"m 322 0 l 32 1004 l 162 1004 l 384 205 l 610 1004 l 711 1004 l 937 205 l 1163 1004 l 1292 1004 l 999 0 l 881 0 l 660 778 l 437 0 l 322 0 m 442 1088 l 616 1244 l 708 1244 l 878 1088 l 758 1088 l 660 1178 l 556 1088 l 442 1088 z "},"Ẅ":{"ha":1324,"x_min":32,"x_max":1292,"o":"m 322 0 l 32 1004 l 162 1004 l 384 205 l 610 1004 l 711 1004 l 937 205 l 1163 1004 l 1292 1004 l 999 0 l 881 0 l 660 778 l 437 0 l 322 0 m 733 1166 l 733 1290 l 859 1290 l 858 1166 l 733 1166 m 463 1166 l 463 1290 l 589 1290 l 588 1166 l 463 1166 z "},"Ẁ":{"ha":1324,"x_min":32,"x_max":1292,"o":"m 322 0 l 32 1004 l 162 1004 l 384 205 l 610 1004 l 711 1004 l 937 205 l 1163 1004 l 1292 1004 l 999 0 l 881 0 l 660 778 l 437 0 l 322 0 m 615 1088 l 424 1290 l 571 1290 l 714 1088 l 615 1088 z "},"X":{"ha":956,"x_min":58,"x_max":899,"o":"m 58 0 l 398 513 l 69 1004 l 228 1004 l 478 622 l 726 1004 l 867 1004 l 547 526 l 899 0 l 740 0 l 467 414 l 199 0 l 58 0 z "},"Y":{"ha":843,"x_min":17,"x_max":827,"o":"m 359 0 l 359 428 l 17 1004 l 157 1004 l 424 542 l 686 1004 l 827 1004 l 487 427 l 487 0 l 359 0 z "},"Ý":{"ha":843,"x_min":17,"x_max":827,"o":"m 359 0 l 359 428 l 17 1004 l 157 1004 l 424 542 l 686 1004 l 827 1004 l 487 427 l 487 0 l 359 0 m 377 1090 l 520 1292 l 666 1292 l 476 1090 l 377 1090 z "},"Ŷ":{"ha":843,"x_min":17,"x_max":827,"o":"m 359 0 l 359 428 l 17 1004 l 157 1004 l 424 542 l 686 1004 l 827 1004 l 487 427 l 487 0 l 359 0 m 215 1090 l 389 1247 l 481 1247 l 651 1090 l 531 1090 l 433 1181 l 328 1090 l 215 1090 z "},"Ÿ":{"ha":843,"x_min":17,"x_max":827,"o":"m 359 0 l 359 428 l 17 1004 l 157 1004 l 424 542 l 686 1004 l 827 1004 l 487 427 l 487 0 l 359 0 m 506 1168 l 506 1292 l 632 1292 l 631 1168 l 506 1168 m 235 1168 l 236 1292 l 362 1292 l 361 1168 l 235 1168 z "},"Ỵ":{"ha":843,"x_min":17,"x_max":827,"o":"m 359 0 l 359 428 l 17 1004 l 157 1004 l 424 542 l 686 1004 l 827 1004 l 487 427 l 487 0 l 359 0 m 359 -249 l 359 -125 l 489 -125 l 489 -249 l 359 -249 z "},"Ỳ":{"ha":843,"x_min":17,"x_max":827,"o":"m 359 0 l 359 428 l 17 1004 l 157 1004 l 424 542 l 686 1004 l 827 1004 l 487 427 l 487 0 l 359 0 m 388 1090 l 197 1292 l 344 1292 l 487 1090 l 388 1090 z "},"Ỷ":{"ha":843,"x_min":17,"x_max":827,"o":"m 359 0 l 359 428 l 17 1004 l 157 1004 l 424 542 l 686 1004 l 827 1004 l 487 427 l 487 0 l 359 0 m 475 1088 l 438 1147 q 480 1191 467 1165 q 477 1240 492 1216 q 434 1262 463 1263 q 376 1242 404 1261 l 338 1301 q 453 1332 397 1339 q 538 1280 509 1324 q 555 1176 572 1227 q 475 1088 537 1126 z "},"Ỹ":{"ha":843,"x_min":17,"x_max":827,"o":"m 359 0 l 359 428 l 17 1004 l 157 1004 l 424 542 l 686 1004 l 827 1004 l 487 427 l 487 0 l 359 0 m 251 1135 l 226 1211 q 276 1248 250 1233 q 342 1263 303 1263 q 407 1253 376 1263 q 466 1234 437 1244 q 525 1224 494 1224 q 579 1236 556 1224 q 622 1263 602 1247 l 644 1178 q 598 1152 626 1165 q 525 1138 569 1138 q 460 1147 488 1138 q 406 1165 432 1156 q 348 1174 380 1174 q 293 1163 314 1174 q 251 1135 272 1151 z "},"Z":{"ha":885,"x_min":88,"x_max":818,"o":"m 88 0 l 88 71 l 638 892 l 112 892 l 112 1004 l 818 1004 l 818 936 l 263 113 l 815 113 l 815 0 l 88 0 z "},"Ź":{"ha":885,"x_min":88,"x_max":818,"o":"m 88 0 l 88 71 l 638 892 l 112 892 l 112 1004 l 818 1004 l 818 936 l 263 113 l 815 113 l 815 0 l 88 0 m 414 1088 l 557 1290 l 703 1290 l 513 1088 l 414 1088 z "},"Ž":{"ha":885,"x_min":88,"x_max":818,"o":"m 88 0 l 88 71 l 638 892 l 112 892 l 112 1004 l 818 1004 l 818 936 l 263 113 l 815 113 l 815 0 l 88 0 m 425 1088 l 250 1244 l 365 1244 l 470 1151 l 567 1244 l 688 1244 l 517 1088 l 425 1088 z "},"Ż":{"ha":885,"x_min":88,"x_max":818,"o":"m 88 0 l 88 71 l 638 892 l 112 892 l 112 1004 l 818 1004 l 818 936 l 263 113 l 815 113 l 815 0 l 88 0 m 405 1166 l 405 1290 l 535 1290 l 535 1166 l 405 1166 z "},"Ẓ":{"ha":885,"x_min":88,"x_max":818,"o":"m 88 0 l 88 71 l 638 892 l 112 892 l 112 1004 l 818 1004 l 818 936 l 263 113 l 815 113 l 815 0 l 88 0 m 401 -249 l 401 -125 l 531 -125 l 531 -249 l 401 -249 z "},"a":{"ha":768,"x_min":71,"x_max":674,"o":"m 308 -14 q 184 11 238 -14 q 101 82 131 35 q 71 194 71 128 q 154 372 71 314 q 422 435 238 431 l 549 438 l 549 494 q 510 599 549 560 q 388 638 470 638 q 278 608 326 637 q 218 515 231 580 l 105 515 q 144 634 109 585 q 243 707 179 682 q 394 732 307 732 q 550 706 488 732 q 643 628 612 679 q 674 501 674 576 l 674 0 l 564 0 l 554 135 q 449 18 513 51 q 308 -14 385 -14 m 346 78 q 418 92 383 78 q 484 127 454 105 q 531 178 513 150 q 549 236 549 206 l 549 359 l 443 357 q 306 340 360 356 q 223 292 251 325 q 195 207 195 260 q 238 113 195 147 q 346 78 280 78 z "},"á":{"ha":768,"x_min":71,"x_max":674,"o":"m 308 -14 q 184 11 238 -14 q 101 82 131 35 q 71 194 71 128 q 154 372 71 314 q 422 435 238 431 l 549 438 l 549 494 q 510 599 549 560 q 388 638 470 638 q 278 608 326 637 q 218 515 231 580 l 105 515 q 144 634 109 585 q 243 707 179 682 q 394 732 307 732 q 550 706 488 732 q 643 628 612 679 q 674 501 674 576 l 674 0 l 564 0 l 554 135 q 449 18 513 51 q 308 -14 385 -14 m 346 78 q 418 92 383 78 q 484 127 454 105 q 531 178 513 150 q 549 236 549 206 l 549 359 l 443 357 q 306 340 360 356 q 223 292 251 325 q 195 207 195 260 q 238 113 195 147 q 346 78 280 78 m 338 802 l 481 1004 l 627 1004 l 438 802 l 338 802 z "},"ă":{"ha":768,"x_min":71,"x_max":674,"o":"m 308 -14 q 184 11 238 -14 q 101 82 131 35 q 71 194 71 128 q 154 372 71 314 q 422 435 238 431 l 549 438 l 549 494 q 510 599 549 560 q 388 638 470 638 q 278 608 326 637 q 218 515 231 580 l 105 515 q 144 634 109 585 q 243 707 179 682 q 394 732 307 732 q 550 706 488 732 q 643 628 612 679 q 674 501 674 576 l 674 0 l 564 0 l 554 135 q 449 18 513 51 q 308 -14 385 -14 m 346 78 q 418 92 383 78 q 484 127 454 105 q 531 178 513 150 q 549 236 549 206 l 549 359 l 443 357 q 306 340 360 356 q 223 292 251 325 q 195 207 195 260 q 238 113 195 147 q 346 78 280 78 m 393 800 q 298 817 342 800 q 224 868 254 835 q 183 951 194 902 l 277 951 q 318 896 288 917 q 393 875 349 875 q 468 896 437 875 q 512 951 500 917 l 605 951 q 564 870 594 903 q 491 818 535 836 q 393 800 447 800 z "},"ắ":{"ha":768,"x_min":71,"x_max":674,"o":"m 308 -14 q 184 11 238 -14 q 101 82 131 35 q 71 194 71 128 q 154 372 71 314 q 422 435 238 431 l 549 438 l 549 494 q 510 599 549 560 q 388 638 470 638 q 278 608 326 637 q 218 515 231 580 l 105 515 q 144 634 109 585 q 243 707 179 682 q 394 732 307 732 q 550 706 488 732 q 643 628 612 679 q 674 501 674 576 l 674 0 l 564 0 l 554 135 q 449 18 513 51 q 308 -14 385 -14 m 346 78 q 418 92 383 78 q 484 127 454 105 q 531 178 513 150 q 549 236 549 206 l 549 359 l 443 357 q 306 340 360 356 q 223 292 251 325 q 195 207 195 260 q 238 113 195 147 q 346 78 280 78 m 396 800 q 301 817 344 800 q 227 868 257 835 q 186 951 197 902 l 280 951 q 321 896 291 917 q 396 875 351 875 q 471 896 440 875 q 515 951 503 917 l 608 951 q 567 870 597 903 q 493 818 538 836 q 396 800 449 800 m 353 971 l 454 1140 l 574 1140 l 435 971 l 353 971 z "},"ặ":{"ha":768,"x_min":71,"x_max":674,"o":"m 308 -14 q 184 11 238 -14 q 101 82 131 35 q 71 194 71 128 q 154 372 71 314 q 422 435 238 431 l 549 438 l 549 494 q 510 599 549 560 q 388 638 470 638 q 278 608 326 637 q 218 515 231 580 l 105 515 q 144 634 109 585 q 243 707 179 682 q 394 732 307 732 q 550 706 488 732 q 643 628 612 679 q 674 501 674 576 l 674 0 l 564 0 l 554 135 q 449 18 513 51 q 308 -14 385 -14 m 346 78 q 418 92 383 78 q 484 127 454 105 q 531 178 513 150 q 549 236 549 206 l 549 359 l 443 357 q 306 340 360 356 q 223 292 251 325 q 195 207 195 260 q 238 113 195 147 q 346 78 280 78 m 327 -249 l 327 -125 l 457 -125 l 457 -249 l 327 -249 m 393 800 q 298 817 342 800 q 224 868 254 835 q 183 951 194 902 l 277 951 q 318 896 288 917 q 393 875 349 875 q 468 896 437 875 q 512 951 500 917 l 605 951 q 564 870 594 903 q 491 818 535 836 q 393 800 447 800 z "},"ằ":{"ha":768,"x_min":71,"x_max":674,"o":"m 308 -14 q 184 11 238 -14 q 101 82 131 35 q 71 194 71 128 q 154 372 71 314 q 422 435 238 431 l 549 438 l 549 494 q 510 599 549 560 q 388 638 470 638 q 278 608 326 637 q 218 515 231 580 l 105 515 q 144 634 109 585 q 243 707 179 682 q 394 732 307 732 q 550 706 488 732 q 643 628 612 679 q 674 501 674 576 l 674 0 l 564 0 l 554 135 q 449 18 513 51 q 308 -14 385 -14 m 346 78 q 418 92 383 78 q 484 127 454 105 q 531 178 513 150 q 549 236 549 206 l 549 359 l 443 357 q 306 340 360 356 q 223 292 251 325 q 195 207 195 260 q 238 113 195 147 q 346 78 280 78 m 396 800 q 301 817 344 800 q 227 868 257 835 q 186 951 197 902 l 280 951 q 321 896 291 917 q 396 875 351 875 q 471 896 440 875 q 515 951 503 917 l 608 951 q 567 870 597 903 q 493 818 538 836 q 396 800 449 800 m 364 970 l 217 1138 l 338 1138 l 447 970 l 364 970 z "},"ẳ":{"ha":768,"x_min":71,"x_max":674,"o":"m 308 -14 q 184 11 238 -14 q 101 82 131 35 q 71 194 71 128 q 154 372 71 314 q 422 435 238 431 l 549 438 l 549 494 q 510 599 549 560 q 388 638 470 638 q 278 608 326 637 q 218 515 231 580 l 105 515 q 144 634 109 585 q 243 707 179 682 q 394 732 307 732 q 550 706 488 732 q 643 628 612 679 q 674 501 674 576 l 674 0 l 564 0 l 554 135 q 449 18 513 51 q 308 -14 385 -14 m 346 78 q 418 92 383 78 q 484 127 454 105 q 531 178 513 150 q 549 236 549 206 l 549 359 l 443 357 q 306 340 360 356 q 223 292 251 325 q 195 207 195 260 q 238 113 195 147 q 346 78 280 78 m 396 800 q 301 817 344 800 q 227 868 257 835 q 186 951 197 902 l 280 951 q 321 896 291 917 q 396 875 351 875 q 471 896 440 875 q 515 951 503 917 l 608 951 q 567 870 597 903 q 493 818 538 836 q 396 800 449 800 m 403 945 l 365 1003 q 407 1048 395 1023 q 404 1097 419 1074 q 361 1119 390 1119 q 303 1100 332 1119 l 266 1158 q 365 1190 315 1190 q 465 1138 431 1190 q 482 1034 500 1085 q 403 945 465 983 z "},"ẵ":{"ha":768,"x_min":71,"x_max":674,"o":"m 308 -14 q 184 11 238 -14 q 101 82 131 35 q 71 194 71 128 q 154 372 71 314 q 422 435 238 431 l 549 438 l 549 494 q 510 599 549 560 q 388 638 470 638 q 278 608 326 637 q 218 515 231 580 l 105 515 q 144 634 109 585 q 243 707 179 682 q 394 732 307 732 q 550 706 488 732 q 643 628 612 679 q 674 501 674 576 l 674 0 l 564 0 l 554 135 q 449 18 513 51 q 308 -14 385 -14 m 346 78 q 418 92 383 78 q 484 127 454 105 q 531 178 513 150 q 549 236 549 206 l 549 359 l 443 357 q 306 340 360 356 q 223 292 251 325 q 195 207 195 260 q 238 113 195 147 q 346 78 280 78 m 396 800 q 301 817 344 800 q 227 868 257 835 q 186 951 197 902 l 280 951 q 321 896 291 917 q 396 875 351 875 q 471 896 440 875 q 515 951 503 917 l 608 951 q 567 870 597 903 q 493 818 538 836 q 396 800 449 800 m 213 1031 l 189 1108 q 238 1144 212 1128 q 304 1159 265 1159 q 369 1150 339 1159 q 428 1131 399 1140 q 488 1121 457 1121 q 541 1132 519 1121 q 585 1159 564 1144 l 607 1075 q 560 1048 589 1062 q 487 1035 531 1035 q 422 1044 450 1035 q 368 1061 394 1053 q 310 1070 342 1070 q 256 1059 276 1070 q 213 1031 235 1048 z "},"â":{"ha":768,"x_min":71,"x_max":674,"o":"m 308 -14 q 184 11 238 -14 q 101 82 131 35 q 71 194 71 128 q 154 372 71 314 q 422 435 238 431 l 549 438 l 549 494 q 510 599 549 560 q 388 638 470 638 q 278 608 326 637 q 218 515 231 580 l 105 515 q 144 634 109 585 q 243 707 179 682 q 394 732 307 732 q 550 706 488 732 q 643 628 612 679 q 674 501 674 576 l 674 0 l 564 0 l 554 135 q 449 18 513 51 q 308 -14 385 -14 m 346 78 q 418 92 383 78 q 484 127 454 105 q 531 178 513 150 q 549 236 549 206 l 549 359 l 443 357 q 306 340 360 356 q 223 292 251 325 q 195 207 195 260 q 238 113 195 147 q 346 78 280 78 m 175 802 l 349 958 l 441 958 l 612 802 l 491 802 l 394 892 l 289 802 l 175 802 z "},"ấ":{"ha":768,"x_min":71,"x_max":743,"o":"m 308 -14 q 184 11 238 -14 q 101 82 131 35 q 71 194 71 128 q 154 372 71 314 q 422 435 238 431 l 549 438 l 549 494 q 510 599 549 560 q 388 638 470 638 q 278 608 326 637 q 218 515 231 580 l 105 515 q 144 634 109 585 q 243 707 179 682 q 394 732 307 732 q 550 706 488 732 q 643 628 612 679 q 674 501 674 576 l 674 0 l 564 0 l 554 135 q 449 18 513 51 q 308 -14 385 -14 m 346 78 q 418 92 383 78 q 484 127 454 105 q 531 178 513 150 q 549 236 549 206 l 549 359 l 443 357 q 306 340 360 356 q 223 292 251 325 q 195 207 195 260 q 238 113 195 147 q 346 78 280 78 m 175 802 l 349 958 l 441 958 l 612 802 l 491 802 l 394 892 l 289 802 l 175 802 m 522 956 l 623 1124 l 743 1124 l 603 956 l 522 956 z "},"ậ":{"ha":768,"x_min":71,"x_max":674,"o":"m 308 -14 q 184 11 238 -14 q 101 82 131 35 q 71 194 71 128 q 154 372 71 314 q 422 435 238 431 l 549 438 l 549 494 q 510 599 549 560 q 388 638 470 638 q 278 608 326 637 q 218 515 231 580 l 105 515 q 144 634 109 585 q 243 707 179 682 q 394 732 307 732 q 550 706 488 732 q 643 628 612 679 q 674 501 674 576 l 674 0 l 564 0 l 554 135 q 449 18 513 51 q 308 -14 385 -14 m 346 78 q 418 92 383 78 q 484 127 454 105 q 531 178 513 150 q 549 236 549 206 l 549 359 l 443 357 q 306 340 360 356 q 223 292 251 325 q 195 207 195 260 q 238 113 195 147 q 346 78 280 78 m 327 -249 l 327 -125 l 457 -125 l 457 -249 l 327 -249 m 175 802 l 349 958 l 441 958 l 612 802 l 491 802 l 394 892 l 289 802 l 175 802 z "},"ầ":{"ha":768,"x_min":71,"x_max":674,"o":"m 308 -14 q 184 11 238 -14 q 101 82 131 35 q 71 194 71 128 q 154 372 71 314 q 422 435 238 431 l 549 438 l 549 494 q 510 599 549 560 q 388 638 470 638 q 278 608 326 637 q 218 515 231 580 l 105 515 q 144 634 109 585 q 243 707 179 682 q 394 732 307 732 q 550 706 488 732 q 643 628 612 679 q 674 501 674 576 l 674 0 l 564 0 l 554 135 q 449 18 513 51 q 308 -14 385 -14 m 346 78 q 418 92 383 78 q 484 127 454 105 q 531 178 513 150 q 549 236 549 206 l 549 359 l 443 357 q 306 340 360 356 q 223 292 251 325 q 195 207 195 260 q 238 113 195 147 q 346 78 280 78 m 175 802 l 349 958 l 441 958 l 612 802 l 491 802 l 394 892 l 289 802 l 175 802 m 590 956 l 443 1124 l 563 1124 l 674 956 l 590 956 z "},"ẩ":{"ha":768,"x_min":71,"x_max":674,"o":"m 308 -14 q 184 11 238 -14 q 101 82 131 35 q 71 194 71 128 q 154 372 71 314 q 422 435 238 431 l 549 438 l 549 494 q 510 599 549 560 q 388 638 470 638 q 278 608 326 637 q 218 515 231 580 l 105 515 q 144 634 109 585 q 243 707 179 682 q 394 732 307 732 q 550 706 488 732 q 643 628 612 679 q 674 501 674 576 l 674 0 l 564 0 l 554 135 q 449 18 513 51 q 308 -14 385 -14 m 346 78 q 418 92 383 78 q 484 127 454 105 q 531 178 513 150 q 549 236 549 206 l 549 359 l 443 357 q 306 340 360 356 q 223 292 251 325 q 195 207 195 260 q 238 113 195 147 q 346 78 280 78 m 178 802 l 353 958 l 444 958 l 615 802 l 494 802 l 397 892 l 292 802 l 178 802 m 559 924 l 521 982 q 563 1026 551 1001 q 560 1075 575 1051 q 517 1097 547 1097 q 460 1078 488 1097 l 422 1136 q 537 1167 481 1174 q 622 1115 592 1160 q 638 1012 656 1063 q 559 924 621 961 z "},"ẫ":{"ha":768,"x_min":71,"x_max":674,"o":"m 308 -14 q 184 11 238 -14 q 101 82 131 35 q 71 194 71 128 q 154 372 71 314 q 422 435 238 431 l 549 438 l 549 494 q 510 599 549 560 q 388 638 470 638 q 278 608 326 637 q 218 515 231 580 l 105 515 q 144 634 109 585 q 243 707 179 682 q 394 732 307 732 q 550 706 488 732 q 643 628 612 679 q 674 501 674 576 l 674 0 l 564 0 l 554 135 q 449 18 513 51 q 308 -14 385 -14 m 346 78 q 418 92 383 78 q 484 127 454 105 q 531 178 513 150 q 549 236 549 206 l 549 359 l 443 357 q 306 340 360 356 q 223 292 251 325 q 195 207 195 260 q 238 113 195 147 q 346 78 280 78 m 176 802 l 351 958 l 442 958 l 613 802 l 492 802 l 395 892 l 290 802 l 176 802 m 210 1033 l 186 1110 q 235 1146 209 1131 q 301 1161 262 1161 q 366 1152 336 1161 q 425 1133 397 1142 q 485 1123 454 1123 q 539 1134 516 1123 q 582 1161 561 1146 l 604 1077 q 557 1050 586 1064 q 484 1037 528 1037 q 419 1046 447 1037 q 366 1064 392 1055 q 308 1072 340 1072 q 253 1061 274 1072 q 210 1033 232 1050 z "},"ȁ":{"ha":768,"x_min":44,"x_max":674,"o":"m 308 -14 q 184 11 238 -14 q 101 82 131 35 q 71 194 71 128 q 154 372 71 314 q 422 435 238 431 l 549 438 l 549 494 q 510 599 549 560 q 388 638 470 638 q 278 608 326 637 q 218 515 231 580 l 105 515 q 144 634 109 585 q 243 707 179 682 q 394 732 307 732 q 550 706 488 732 q 643 628 612 679 q 674 501 674 576 l 674 0 l 564 0 l 554 135 q 449 18 513 51 q 308 -14 385 -14 m 346 78 q 418 92 383 78 q 484 127 454 105 q 531 178 513 150 q 549 236 549 206 l 549 359 l 443 357 q 306 340 360 356 q 223 292 251 325 q 195 207 195 260 q 238 113 195 147 q 346 78 280 78 m 247 802 l 44 1004 l 182 1004 l 346 802 l 247 802 m 440 802 l 269 1004 l 403 1004 l 540 802 l 440 802 z "},"ä":{"ha":768,"x_min":71,"x_max":674,"o":"m 308 -14 q 184 11 238 -14 q 101 82 131 35 q 71 194 71 128 q 154 372 71 314 q 422 435 238 431 l 549 438 l 549 494 q 510 599 549 560 q 388 638 470 638 q 278 608 326 637 q 218 515 231 580 l 105 515 q 144 634 109 585 q 243 707 179 682 q 394 732 307 732 q 550 706 488 732 q 643 628 612 679 q 674 501 674 576 l 674 0 l 564 0 l 554 135 q 449 18 513 51 q 308 -14 385 -14 m 346 78 q 418 92 383 78 q 484 127 454 105 q 531 178 513 150 q 549 236 549 206 l 549 359 l 443 357 q 306 340 360 356 q 223 292 251 325 q 195 207 195 260 q 238 113 195 147 q 346 78 280 78 m 466 880 l 467 1004 l 592 1004 l 592 880 l 466 880 m 196 880 l 197 1004 l 322 1004 l 322 880 l 196 880 z "},"ạ":{"ha":768,"x_min":71,"x_max":674,"o":"m 308 -14 q 184 11 238 -14 q 101 82 131 35 q 71 194 71 128 q 154 372 71 314 q 422 435 238 431 l 549 438 l 549 494 q 510 599 549 560 q 388 638 470 638 q 278 608 326 637 q 218 515 231 580 l 105 515 q 144 634 109 585 q 243 707 179 682 q 394 732 307 732 q 550 706 488 732 q 643 628 612 679 q 674 501 674 576 l 674 0 l 564 0 l 554 135 q 449 18 513 51 q 308 -14 385 -14 m 346 78 q 418 92 383 78 q 484 127 454 105 q 531 178 513 150 q 549 236 549 206 l 549 359 l 443 357 q 306 340 360 356 q 223 292 251 325 q 195 207 195 260 q 238 113 195 147 q 346 78 280 78 m 327 -249 l 327 -125 l 457 -125 l 457 -249 l 327 -249 z "},"à":{"ha":768,"x_min":71,"x_max":674,"o":"m 308 -14 q 184 11 238 -14 q 101 82 131 35 q 71 194 71 128 q 154 372 71 314 q 422 435 238 431 l 549 438 l 549 494 q 510 599 549 560 q 388 638 470 638 q 278 608 326 637 q 218 515 231 580 l 105 515 q 144 634 109 585 q 243 707 179 682 q 394 732 307 732 q 550 706 488 732 q 643 628 612 679 q 674 501 674 576 l 674 0 l 564 0 l 554 135 q 449 18 513 51 q 308 -14 385 -14 m 346 78 q 418 92 383 78 q 484 127 454 105 q 531 178 513 150 q 549 236 549 206 l 549 359 l 443 357 q 306 340 360 356 q 223 292 251 325 q 195 207 195 260 q 238 113 195 147 q 346 78 280 78 m 348 802 l 158 1004 l 304 1004 l 447 802 l 348 802 z "},"ả":{"ha":768,"x_min":71,"x_max":674,"o":"m 308 -14 q 184 11 238 -14 q 101 82 131 35 q 71 194 71 128 q 154 372 71 314 q 422 435 238 431 l 549 438 l 549 494 q 510 599 549 560 q 388 638 470 638 q 278 608 326 637 q 218 515 231 580 l 105 515 q 144 634 109 585 q 243 707 179 682 q 394 732 307 732 q 550 706 488 732 q 643 628 612 679 q 674 501 674 576 l 674 0 l 564 0 l 554 135 q 449 18 513 51 q 308 -14 385 -14 m 346 78 q 418 92 383 78 q 484 127 454 105 q 531 178 513 150 q 549 236 549 206 l 549 359 l 443 357 q 306 340 360 356 q 223 292 251 325 q 195 207 195 260 q 238 113 195 147 q 346 78 280 78 m 435 800 l 398 858 q 440 902 428 877 q 438 951 452 928 q 394 974 424 974 q 337 954 365 973 l 299 1013 q 414 1043 358 1051 q 498 992 469 1036 q 515 888 533 939 q 435 800 497 838 z "},"ȃ":{"ha":768,"x_min":71,"x_max":674,"o":"m 308 -14 q 184 11 238 -14 q 101 82 131 35 q 71 194 71 128 q 154 372 71 314 q 422 435 238 431 l 549 438 l 549 494 q 510 599 549 560 q 388 638 470 638 q 278 608 326 637 q 218 515 231 580 l 105 515 q 144 634 109 585 q 243 707 179 682 q 394 732 307 732 q 550 706 488 732 q 643 628 612 679 q 674 501 674 576 l 674 0 l 564 0 l 554 135 q 449 18 513 51 q 308 -14 385 -14 m 346 78 q 418 92 383 78 q 484 127 454 105 q 531 178 513 150 q 549 236 549 206 l 549 359 l 443 357 q 306 340 360 356 q 223 292 251 325 q 195 207 195 260 q 238 113 195 147 q 346 78 280 78 m 181 839 q 222 921 192 888 q 296 972 252 954 q 390 989 340 989 q 489 971 444 989 q 563 919 533 953 q 602 839 592 886 l 510 839 q 466 893 497 872 q 390 914 435 914 q 316 893 347 914 q 274 839 286 872 l 181 839 z "},"ā":{"ha":768,"x_min":71,"x_max":674,"o":"m 308 -14 q 184 11 238 -14 q 101 82 131 35 q 71 194 71 128 q 154 372 71 314 q 422 435 238 431 l 549 438 l 549 494 q 510 599 549 560 q 388 638 470 638 q 278 608 326 637 q 218 515 231 580 l 105 515 q 144 634 109 585 q 243 707 179 682 q 394 732 307 732 q 550 706 488 732 q 643 628 612 679 q 674 501 674 576 l 674 0 l 564 0 l 554 135 q 449 18 513 51 q 308 -14 385 -14 m 346 78 q 418 92 383 78 q 484 127 454 105 q 531 178 513 150 q 549 236 549 206 l 549 359 l 443 357 q 306 340 360 356 q 223 292 251 325 q 195 207 195 260 q 238 113 195 147 q 346 78 280 78 m 187 858 l 187 948 l 601 948 l 601 858 l 187 858 z "},"ą":{"ha":768,"x_min":71,"x_max":701,"o":"m 308 -14 q 184 11 238 -14 q 101 82 131 35 q 71 194 71 128 q 154 372 71 314 q 422 435 238 431 l 549 438 l 549 494 q 510 599 549 560 q 388 638 470 638 q 278 608 326 637 q 218 515 231 580 l 105 515 q 144 634 109 585 q 243 707 179 682 q 394 732 307 732 q 550 706 488 732 q 643 628 612 679 q 674 501 674 576 l 674 0 l 564 0 l 554 135 q 449 18 513 51 q 308 -14 385 -14 m 346 78 q 418 92 383 78 q 484 127 454 105 q 531 178 513 150 q 549 236 549 206 l 549 359 l 443 357 q 306 340 360 356 q 223 292 251 325 q 195 207 195 260 q 238 113 195 147 q 346 78 280 78 m 572 -228 q 469 -199 504 -228 q 434 -119 434 -169 q 464 -44 434 -77 q 576 15 493 -11 l 669 7 q 568 -48 599 -22 q 538 -108 538 -74 q 552 -145 538 -133 q 601 -158 567 -158 q 660 -150 635 -158 q 701 -133 686 -141 l 701 -200 q 648 -219 684 -210 q 572 -228 613 -228 z "},"å":{"ha":768,"x_min":71,"x_max":674,"o":"m 308 -14 q 184 11 238 -14 q 101 82 131 35 q 71 194 71 128 q 154 372 71 314 q 422 435 238 431 l 549 438 l 549 494 q 510 599 549 560 q 388 638 470 638 q 278 608 326 637 q 218 515 231 580 l 105 515 q 144 634 109 585 q 243 707 179 682 q 394 732 307 732 q 550 706 488 732 q 643 628 612 679 q 674 501 674 576 l 674 0 l 564 0 l 554 135 q 449 18 513 51 q 308 -14 385 -14 m 346 78 q 418 92 383 78 q 484 127 454 105 q 531 178 513 150 q 549 236 549 206 l 549 359 l 443 357 q 306 340 360 356 q 223 292 251 325 q 195 207 195 260 q 238 113 195 147 q 346 78 280 78 m 394 801 q 293 843 335 801 q 251 947 251 885 q 294 1045 251 1004 q 394 1085 336 1085 q 467 1066 435 1085 q 519 1015 500 1047 q 538 944 538 983 q 497 843 538 884 q 394 801 455 801 m 393 868 q 445 891 424 868 q 467 944 467 914 q 445 997 467 976 q 393 1017 424 1017 q 341 997 363 1017 q 318 944 318 976 q 341 891 318 914 q 393 868 363 868 z "},"ǻ":{"ha":768,"x_min":71,"x_max":674,"o":"m 481 1038 l 440 942 q 505 894 480 928 q 530 815 530 860 q 489 717 530 756 q 390 678 449 678 q 290 718 331 678 q 250 818 250 758 q 282 904 250 868 q 363 948 315 940 l 384 1038 l 481 1038 m 388 738 q 441 761 419 738 q 463 814 463 785 q 441 868 463 847 q 388 889 419 889 q 336 868 358 889 q 313 814 313 847 q 336 761 313 785 q 388 738 358 738 m 308 -14 q 184 11 238 -14 q 101 82 131 35 q 71 194 71 128 q 154 372 71 314 q 422 435 238 431 l 549 438 l 549 494 q 510 599 549 560 q 388 638 470 638 q 278 608 326 637 q 218 515 231 580 l 105 515 q 144 634 109 585 q 243 707 179 682 q 394 732 307 732 q 550 706 488 732 q 643 628 612 679 q 674 501 674 576 l 674 0 l 564 0 l 554 135 q 449 18 513 51 q 308 -14 385 -14 m 346 78 q 418 92 383 78 q 484 127 454 105 q 531 178 513 150 q 549 236 549 206 l 549 359 l 443 357 q 306 340 360 356 q 223 292 251 325 q 195 207 195 260 q 238 113 195 147 q 346 78 280 78 z "},"ã":{"ha":768,"x_min":71,"x_max":674,"o":"m 308 -14 q 184 11 238 -14 q 101 82 131 35 q 71 194 71 128 q 154 372 71 314 q 422 435 238 431 l 549 438 l 549 494 q 510 599 549 560 q 388 638 470 638 q 278 608 326 637 q 218 515 231 580 l 105 515 q 144 634 109 585 q 243 707 179 682 q 394 732 307 732 q 550 706 488 732 q 643 628 612 679 q 674 501 674 576 l 674 0 l 564 0 l 554 135 q 449 18 513 51 q 308 -14 385 -14 m 346 78 q 418 92 383 78 q 484 127 454 105 q 531 178 513 150 q 549 236 549 206 l 549 359 l 443 357 q 306 340 360 356 q 223 292 251 325 q 195 207 195 260 q 238 113 195 147 q 346 78 280 78 m 212 847 l 188 923 q 238 960 211 944 q 303 975 264 975 q 368 965 338 975 q 427 946 398 956 q 486 936 456 936 q 540 948 517 936 q 583 975 563 959 l 606 890 q 559 864 588 877 q 486 850 530 850 q 421 859 449 850 q 367 877 393 868 q 309 886 341 886 q 254 875 275 886 q 212 847 233 863 z "},"æ":{"ha":1269,"x_min":71,"x_max":1198,"o":"m 308 -14 q 184 11 238 -14 q 101 82 131 35 q 71 194 71 128 q 154 373 71 314 q 422 435 238 431 l 550 438 l 550 494 q 506 600 550 563 q 388 638 461 638 q 279 607 326 637 q 218 515 231 577 l 105 515 q 144 627 108 578 q 243 704 179 676 q 394 732 307 732 q 548 700 484 732 q 640 610 611 668 q 740 700 678 669 q 883 732 802 732 q 1055 688 985 732 q 1161 565 1124 644 q 1198 376 1198 485 l 1198 329 l 683 329 q 706 206 683 261 q 774 118 728 151 q 890 85 820 85 q 1009 117 959 85 q 1072 210 1058 149 l 1193 210 q 1135 87 1180 137 q 1026 11 1090 37 q 892 -14 963 -14 q 717 30 793 -14 q 599 156 640 74 q 541 65 583 103 q 438 7 498 27 q 308 -14 378 -14 m 346 78 q 452 107 408 78 q 522 177 497 135 q 548 258 547 218 l 547 359 l 443 357 q 306 340 361 356 q 223 292 251 325 q 195 207 195 260 q 238 113 195 147 q 346 78 280 78 m 684 416 l 1074 416 q 1053 527 1074 478 q 990 606 1032 577 q 882 635 947 635 q 770 602 815 635 q 705 520 726 570 q 684 416 683 469 z "},"ǽ":{"ha":1269,"x_min":71,"x_max":1198,"o":"m 308 -14 q 184 11 238 -14 q 101 82 131 35 q 71 194 71 128 q 154 373 71 314 q 422 435 238 431 l 550 438 l 550 494 q 506 600 550 563 q 388 638 461 638 q 279 607 326 637 q 218 515 231 577 l 105 515 q 144 627 108 578 q 243 704 179 676 q 394 732 307 732 q 548 700 484 732 q 640 610 611 668 q 740 700 678 669 q 883 732 802 732 q 1055 688 985 732 q 1161 565 1124 644 q 1198 376 1198 485 l 1198 329 l 683 329 q 706 206 683 261 q 774 118 728 151 q 890 85 820 85 q 1009 117 959 85 q 1072 210 1058 149 l 1193 210 q 1135 87 1180 137 q 1026 11 1090 37 q 892 -14 963 -14 q 717 30 793 -14 q 599 156 640 74 q 541 65 583 103 q 438 7 498 27 q 308 -14 378 -14 m 346 78 q 452 107 408 78 q 522 177 497 135 q 548 258 547 218 l 547 359 l 443 357 q 306 340 361 356 q 223 292 251 325 q 195 207 195 260 q 238 113 195 147 q 346 78 280 78 m 684 416 l 1074 416 q 1053 527 1074 478 q 990 606 1032 577 q 882 635 947 635 q 770 602 815 635 q 705 520 726 570 q 684 416 683 469 m 560 802 l 703 1004 l 849 1004 l 659 802 l 560 802 z "},"b":{"ha":828,"x_min":106,"x_max":765,"o":"m 461 -14 q 355 3 398 -14 q 283 45 311 19 q 240 99 256 72 q 218 147 225 126 l 204 0 l 106 0 l 106 1032 l 235 1032 l 235 604 q 263 644 244 622 q 310 685 281 665 q 380 719 340 706 q 471 732 419 732 q 685 638 606 732 q 765 362 765 544 q 731 164 765 249 q 629 33 697 80 q 461 -14 562 -14 m 438 85 q 581 152 526 85 q 635 368 635 220 q 584 563 635 494 q 435 632 533 632 q 320 601 364 632 q 257 511 277 570 q 235 368 236 452 q 282 151 235 217 q 438 85 329 85 z "},"c":{"ha":755,"x_min":65,"x_max":683,"o":"m 395 -14 q 223 28 298 -14 q 107 153 149 71 q 65 356 65 236 q 103 553 65 469 q 216 685 142 638 q 395 732 290 732 q 534 702 472 732 q 635 619 595 673 q 683 491 674 565 l 569 491 q 541 560 563 528 q 482 610 518 591 q 396 628 445 628 q 245 562 303 628 q 188 358 188 495 q 241 159 188 233 q 397 84 294 84 q 483 103 447 84 q 542 154 520 122 q 571 222 565 185 l 683 222 q 634 97 674 149 q 532 15 594 44 q 395 -14 471 -14 z "},"ć":{"ha":755,"x_min":65,"x_max":683,"o":"m 395 -14 q 223 28 298 -14 q 107 153 149 71 q 65 356 65 236 q 103 553 65 469 q 216 685 142 638 q 395 732 290 732 q 534 702 472 732 q 635 619 595 673 q 683 491 674 565 l 569 491 q 541 560 563 528 q 482 610 518 591 q 396 628 445 628 q 245 562 303 628 q 188 358 188 495 q 241 159 188 233 q 397 84 294 84 q 483 103 447 84 q 542 154 520 122 q 571 222 565 185 l 683 222 q 634 97 674 149 q 532 15 594 44 q 395 -14 471 -14 m 339 802 l 482 1004 l 628 1004 l 438 802 l 339 802 z "},"č":{"ha":755,"x_min":65,"x_max":683,"o":"m 395 -14 q 223 28 298 -14 q 107 153 149 71 q 65 356 65 236 q 103 553 65 469 q 216 685 142 638 q 395 732 290 732 q 534 702 472 732 q 635 619 595 673 q 683 491 674 565 l 569 491 q 541 560 563 528 q 482 610 518 591 q 396 628 445 628 q 245 562 303 628 q 188 358 188 495 q 241 159 188 233 q 397 84 294 84 q 483 103 447 84 q 542 154 520 122 q 571 222 565 185 l 683 222 q 634 97 674 149 q 532 15 594 44 q 395 -14 471 -14 m 350 802 l 175 958 l 290 958 l 395 865 l 492 958 l 613 958 l 442 802 l 350 802 z "},"ç":{"ha":755,"x_min":65,"x_max":683,"o":"m 374 -286 q 304 -278 337 -286 q 242 -251 271 -269 l 264 -197 q 305 -220 282 -210 q 359 -230 328 -230 q 415 -217 397 -230 q 433 -179 433 -203 q 408 -134 433 -149 q 323 -118 382 -119 q 314 -116 316 -118 q 315 -109 313 -114 l 365 7 l 433 7 l 400 -77 q 474 -95 447 -79 q 513 -133 501 -110 q 524 -178 524 -156 q 503 -237 524 -214 q 449 -274 483 -261 q 374 -286 415 -286 m 395 -14 q 223 28 298 -14 q 107 153 149 71 q 65 356 65 236 q 103 553 65 469 q 216 685 142 638 q 395 732 290 732 q 534 702 472 732 q 635 619 595 673 q 683 491 674 565 l 569 491 q 541 560 563 528 q 482 610 518 591 q 396 628 445 628 q 245 562 303 628 q 188 358 188 495 q 241 159 188 233 q 397 84 294 84 q 483 103 447 84 q 542 154 520 122 q 571 222 565 185 l 683 222 q 634 97 674 149 q 532 15 594 44 q 395 -14 471 -14 z "},"ĉ":{"ha":755,"x_min":65,"x_max":683,"o":"m 395 -14 q 223 28 298 -14 q 107 153 149 71 q 65 356 65 236 q 103 553 65 469 q 216 685 142 638 q 395 732 290 732 q 534 702 472 732 q 635 619 595 673 q 683 491 674 565 l 569 491 q 541 560 563 528 q 482 610 518 591 q 396 628 445 628 q 245 562 303 628 q 188 358 188 495 q 241 159 188 233 q 397 84 294 84 q 483 103 447 84 q 542 154 520 122 q 571 222 565 185 l 683 222 q 634 97 674 149 q 532 15 594 44 q 395 -14 471 -14 m 176 802 l 351 958 l 442 958 l 613 802 l 492 802 l 395 892 l 290 802 l 176 802 z "},"ċ":{"ha":755,"x_min":65,"x_max":683,"o":"m 395 -14 q 223 28 298 -14 q 107 153 149 71 q 65 356 65 236 q 103 553 65 469 q 216 685 142 638 q 395 732 290 732 q 534 702 472 732 q 635 619 595 673 q 683 491 674 565 l 569 491 q 541 560 563 528 q 482 610 518 591 q 396 628 445 628 q 245 562 303 628 q 188 358 188 495 q 241 159 188 233 q 397 84 294 84 q 483 103 447 84 q 542 154 520 122 q 571 222 565 185 l 683 222 q 634 97 674 149 q 532 15 594 44 q 395 -14 471 -14 m 330 880 l 330 1004 l 460 1004 l 460 880 l 330 880 z "},"d":{"ha":828,"x_min":65,"x_max":723,"o":"m 368 -14 q 146 82 228 -14 q 65 362 65 178 q 97 557 65 474 q 195 686 130 640 q 358 732 260 732 q 449 719 410 732 q 518 685 489 706 q 566 644 547 665 q 593 604 584 622 l 593 1032 l 723 1032 l 723 0 l 624 0 l 610 147 q 588 99 603 126 q 545 45 573 72 q 474 3 518 19 q 368 -14 431 -14 m 391 85 q 546 151 499 85 q 593 368 593 217 q 572 511 592 452 q 509 601 552 570 q 393 632 465 632 q 249 569 305 632 q 194 368 194 506 q 244 159 194 233 q 391 85 294 85 z "},"ð":{"ha":785,"x_min":65,"x_max":721,"o":"m 392 -14 q 211 34 284 -14 q 101 166 138 83 q 65 351 65 249 q 88 507 65 438 q 153 623 110 575 q 255 697 195 672 q 387 722 314 722 q 567 664 499 722 q 652 510 634 606 l 553 602 q 506 740 539 676 q 430 858 473 804 q 343 955 388 913 q 262 1028 299 998 l 381 1028 q 502 920 441 983 q 612 774 563 856 q 691 590 661 692 q 721 369 721 489 q 685 170 721 256 q 576 35 649 83 q 392 -14 503 -14 m 394 88 q 509 123 465 88 q 573 219 553 158 q 594 356 594 281 q 543 554 594 484 q 397 624 492 624 q 242 550 292 624 q 192 356 192 476 q 212 222 192 283 q 276 124 231 161 q 394 88 320 88 m 248 792 l 227 858 l 661 990 l 681 922 l 248 792 z "},"ď":{"ha":819,"x_min":65,"x_max":918,"o":"m 368 -14 q 146 82 228 -14 q 65 362 65 178 q 97 557 65 474 q 195 686 130 640 q 358 732 260 732 q 449 719 410 732 q 518 685 489 706 q 566 644 547 665 q 593 604 584 622 l 593 1032 l 723 1032 l 723 0 l 624 0 l 610 147 q 588 99 603 126 q 545 45 573 72 q 474 3 518 19 q 368 -14 431 -14 m 391 85 q 546 151 499 85 q 593 368 593 217 q 572 511 592 452 q 509 601 552 570 q 393 632 465 632 q 249 569 305 632 q 194 368 194 506 q 244 159 194 233 q 391 85 294 85 m 797 763 l 850 890 l 812 897 l 812 1032 l 918 1032 l 918 890 l 863 763 l 797 763 z "},"đ":{"ha":857,"x_min":65,"x_max":815,"o":"m 386 827 l 386 908 l 815 908 l 815 827 l 386 827 m 368 -14 q 146 82 228 -14 q 65 362 65 178 q 97 557 65 474 q 195 686 130 640 q 358 732 260 732 q 449 719 410 732 q 518 685 489 706 q 566 644 547 665 q 593 604 584 622 l 593 1032 l 723 1032 l 723 0 l 624 0 l 610 147 q 588 99 603 126 q 545 45 573 72 q 474 3 518 19 q 368 -14 431 -14 m 391 85 q 546 151 499 85 q 593 368 593 217 q 572 511 592 452 q 509 601 552 570 q 393 632 465 632 q 249 569 305 632 q 194 368 194 506 q 244 159 194 233 q 391 85 294 85 z "},"ḍ":{"ha":828,"x_min":65,"x_max":723,"o":"m 368 -14 q 146 82 228 -14 q 65 362 65 178 q 97 557 65 474 q 195 686 130 640 q 358 732 260 732 q 449 719 410 732 q 518 685 489 706 q 566 644 547 665 q 593 604 584 622 l 593 1032 l 723 1032 l 723 0 l 624 0 l 610 147 q 588 99 603 126 q 545 45 573 72 q 474 3 518 19 q 368 -14 431 -14 m 391 85 q 546 151 499 85 q 593 368 593 217 q 572 511 592 452 q 509 601 552 570 q 393 632 465 632 q 249 569 305 632 q 194 368 194 506 q 244 159 194 233 q 391 85 294 85 m 313 -249 l 313 -125 l 443 -125 l 443 -249 l 313 -249 z "},"e":{"ha":787,"x_min":71,"x_max":715,"o":"m 410 -14 q 233 30 310 -14 q 114 156 157 74 q 71 352 71 238 q 110 551 71 465 q 223 684 149 636 q 401 732 297 732 q 572 688 502 732 q 679 565 642 644 q 715 376 715 485 l 715 329 l 201 329 q 223 206 201 261 q 292 118 246 151 q 408 85 338 85 q 526 117 476 85 q 590 210 576 149 l 710 210 q 652 87 698 137 q 543 11 607 37 q 410 -14 480 -14 m 201 416 l 592 416 q 571 527 592 478 q 507 606 550 577 q 400 635 465 635 q 288 602 333 635 q 222 520 244 570 q 201 416 201 469 z "},"é":{"ha":787,"x_min":71,"x_max":715,"o":"m 410 -14 q 233 30 310 -14 q 114 156 157 74 q 71 352 71 238 q 110 551 71 465 q 223 684 149 636 q 401 732 297 732 q 572 688 502 732 q 679 565 642 644 q 715 376 715 485 l 715 329 l 201 329 q 223 206 201 261 q 292 118 246 151 q 408 85 338 85 q 526 117 476 85 q 590 210 576 149 l 710 210 q 652 87 698 137 q 543 11 607 37 q 410 -14 480 -14 m 201 416 l 592 416 q 571 527 592 478 q 507 606 550 577 q 400 635 465 635 q 288 602 333 635 q 222 520 244 570 q 201 416 201 469 m 344 802 l 488 1004 l 633 1004 l 444 802 l 344 802 z "},"ĕ":{"ha":787,"x_min":71,"x_max":715,"o":"m 410 -14 q 233 30 310 -14 q 114 156 157 74 q 71 352 71 238 q 110 551 71 465 q 223 684 149 636 q 401 732 297 732 q 572 688 502 732 q 679 565 642 644 q 715 376 715 485 l 715 329 l 201 329 q 223 206 201 261 q 292 118 246 151 q 408 85 338 85 q 526 117 476 85 q 590 210 576 149 l 710 210 q 652 87 698 137 q 543 11 607 37 q 410 -14 480 -14 m 201 416 l 592 416 q 571 527 592 478 q 507 606 550 577 q 400 635 465 635 q 288 602 333 635 q 222 520 244 570 q 201 416 201 469 m 400 800 q 305 817 349 800 q 231 868 261 835 q 190 951 201 902 l 284 951 q 325 896 295 917 q 400 875 356 875 q 475 896 444 875 q 519 951 507 917 l 612 951 q 571 870 601 903 q 498 818 542 836 q 400 800 453 800 z "},"ě":{"ha":782,"x_min":71,"x_max":715,"o":"m 410 -14 q 233 30 310 -14 q 114 156 157 74 q 71 352 71 238 q 110 551 71 465 q 223 684 149 636 q 401 732 297 732 q 572 688 502 732 q 679 565 642 644 q 715 376 715 485 l 715 329 l 201 329 q 223 206 201 261 q 292 118 246 151 q 408 85 338 85 q 526 117 476 85 q 590 210 576 149 l 710 210 q 652 87 698 137 q 543 11 607 37 q 410 -14 480 -14 m 201 416 l 592 416 q 571 527 592 478 q 507 606 550 577 q 400 635 465 635 q 288 602 333 635 q 222 520 244 570 q 201 416 201 469 m 351 802 l 176 958 l 292 958 l 397 865 l 494 958 l 615 958 l 444 802 l 351 802 z "},"ê":{"ha":787,"x_min":71,"x_max":715,"o":"m 410 -14 q 233 30 310 -14 q 114 156 157 74 q 71 352 71 238 q 110 551 71 465 q 223 684 149 636 q 401 732 297 732 q 572 688 502 732 q 679 565 642 644 q 715 376 715 485 l 715 329 l 201 329 q 223 206 201 261 q 292 118 246 151 q 408 85 338 85 q 526 117 476 85 q 590 210 576 149 l 710 210 q 652 87 698 137 q 543 11 607 37 q 410 -14 480 -14 m 201 416 l 592 416 q 571 527 592 478 q 507 606 550 577 q 400 635 465 635 q 288 602 333 635 q 222 520 244 570 q 201 416 201 469 m 182 802 l 356 958 l 448 958 l 619 802 l 498 802 l 401 892 l 296 802 l 182 802 z "},"ế":{"ha":787,"x_min":71,"x_max":750,"o":"m 410 -14 q 233 30 310 -14 q 114 156 157 74 q 71 352 71 238 q 110 551 71 465 q 223 684 149 636 q 401 732 297 732 q 572 688 502 732 q 679 565 642 644 q 715 376 715 485 l 715 329 l 201 329 q 223 206 201 261 q 292 118 246 151 q 408 85 338 85 q 526 117 476 85 q 590 210 576 149 l 710 210 q 652 87 698 137 q 543 11 607 37 q 410 -14 480 -14 m 201 416 l 592 416 q 571 527 592 478 q 507 606 550 577 q 400 635 465 635 q 288 602 333 635 q 222 520 244 570 q 201 416 201 469 m 182 802 l 356 958 l 448 958 l 619 802 l 498 802 l 401 892 l 296 802 l 182 802 m 528 956 l 630 1124 l 750 1124 l 610 956 l 528 956 z "},"ệ":{"ha":787,"x_min":71,"x_max":715,"o":"m 410 -14 q 233 30 310 -14 q 114 156 157 74 q 71 352 71 238 q 110 551 71 465 q 223 684 149 636 q 401 732 297 732 q 572 688 502 732 q 679 565 642 644 q 715 376 715 485 l 715 329 l 201 329 q 223 206 201 261 q 292 118 246 151 q 408 85 338 85 q 526 117 476 85 q 590 210 576 149 l 710 210 q 652 87 698 137 q 543 11 607 37 q 410 -14 480 -14 m 201 416 l 592 416 q 571 527 592 478 q 507 606 550 577 q 400 635 465 635 q 288 602 333 635 q 222 520 244 570 q 201 416 201 469 m 337 -249 l 337 -125 l 467 -125 l 467 -249 l 337 -249 m 182 802 l 356 958 l 448 958 l 619 802 l 498 802 l 401 892 l 296 802 l 182 802 z "},"ề":{"ha":787,"x_min":71,"x_max":715,"o":"m 410 -14 q 233 30 310 -14 q 114 156 157 74 q 71 352 71 238 q 110 551 71 465 q 223 684 149 636 q 401 732 297 732 q 572 688 502 732 q 679 565 642 644 q 715 376 715 485 l 715 329 l 201 329 q 223 206 201 261 q 292 118 246 151 q 408 85 338 85 q 526 117 476 85 q 590 210 576 149 l 710 210 q 652 87 698 137 q 543 11 607 37 q 410 -14 480 -14 m 201 416 l 592 416 q 571 527 592 478 q 507 606 550 577 q 400 635 465 635 q 288 602 333 635 q 222 520 244 570 q 201 416 201 469 m 182 802 l 356 958 l 448 958 l 619 802 l 498 802 l 401 892 l 296 802 l 182 802 m 597 956 l 450 1124 l 570 1124 l 681 956 l 597 956 z "},"ể":{"ha":787,"x_min":71,"x_max":715,"o":"m 410 -14 q 233 30 310 -14 q 114 156 157 74 q 71 352 71 238 q 110 551 71 465 q 223 684 149 636 q 401 732 297 732 q 572 688 502 732 q 679 565 642 644 q 715 376 715 485 l 715 329 l 201 329 q 223 206 201 261 q 292 118 246 151 q 408 85 338 85 q 526 117 476 85 q 590 210 576 149 l 710 210 q 652 87 698 137 q 543 11 607 37 q 410 -14 480 -14 m 201 416 l 592 416 q 571 527 592 478 q 507 606 550 577 q 400 635 465 635 q 288 602 333 635 q 222 520 244 570 q 201 416 201 469 m 185 802 l 359 958 l 451 958 l 622 802 l 501 802 l 403 892 l 299 802 l 185 802 m 565 924 l 527 982 q 569 1026 557 1001 q 567 1075 581 1051 q 524 1097 553 1097 q 466 1078 494 1097 l 428 1136 q 543 1167 488 1174 q 628 1115 599 1160 q 644 1012 662 1063 q 565 924 627 961 z "},"ễ":{"ha":787,"x_min":71,"x_max":715,"o":"m 410 -14 q 233 30 310 -14 q 114 156 157 74 q 71 352 71 238 q 110 551 71 465 q 223 684 149 636 q 401 732 297 732 q 572 688 502 732 q 679 565 642 644 q 715 376 715 485 l 715 329 l 201 329 q 223 206 201 261 q 292 118 246 151 q 408 85 338 85 q 526 117 476 85 q 590 210 576 149 l 710 210 q 652 87 698 137 q 543 11 607 37 q 410 -14 480 -14 m 201 416 l 592 416 q 571 527 592 478 q 507 606 550 577 q 400 635 465 635 q 288 602 333 635 q 222 520 244 570 q 201 416 201 469 m 183 802 l 357 958 l 449 958 l 619 802 l 499 802 l 401 892 l 297 802 l 183 802 m 217 1033 l 192 1110 q 242 1146 215 1131 q 308 1161 268 1161 q 373 1152 342 1161 q 432 1133 403 1142 q 491 1123 460 1123 q 545 1134 522 1123 q 588 1161 567 1146 l 610 1077 q 564 1050 592 1064 q 490 1037 535 1037 q 426 1046 453 1037 q 372 1064 398 1055 q 314 1072 346 1072 q 259 1061 280 1072 q 217 1033 238 1050 z "},"ȅ":{"ha":787,"x_min":51,"x_max":715,"o":"m 410 -14 q 233 30 310 -14 q 114 156 157 74 q 71 352 71 238 q 110 551 71 465 q 223 684 149 636 q 401 732 297 732 q 572 688 502 732 q 679 565 642 644 q 715 376 715 485 l 715 329 l 201 329 q 223 206 201 261 q 292 118 246 151 q 408 85 338 85 q 526 117 476 85 q 590 210 576 149 l 710 210 q 652 87 698 137 q 543 11 607 37 q 410 -14 480 -14 m 201 416 l 592 416 q 571 527 592 478 q 507 606 550 577 q 400 635 465 635 q 288 602 333 635 q 222 520 244 570 q 201 416 201 469 m 253 802 l 51 1004 l 189 1004 l 353 802 l 253 802 m 447 802 l 276 1004 l 410 1004 l 547 802 l 447 802 z "},"ë":{"ha":787,"x_min":71,"x_max":715,"o":"m 410 -14 q 233 30 310 -14 q 114 156 157 74 q 71 352 71 238 q 110 551 71 465 q 223 684 149 636 q 401 732 297 732 q 572 688 502 732 q 679 565 642 644 q 715 376 715 485 l 715 329 l 201 329 q 223 206 201 261 q 292 118 246 151 q 408 85 338 85 q 526 117 476 85 q 590 210 576 149 l 710 210 q 652 87 698 137 q 543 11 607 37 q 410 -14 480 -14 m 201 416 l 592 416 q 571 527 592 478 q 507 606 550 577 q 400 635 465 635 q 288 602 333 635 q 222 520 244 570 q 201 416 201 469 m 473 880 l 474 1004 l 599 1004 l 599 880 l 473 880 m 203 880 l 203 1004 l 329 1004 l 328 880 l 203 880 z "},"ė":{"ha":787,"x_min":71,"x_max":715,"o":"m 410 -14 q 233 30 310 -14 q 114 156 157 74 q 71 352 71 238 q 110 551 71 465 q 223 684 149 636 q 401 732 297 732 q 572 688 502 732 q 679 565 642 644 q 715 376 715 485 l 715 329 l 201 329 q 223 206 201 261 q 292 118 246 151 q 408 85 338 85 q 526 117 476 85 q 590 210 576 149 l 710 210 q 652 87 698 137 q 543 11 607 37 q 410 -14 480 -14 m 201 416 l 592 416 q 571 527 592 478 q 507 606 550 577 q 400 635 465 635 q 288 602 333 635 q 222 520 244 570 q 201 416 201 469 m 336 880 l 336 1004 l 466 1004 l 466 880 l 336 880 z "},"ẹ":{"ha":787,"x_min":71,"x_max":715,"o":"m 410 -14 q 233 30 310 -14 q 114 156 157 74 q 71 352 71 238 q 110 551 71 465 q 223 684 149 636 q 401 732 297 732 q 572 688 502 732 q 679 565 642 644 q 715 376 715 485 l 715 329 l 201 329 q 223 206 201 261 q 292 118 246 151 q 408 85 338 85 q 526 117 476 85 q 590 210 576 149 l 710 210 q 652 87 698 137 q 543 11 607 37 q 410 -14 480 -14 m 201 416 l 592 416 q 571 527 592 478 q 507 606 550 577 q 400 635 465 635 q 288 602 333 635 q 222 520 244 570 q 201 416 201 469 m 337 -249 l 337 -125 l 467 -125 l 467 -249 l 337 -249 z "},"è":{"ha":787,"x_min":71,"x_max":715,"o":"m 410 -14 q 233 30 310 -14 q 114 156 157 74 q 71 352 71 238 q 110 551 71 465 q 223 684 149 636 q 401 732 297 732 q 572 688 502 732 q 679 565 642 644 q 715 376 715 485 l 715 329 l 201 329 q 223 206 201 261 q 292 118 246 151 q 408 85 338 85 q 526 117 476 85 q 590 210 576 149 l 710 210 q 652 87 698 137 q 543 11 607 37 q 410 -14 480 -14 m 201 416 l 592 416 q 571 527 592 478 q 507 606 550 577 q 400 635 465 635 q 288 602 333 635 q 222 520 244 570 q 201 416 201 469 m 355 802 l 165 1004 l 311 1004 l 454 802 l 355 802 z "},"ẻ":{"ha":787,"x_min":71,"x_max":715,"o":"m 410 -14 q 233 30 310 -14 q 114 156 157 74 q 71 352 71 238 q 110 551 71 465 q 223 684 149 636 q 401 732 297 732 q 572 688 502 732 q 679 565 642 644 q 715 376 715 485 l 715 329 l 201 329 q 223 206 201 261 q 292 118 246 151 q 408 85 338 85 q 526 117 476 85 q 590 210 576 149 l 710 210 q 652 87 698 137 q 543 11 607 37 q 410 -14 480 -14 m 201 416 l 592 416 q 571 527 592 478 q 507 606 550 577 q 400 635 465 635 q 288 602 333 635 q 222 520 244 570 q 201 416 201 469 m 442 800 l 405 858 q 447 902 435 877 q 444 951 459 928 q 401 974 431 974 q 344 954 372 973 l 306 1013 q 420 1043 365 1051 q 505 992 476 1036 q 522 888 540 939 q 442 800 504 838 z "},"ȇ":{"ha":787,"x_min":71,"x_max":715,"o":"m 410 -14 q 233 30 310 -14 q 114 156 157 74 q 71 352 71 238 q 110 551 71 465 q 223 684 149 636 q 401 732 297 732 q 572 688 502 732 q 679 565 642 644 q 715 376 715 485 l 715 329 l 201 329 q 223 206 201 261 q 292 118 246 151 q 408 85 338 85 q 526 117 476 85 q 590 210 576 149 l 710 210 q 652 87 698 137 q 543 11 607 37 q 410 -14 480 -14 m 201 416 l 592 416 q 571 527 592 478 q 507 606 550 577 q 400 635 465 635 q 288 602 333 635 q 222 520 244 570 q 201 416 201 469 m 188 839 q 228 921 198 888 q 302 972 258 954 q 397 989 346 989 q 495 971 451 989 q 569 919 539 953 q 608 839 599 886 l 516 839 q 472 893 503 872 q 397 914 441 914 q 323 893 353 914 q 281 839 292 872 l 188 839 z "},"ē":{"ha":787,"x_min":71,"x_max":715,"o":"m 410 -14 q 233 30 310 -14 q 114 156 157 74 q 71 352 71 238 q 110 551 71 465 q 223 684 149 636 q 401 732 297 732 q 572 688 502 732 q 679 565 642 644 q 715 376 715 485 l 715 329 l 201 329 q 223 206 201 261 q 292 118 246 151 q 408 85 338 85 q 526 117 476 85 q 590 210 576 149 l 710 210 q 652 87 698 137 q 543 11 607 37 q 410 -14 480 -14 m 201 416 l 592 416 q 571 527 592 478 q 507 606 550 577 q 400 635 465 635 q 288 602 333 635 q 222 520 244 570 q 201 416 201 469 m 193 858 l 193 948 l 608 948 l 608 858 l 193 858 z "},"ę":{"ha":787,"x_min":71,"x_max":715,"o":"m 464 -218 q 361 -189 397 -218 q 326 -108 326 -159 q 339 -57 326 -81 q 383 -12 351 -33 q 219 38 290 -6 q 110 163 149 83 q 71 352 71 242 q 110 551 71 465 q 223 684 149 636 q 401 732 297 732 q 572 688 502 732 q 679 565 642 644 q 715 376 715 485 l 715 329 l 201 329 q 223 206 201 261 q 292 118 246 151 q 408 85 338 85 q 526 117 476 85 q 590 210 576 149 l 710 210 q 655 92 698 138 q 546 13 612 45 q 458 -40 487 -15 q 430 -97 430 -65 q 445 -135 430 -122 q 494 -148 460 -148 q 553 -139 527 -148 q 593 -122 578 -131 l 593 -190 q 541 -209 576 -199 q 464 -218 505 -218 m 201 416 l 592 416 q 571 527 592 478 q 507 606 550 577 q 400 635 465 635 q 288 602 333 635 q 222 520 244 570 q 201 416 201 469 z "},"ẽ":{"ha":787,"x_min":71,"x_max":715,"o":"m 410 -14 q 233 30 310 -14 q 114 156 157 74 q 71 352 71 238 q 110 551 71 465 q 223 684 149 636 q 401 732 297 732 q 572 688 502 732 q 679 565 642 644 q 715 376 715 485 l 715 329 l 201 329 q 223 206 201 261 q 292 118 246 151 q 408 85 338 85 q 526 117 476 85 q 590 210 576 149 l 710 210 q 652 87 698 137 q 543 11 607 37 q 410 -14 480 -14 m 201 416 l 592 416 q 571 527 592 478 q 507 606 550 577 q 400 635 465 635 q 288 602 333 635 q 222 520 244 570 q 201 416 201 469 m 218 847 l 194 923 q 244 960 217 944 q 310 975 270 975 q 374 965 344 975 q 433 946 404 956 q 492 936 462 936 q 547 948 524 936 q 590 975 569 959 l 612 890 q 565 864 594 877 q 492 850 536 850 q 427 859 455 850 q 373 877 399 868 q 315 886 347 886 q 260 875 281 886 q 218 847 240 863 z "},"ə":{"ha":787,"x_min":72,"x_max":716,"o":"m 386 -14 q 215 30 285 -14 q 108 153 145 74 q 72 342 72 233 l 72 389 l 586 389 q 564 513 586 457 q 495 600 541 568 q 379 633 449 633 q 261 601 310 633 q 197 508 211 569 l 76 508 q 135 632 90 582 q 244 707 180 681 q 377 732 308 732 q 554 688 478 732 q 673 563 631 644 q 716 366 716 481 q 677 167 716 253 q 565 34 638 82 q 386 -14 491 -14 m 388 83 q 499 116 455 83 q 565 198 543 148 q 585 302 586 249 l 195 302 q 216 191 195 240 q 280 113 238 142 q 388 83 322 83 z "},"f":{"ha":550,"x_min":50,"x_max":512,"o":"m 202 0 l 202 624 l 50 624 l 50 718 l 202 718 l 202 829 q 245 959 202 915 q 376 1004 289 1004 l 511 1004 l 512 913 l 405 913 q 344 890 360 913 q 328 818 328 866 l 328 718 l 505 718 l 505 624 l 331 624 l 331 0 l 202 0 z "},"g":{"ha":865,"x_min":52,"x_max":809,"o":"m 410 -237 q 147 -189 241 -237 q 52 -49 52 -140 q 70 18 52 -10 q 113 63 88 45 q 160 92 138 81 q 188 108 181 103 q 158 125 176 115 q 127 153 141 135 q 114 198 114 170 q 146 260 114 232 q 241 303 178 289 q 142 388 178 335 q 107 502 107 440 q 144 623 107 572 q 252 702 182 674 q 419 729 322 729 q 537 713 490 729 q 626 667 585 697 q 661 682 637 672 q 714 703 685 692 q 768 726 743 715 q 809 742 794 737 l 808 624 l 683 600 q 700 551 694 578 q 706 502 706 525 q 673 388 706 439 q 574 306 640 336 q 407 275 507 275 q 386 275 399 275 q 364 276 373 276 q 263 260 290 274 q 235 228 235 246 q 267 201 235 208 q 372 188 298 193 q 439 184 399 186 q 528 178 479 182 q 702 121 641 172 q 763 -16 763 70 q 676 -176 763 -114 q 410 -237 589 -237 m 433 -155 q 585 -125 532 -155 q 638 -35 638 -95 q 606 36 638 8 q 507 67 573 63 l 306 81 q 249 67 278 82 q 200 26 220 52 q 180 -34 180 -1 q 242 -123 180 -91 q 433 -155 303 -155 m 411 358 q 536 394 488 358 q 583 501 583 430 q 536 612 583 574 q 411 650 488 650 q 284 611 332 650 q 235 501 235 573 q 282 395 235 433 q 411 358 328 358 z "},"ğ":{"ha":865,"x_min":52,"x_max":809,"o":"m 410 -237 q 147 -189 241 -237 q 52 -49 52 -140 q 70 18 52 -10 q 113 63 88 45 q 160 92 138 81 q 188 108 181 103 q 158 125 176 115 q 127 153 141 135 q 114 198 114 170 q 146 260 114 232 q 241 303 178 289 q 142 388 178 335 q 107 502 107 440 q 144 623 107 572 q 252 702 182 674 q 419 729 322 729 q 537 713 490 729 q 626 667 585 697 q 661 682 637 672 q 714 703 685 692 q 768 726 743 715 q 809 742 794 737 l 808 624 l 683 600 q 700 551 694 578 q 706 502 706 525 q 673 388 706 439 q 574 306 640 336 q 407 275 507 275 q 386 275 399 275 q 364 276 373 276 q 263 260 290 274 q 235 228 235 246 q 267 201 235 208 q 372 188 298 193 q 439 184 399 186 q 528 178 479 182 q 702 121 641 172 q 763 -16 763 70 q 676 -176 763 -114 q 410 -237 589 -237 m 433 -155 q 585 -125 532 -155 q 638 -35 638 -95 q 606 36 638 8 q 507 67 573 63 l 306 81 q 249 67 278 82 q 200 26 220 52 q 180 -34 180 -1 q 242 -123 180 -91 q 433 -155 303 -155 m 411 358 q 536 394 488 358 q 583 501 583 430 q 536 612 583 574 q 411 650 488 650 q 284 611 332 650 q 235 501 235 573 q 282 395 235 433 q 411 358 328 358 m 416 800 q 321 817 365 800 q 247 868 277 835 q 206 951 217 902 l 300 951 q 341 896 311 917 q 416 875 372 875 q 491 896 460 875 q 535 951 523 917 l 628 951 q 587 870 617 903 q 514 818 558 836 q 416 800 469 800 z "},"ĝ":{"ha":865,"x_min":52,"x_max":809,"o":"m 410 -237 q 147 -189 241 -237 q 52 -49 52 -140 q 70 18 52 -10 q 113 63 88 45 q 160 92 138 81 q 188 108 181 103 q 158 125 176 115 q 127 153 141 135 q 114 198 114 170 q 146 260 114 232 q 241 303 178 289 q 142 388 178 335 q 107 502 107 440 q 144 623 107 572 q 252 702 182 674 q 419 729 322 729 q 537 713 490 729 q 626 667 585 697 q 661 682 637 672 q 714 703 685 692 q 768 726 743 715 q 809 742 794 737 l 808 624 l 683 600 q 700 551 694 578 q 706 502 706 525 q 673 388 706 439 q 574 306 640 336 q 407 275 507 275 q 386 275 399 275 q 364 276 373 276 q 263 260 290 274 q 235 228 235 246 q 267 201 235 208 q 372 188 298 193 q 439 184 399 186 q 528 178 479 182 q 702 121 641 172 q 763 -16 763 70 q 676 -176 763 -114 q 410 -237 589 -237 m 433 -155 q 585 -125 532 -155 q 638 -35 638 -95 q 606 36 638 8 q 507 67 573 63 l 306 81 q 249 67 278 82 q 200 26 220 52 q 180 -34 180 -1 q 242 -123 180 -91 q 433 -155 303 -155 m 411 358 q 536 394 488 358 q 583 501 583 430 q 536 612 583 574 q 411 650 488 650 q 284 611 332 650 q 235 501 235 573 q 282 395 235 433 q 411 358 328 358 m 198 802 l 372 958 l 464 958 l 635 802 l 514 802 l 417 892 l 312 802 l 198 802 z "},"ģ":{"ha":865,"x_min":52,"x_max":809,"o":"m 410 -237 q 147 -189 241 -237 q 52 -49 52 -140 q 70 18 52 -10 q 113 63 88 45 q 160 92 138 81 q 188 108 181 103 q 158 125 176 115 q 127 153 141 135 q 114 198 114 170 q 146 260 114 232 q 241 303 178 289 q 142 388 178 335 q 107 502 107 440 q 144 623 107 572 q 252 702 182 674 q 419 729 322 729 q 537 713 490 729 q 626 667 585 697 q 661 682 637 672 q 714 703 685 692 q 768 726 743 715 q 809 742 794 737 l 808 624 l 683 600 q 700 551 694 578 q 706 502 706 525 q 673 388 706 439 q 574 306 640 336 q 407 275 507 275 q 386 275 399 275 q 364 276 373 276 q 263 260 290 274 q 235 228 235 246 q 267 201 235 208 q 372 188 298 193 q 439 184 399 186 q 528 178 479 182 q 702 121 641 172 q 763 -16 763 70 q 676 -176 763 -114 q 410 -237 589 -237 m 433 -155 q 585 -125 532 -155 q 638 -35 638 -95 q 606 36 638 8 q 507 67 573 63 l 306 81 q 249 67 278 82 q 200 26 220 52 q 180 -34 180 -1 q 242 -123 180 -91 q 433 -155 303 -155 m 411 358 q 536 394 488 358 q 583 501 583 430 q 536 612 583 574 q 411 650 488 650 q 284 611 332 650 q 235 501 235 573 q 282 395 235 433 q 411 358 328 358 m 354 802 l 354 922 l 428 1035 l 487 1035 l 434 931 l 478 928 l 478 802 l 354 802 z "},"ġ":{"ha":865,"x_min":52,"x_max":809,"o":"m 410 -237 q 147 -189 241 -237 q 52 -49 52 -140 q 70 18 52 -10 q 113 63 88 45 q 160 92 138 81 q 188 108 181 103 q 158 125 176 115 q 127 153 141 135 q 114 198 114 170 q 146 260 114 232 q 241 303 178 289 q 142 388 178 335 q 107 502 107 440 q 144 623 107 572 q 252 702 182 674 q 419 729 322 729 q 537 713 490 729 q 626 667 585 697 q 661 682 637 672 q 714 703 685 692 q 768 726 743 715 q 809 742 794 737 l 808 624 l 683 600 q 700 551 694 578 q 706 502 706 525 q 673 388 706 439 q 574 306 640 336 q 407 275 507 275 q 386 275 399 275 q 364 276 373 276 q 263 260 290 274 q 235 228 235 246 q 267 201 235 208 q 372 188 298 193 q 439 184 399 186 q 528 178 479 182 q 702 121 641 172 q 763 -16 763 70 q 676 -176 763 -114 q 410 -237 589 -237 m 433 -155 q 585 -125 532 -155 q 638 -35 638 -95 q 606 36 638 8 q 507 67 573 63 l 306 81 q 249 67 278 82 q 200 26 220 52 q 180 -34 180 -1 q 242 -123 180 -91 q 433 -155 303 -155 m 411 358 q 536 394 488 358 q 583 501 583 430 q 536 612 583 574 q 411 650 488 650 q 284 611 332 650 q 235 501 235 573 q 282 395 235 433 q 411 358 328 358 m 351 880 l 351 1004 l 481 1004 l 481 880 l 351 880 z "},"h":{"ha":801,"x_min":106,"x_max":706,"o":"m 106 0 l 106 1032 l 231 1032 l 231 613 q 280 668 249 642 q 354 711 310 694 q 456 727 398 727 q 583 701 526 727 q 673 627 640 675 q 706 513 706 579 l 706 0 l 578 0 l 578 488 q 534 587 578 552 q 419 622 490 622 q 328 607 371 622 q 260 559 286 591 q 234 479 234 528 l 234 0 l 106 0 z "},"ħ":{"ha":817,"x_min":28,"x_max":724,"o":"m 28 827 l 28 908 l 457 908 l 457 827 l 28 827 m 123 0 l 123 1032 l 249 1032 l 249 613 q 297 668 267 642 q 372 711 328 694 q 473 727 415 727 q 599 701 542 727 q 690 627 656 675 q 724 513 724 579 l 724 0 l 594 0 l 594 488 q 550 587 594 552 q 435 622 506 622 q 345 607 388 622 q 277 559 303 591 q 251 479 251 528 l 251 0 l 123 0 z "},"ĥ":{"ha":801,"x_min":-51,"x_max":706,"o":"m 106 0 l 106 1032 l 231 1032 l 231 613 q 280 668 249 642 q 354 711 310 694 q 456 727 398 727 q 583 701 526 727 q 673 627 640 675 q 706 513 706 579 l 706 0 l 578 0 l 578 488 q 534 587 578 552 q 419 622 490 622 q 328 607 371 622 q 260 559 286 591 q 234 479 234 528 l 234 0 l 106 0 m -51 1088 l 123 1244 l 215 1244 l 385 1088 l 265 1088 l 167 1178 l 63 1088 l -51 1088 z "},"ḥ":{"ha":801,"x_min":106,"x_max":706,"o":"m 106 0 l 106 1032 l 231 1032 l 231 613 q 280 668 249 642 q 354 711 310 694 q 456 727 398 727 q 583 701 526 727 q 673 627 640 675 q 706 513 706 579 l 706 0 l 578 0 l 578 488 q 534 587 578 552 q 419 622 490 622 q 328 607 371 622 q 260 559 286 591 q 234 479 234 528 l 234 0 l 106 0 m 351 -249 l 351 -125 l 481 -125 l 481 -249 l 351 -249 z "},"i":{"ha":344,"x_min":106,"x_max":238,"o":"m 110 0 l 110 718 l 234 718 l 234 0 l 110 0 m 106 870 l 106 1003 l 238 1003 l 238 870 l 106 870 z "},"ı":{"ha":336,"x_min":106,"x_max":230,"o":"m 106 0 l 106 718 l 230 718 l 230 0 l 106 0 z "},"í":{"ha":336,"x_min":106,"x_max":354,"o":"m 106 0 l 106 718 l 230 718 l 230 0 l 106 0 m 213 802 l 120 803 l 213 1004 l 354 1004 l 213 802 z "},"ĭ":{"ha":336,"x_min":-42,"x_max":379,"o":"m 106 0 l 106 718 l 230 718 l 230 0 l 106 0 m 168 800 q 73 817 117 800 q -1 868 29 835 q -42 951 -31 902 l 52 951 q 93 896 63 917 q 168 875 124 875 q 243 896 212 875 q 287 951 275 917 l 380 951 q 339 870 369 903 q 266 818 310 836 q 168 800 222 800 z "},"î":{"ha":336,"x_min":-51,"x_max":387,"o":"m 106 0 l 106 718 l 230 718 l 230 0 l 106 0 m -50 802 l 124 958 l 216 958 l 387 802 l 266 802 l 169 892 l 64 802 l -50 802 z "},"ȉ":{"ha":336,"x_min":-181,"x_max":315,"o":"m 106 0 l 106 718 l 230 718 l 230 0 l 106 0 m 22 802 l -181 1004 l -43 1004 l 121 802 l 22 802 m 215 802 l 44 1004 l 178 1004 l 315 802 l 215 802 z "},"ï":{"ha":419,"x_min":10,"x_max":407,"o":"m 145 0 l 145 718 l 269 718 l 269 0 l 145 0 m 281 878 l 281 1003 l 407 1003 l 406 878 l 281 878 m 10 878 l 11 1003 l 137 1003 l 136 878 l 10 878 z "},"ị":{"ha":344,"x_min":106,"x_max":238,"o":"m 110 0 l 110 718 l 234 718 l 234 0 l 110 0 m 106 870 l 106 1003 l 238 1003 l 238 870 l 106 870 m 107 -249 l 107 -125 l 237 -125 l 237 -249 l 107 -249 z "},"ì":{"ha":336,"x_min":-18,"x_max":230,"o":"m 106 0 l 106 718 l 230 718 l 230 0 l 106 0 m 124 802 l -18 1004 l 123 1004 l 216 803 l 124 802 z "},"ỉ":{"ha":336,"x_min":74,"x_max":308,"o":"m 106 0 l 106 718 l 230 718 l 230 0 l 106 0 m 210 800 l 173 858 q 215 902 203 877 q 213 951 227 928 q 169 974 199 974 q 112 954 140 973 l 74 1013 q 189 1043 133 1051 q 273 992 244 1036 q 290 888 308 939 q 210 800 272 838 z "},"ȋ":{"ha":392,"x_min":-17,"x_max":403,"o":"m 133 0 l 133 718 l 257 718 l 257 0 l 133 0 m -17 839 q 23 921 -7 888 q 97 972 53 954 q 192 989 141 989 q 290 971 246 989 q 364 919 334 953 q 403 839 394 886 l 311 839 q 267 893 299 872 q 192 914 236 914 q 118 893 148 914 q 76 839 88 872 l -17 839 z "},"ī":{"ha":395,"x_min":-10,"x_max":404,"o":"m 135 0 l 135 718 l 258 718 l 258 0 l 135 0 m -10 858 l -10 948 l 404 948 l 404 858 l -10 858 z "},"į":{"ha":336,"x_min":-6,"x_max":260,"o":"m 106 0 l 106 718 l 230 718 l 230 0 l 106 0 m 103 880 l 103 1004 l 233 1004 l 233 880 l 103 880 m 131 -230 q 29 -200 64 -230 q -6 -120 -6 -171 q 23 -45 -6 -78 q 136 14 53 -12 l 229 6 q 128 -49 159 -24 q 97 -109 97 -75 q 112 -147 97 -134 q 161 -160 127 -160 q 220 -151 194 -160 q 260 -134 246 -142 l 260 -201 q 208 -221 244 -212 q 131 -230 172 -230 z "},"ĩ":{"ha":388,"x_min":-15,"x_max":403,"o":"m 129 0 l 129 718 l 253 718 l 253 0 l 129 0 m 9 847 l -15 923 q 35 960 8 944 q 101 975 61 975 q 165 965 135 975 q 224 946 195 956 q 283 936 253 936 q 338 948 315 936 q 381 975 360 959 l 403 890 q 356 864 385 877 q 283 850 327 850 q 218 859 246 850 q 164 877 190 868 q 106 886 138 886 q 51 875 72 886 q 9 847 31 863 z "},"j":{"ha":365,"x_min":-32,"x_max":258,"o":"m 58 -231 q -16 -222 -1 -231 q -32 -214 -32 -214 l -32 -128 l 39 -125 q 107 -99 88 -122 q 126 -28 126 -77 l 126 718 l 255 718 l 255 -32 q 211 -182 255 -133 q 58 -231 168 -231 m 122 870 l 122 1003 l 258 1003 l 258 870 l 122 870 z "},"ȷ":{"ha":362,"x_min":-32,"x_max":256,"o":"m 58 -231 q -16 -225 0 -231 q -32 -214 -32 -219 l -32 -128 l 40 -125 q 108 -99 88 -122 q 128 -28 128 -77 l 128 718 l 256 718 l 256 -32 q 211 -182 256 -133 q 58 -231 167 -231 z "},"ĵ":{"ha":362,"x_min":-32,"x_max":409,"o":"m 58 -231 q -16 -225 0 -231 q -32 -214 -32 -219 l -32 -128 l 40 -125 q 108 -99 88 -122 q 128 -28 128 -77 l 128 718 l 256 718 l 256 -32 q 211 -182 256 -133 q 58 -231 167 -231 m -28 802 l 147 958 l 238 958 l 409 802 l 288 802 l 191 892 l 86 802 l -28 802 z "},"k":{"ha":780,"x_min":106,"x_max":737,"o":"m 106 0 l 106 1032 l 234 1032 l 234 359 l 572 718 l 719 718 l 460 444 l 737 0 l 601 0 l 376 360 l 234 214 l 234 0 l 106 0 z "},"ķ":{"ha":780,"x_min":106,"x_max":737,"o":"m 106 0 l 106 1032 l 234 1032 l 234 359 l 572 718 l 719 718 l 460 444 l 737 0 l 601 0 l 376 360 l 234 214 l 234 0 l 106 0 m 311 -264 l 368 -178 l 324 -174 l 324 -67 l 454 -67 l 454 -157 l 364 -264 l 311 -264 z "},"ĸ":{"ha":794,"x_min":106,"x_max":751,"o":"m 106 0 l 106 718 l 234 718 l 234 349 l 586 718 l 727 718 l 479 467 l 751 0 l 601 0 l 391 371 l 234 214 l 234 0 l 106 0 z "},"l":{"ha":421,"x_min":106,"x_max":352,"o":"m 288 -9 q 193 7 229 -9 q 139 50 158 23 q 113 112 119 77 q 106 185 106 147 l 106 1032 l 233 1032 l 233 197 q 254 116 233 143 q 313 86 275 89 l 352 85 l 352 2 q 319 -6 336 -3 q 288 -9 301 -9 z "},"ĺ":{"ha":421,"x_min":106,"x_max":399,"o":"m 288 -9 q 193 7 229 -9 q 139 50 158 23 q 113 112 119 77 q 106 185 106 147 l 106 1032 l 233 1032 l 233 197 q 254 116 233 143 q 313 86 275 89 l 352 85 l 352 2 q 319 -6 336 -3 q 288 -9 301 -9 m 110 1144 l 253 1346 l 399 1346 l 210 1144 l 110 1144 z "},"ľ":{"ha":421,"x_min":106,"x_max":428,"o":"m 288 -9 q 193 7 229 -9 q 139 50 158 23 q 113 112 119 77 q 106 185 106 147 l 106 1032 l 233 1032 l 233 197 q 254 116 233 143 q 313 86 275 89 l 352 85 l 352 2 q 319 -6 336 -3 q 288 -9 301 -9 m 307 763 l 360 890 l 322 897 l 322 1032 l 428 1032 l 428 890 l 373 763 l 307 763 z "},"ļ":{"ha":421,"x_min":106,"x_max":352,"o":"m 288 -9 q 193 7 229 -9 q 139 50 158 23 q 113 112 119 77 q 106 185 106 147 l 106 1032 l 233 1032 l 233 197 q 254 116 233 143 q 313 86 275 89 l 352 85 l 352 2 q 319 -6 336 -3 q 288 -9 301 -9 m 105 -263 l 162 -177 l 118 -174 l 118 -67 l 248 -67 l 248 -156 l 158 -263 l 105 -263 z "},"ŀ":{"ha":487,"x_min":106,"x_max":492,"o":"m 288 -9 q 193 7 229 -9 q 139 50 158 23 q 113 112 119 77 q 106 185 106 147 l 106 1032 l 233 1032 l 233 197 q 254 116 233 143 q 313 86 275 89 l 352 85 l 352 2 q 319 -6 336 -3 q 288 -9 301 -9 m 333 461 l 333 615 l 492 615 l 492 461 l 333 461 z "},"ł":{"ha":490,"x_min":49,"x_max":410,"o":"m 49 223 l 49 341 l 410 633 l 410 520 l 49 223 m 340 -9 q 246 7 282 -9 q 191 50 210 23 q 165 112 172 77 q 158 185 158 147 l 158 1032 l 285 1032 l 285 197 q 306 116 285 143 q 365 86 327 89 l 404 85 l 404 2 q 371 -6 388 -3 q 340 -9 353 -9 z "},"m":{"ha":1201,"x_min":106,"x_max":1107,"o":"m 106 0 l 106 718 l 230 718 l 230 614 q 312 697 260 661 q 447 732 364 732 q 527 719 486 732 q 601 679 567 706 q 654 615 635 653 q 744 700 688 667 q 873 732 801 732 q 951 720 910 732 q 1027 680 992 709 q 1085 600 1063 651 q 1107 469 1107 549 l 1107 0 l 978 0 l 978 457 q 957 558 978 522 q 902 608 936 594 q 831 623 869 623 q 760 610 797 623 q 696 565 722 597 q 669 480 669 534 l 669 0 l 542 0 l 542 494 q 519 565 542 537 q 463 608 497 594 q 396 623 429 623 q 322 608 359 623 q 259 562 285 594 q 234 480 234 531 l 234 0 l 106 0 z "},"n":{"ha":801,"x_min":106,"x_max":707,"o":"m 106 0 l 106 718 l 231 718 l 231 614 q 279 670 248 644 q 354 713 310 697 q 456 728 398 728 q 581 701 524 728 q 673 617 638 674 q 707 469 707 560 l 707 0 l 578 0 l 578 457 q 534 582 578 541 q 420 622 490 622 q 329 607 372 622 q 260 559 287 591 q 234 480 234 528 l 234 0 l 106 0 z "},"ń":{"ha":801,"x_min":106,"x_max":707,"o":"m 106 0 l 106 718 l 231 718 l 231 614 q 279 670 248 644 q 354 713 310 697 q 456 728 398 728 q 581 701 524 728 q 673 617 638 674 q 707 469 707 560 l 707 0 l 578 0 l 578 457 q 534 582 578 541 q 420 622 490 622 q 329 607 372 622 q 260 559 287 591 q 234 480 234 528 l 234 0 l 106 0 m 359 802 l 502 1004 l 648 1004 l 458 802 l 359 802 z "},"ň":{"ha":801,"x_min":106,"x_max":707,"o":"m 106 0 l 106 718 l 231 718 l 231 614 q 279 670 248 644 q 354 713 310 697 q 456 728 398 728 q 581 701 524 728 q 673 617 638 674 q 707 469 707 560 l 707 0 l 578 0 l 578 457 q 534 582 578 541 q 420 622 490 622 q 329 607 372 622 q 260 559 287 591 q 234 480 234 528 l 234 0 l 106 0 m 370 802 l 195 958 l 310 958 l 415 865 l 513 958 l 633 958 l 463 802 l 370 802 z "},"ņ":{"ha":801,"x_min":106,"x_max":707,"o":"m 106 0 l 106 718 l 231 718 l 231 614 q 279 670 248 644 q 354 713 310 697 q 456 728 398 728 q 581 701 524 728 q 673 617 638 674 q 707 469 707 560 l 707 0 l 578 0 l 578 457 q 534 582 578 541 q 420 622 490 622 q 329 607 372 622 q 260 559 287 591 q 234 480 234 528 l 234 0 l 106 0 m 331 -264 l 388 -178 l 344 -174 l 344 -67 l 474 -67 l 474 -157 l 383 -264 l 331 -264 z "},"ṅ":{"ha":801,"x_min":106,"x_max":707,"o":"m 106 0 l 106 718 l 231 718 l 231 614 q 279 670 248 644 q 354 713 310 697 q 456 728 398 728 q 581 701 524 728 q 673 617 638 674 q 707 469 707 560 l 707 0 l 578 0 l 578 457 q 534 582 578 541 q 420 622 490 622 q 329 607 372 622 q 260 559 287 591 q 234 480 234 528 l 234 0 l 106 0 m 350 880 l 350 1004 l 480 1004 l 480 880 l 350 880 z "},"ŋ":{"ha":813,"x_min":106,"x_max":708,"o":"m 512 -231 q 444 -226 457 -231 q 431 -216 431 -222 l 431 -130 l 491 -128 q 558 -102 538 -124 q 578 -29 578 -81 l 578 493 q 547 594 578 556 q 442 633 515 633 q 336 604 388 633 q 235 525 285 575 l 235 0 l 106 0 l 108 718 l 231 718 l 231 608 q 323 680 281 653 q 405 719 365 707 q 490 732 445 732 q 650 675 592 732 q 708 525 708 618 l 708 -23 q 685 -135 708 -88 q 619 -206 663 -181 q 512 -231 575 -231 z "},"ñ":{"ha":801,"x_min":106,"x_max":707,"o":"m 106 0 l 106 718 l 231 718 l 231 614 q 279 670 248 644 q 354 713 310 697 q 456 728 398 728 q 581 701 524 728 q 673 617 638 674 q 707 469 707 560 l 707 0 l 578 0 l 578 457 q 534 582 578 541 q 420 622 490 622 q 329 607 372 622 q 260 559 287 591 q 234 480 234 528 l 234 0 l 106 0 m 233 847 l 208 923 q 258 960 232 944 q 324 975 285 975 q 389 965 358 975 q 448 946 419 956 q 507 936 476 936 q 561 948 538 936 q 604 975 584 959 l 626 890 q 580 864 608 877 q 507 850 551 850 q 442 859 469 850 q 388 877 414 868 q 330 886 362 886 q 275 875 296 886 q 233 847 254 863 z "},"o":{"ha":785,"x_min":65,"x_max":721,"o":"m 394 -14 q 220 29 294 -14 q 106 154 147 72 q 65 356 65 237 q 103 553 65 469 q 215 685 141 638 q 394 732 288 732 q 567 689 494 732 q 680 561 640 645 q 721 356 721 477 q 683 163 721 247 q 573 33 646 80 q 394 -14 501 -14 m 394 88 q 503 120 458 88 q 570 214 547 153 q 594 359 594 275 q 573 498 594 436 q 509 595 553 559 q 394 631 465 631 q 284 599 329 631 q 216 506 239 567 q 192 359 192 444 q 213 222 192 283 q 278 124 233 160 q 394 88 323 88 z "},"ó":{"ha":785,"x_min":65,"x_max":721,"o":"m 394 -14 q 220 29 294 -14 q 106 154 147 72 q 65 356 65 237 q 103 553 65 469 q 215 685 141 638 q 394 732 288 732 q 567 689 494 732 q 680 561 640 645 q 721 356 721 477 q 683 163 721 247 q 573 33 646 80 q 394 -14 501 -14 m 394 88 q 503 120 458 88 q 570 214 547 153 q 594 359 594 275 q 573 498 594 436 q 509 595 553 559 q 394 631 465 631 q 284 599 329 631 q 216 506 239 567 q 192 359 192 444 q 213 222 192 283 q 278 124 233 160 q 394 88 323 88 m 337 802 l 480 1004 l 626 1004 l 436 802 l 337 802 z "},"ŏ":{"ha":785,"x_min":65,"x_max":721,"o":"m 394 -14 q 220 29 294 -14 q 106 154 147 72 q 65 356 65 237 q 103 553 65 469 q 215 685 141 638 q 394 732 288 732 q 567 689 494 732 q 680 561 640 645 q 721 356 721 477 q 683 163 721 247 q 573 33 646 80 q 394 -14 501 -14 m 394 88 q 503 120 458 88 q 570 214 547 153 q 594 359 594 275 q 573 498 594 436 q 509 595 553 559 q 394 631 465 631 q 284 599 329 631 q 216 506 239 567 q 192 359 192 444 q 213 222 192 283 q 278 124 233 160 q 394 88 323 88 m 392 800 q 297 817 341 800 q 224 868 253 835 q 183 951 194 902 l 276 951 q 318 896 288 917 q 392 875 348 875 q 468 896 436 875 q 511 951 499 917 l 604 951 q 564 870 593 903 q 490 818 534 836 q 392 800 446 800 z "},"ô":{"ha":785,"x_min":65,"x_max":721,"o":"m 394 -14 q 220 29 294 -14 q 106 154 147 72 q 65 356 65 237 q 103 553 65 469 q 215 685 141 638 q 394 732 288 732 q 567 689 494 732 q 680 561 640 645 q 721 356 721 477 q 683 163 721 247 q 573 33 646 80 q 394 -14 501 -14 m 394 88 q 503 120 458 88 q 570 214 547 153 q 594 359 594 275 q 573 498 594 436 q 509 595 553 559 q 394 631 465 631 q 284 599 329 631 q 216 506 239 567 q 192 359 192 444 q 213 222 192 283 q 278 124 233 160 q 394 88 323 88 m 174 802 l 349 958 l 440 958 l 611 802 l 490 802 l 393 892 l 288 802 l 174 802 z "},"ố":{"ha":785,"x_min":65,"x_max":742,"o":"m 394 -14 q 220 29 294 -14 q 106 154 147 72 q 65 356 65 237 q 103 553 65 469 q 215 685 141 638 q 394 732 288 732 q 567 689 494 732 q 680 561 640 645 q 721 356 721 477 q 683 163 721 247 q 573 33 646 80 q 394 -14 501 -14 m 394 88 q 503 120 458 88 q 570 214 547 153 q 594 359 594 275 q 573 498 594 436 q 509 595 553 559 q 394 631 465 631 q 284 599 329 631 q 216 506 239 567 q 192 359 192 444 q 213 222 192 283 q 278 124 233 160 q 394 88 323 88 m 174 802 l 349 958 l 440 958 l 611 802 l 490 802 l 393 892 l 288 802 l 174 802 m 521 956 l 622 1124 l 742 1124 l 603 956 l 521 956 z "},"ộ":{"ha":785,"x_min":65,"x_max":721,"o":"m 394 -14 q 220 29 294 -14 q 106 154 147 72 q 65 356 65 237 q 103 553 65 469 q 215 685 141 638 q 394 732 288 732 q 567 689 494 732 q 680 561 640 645 q 721 356 721 477 q 683 163 721 247 q 573 33 646 80 q 394 -14 501 -14 m 394 88 q 503 120 458 88 q 570 214 547 153 q 594 359 594 275 q 573 498 594 436 q 509 595 553 559 q 394 631 465 631 q 284 599 329 631 q 216 506 239 567 q 192 359 192 444 q 213 222 192 283 q 278 124 233 160 q 394 88 323 88 m 328 -249 l 328 -125 l 458 -125 l 458 -249 l 328 -249 m 174 802 l 349 958 l 440 958 l 611 802 l 490 802 l 393 892 l 288 802 l 174 802 z "},"ồ":{"ha":785,"x_min":65,"x_max":721,"o":"m 394 -14 q 220 29 294 -14 q 106 154 147 72 q 65 356 65 237 q 103 553 65 469 q 215 685 141 638 q 394 732 288 732 q 567 689 494 732 q 680 561 640 645 q 721 356 721 477 q 683 163 721 247 q 573 33 646 80 q 394 -14 501 -14 m 394 88 q 503 120 458 88 q 570 214 547 153 q 594 359 594 275 q 573 498 594 436 q 509 595 553 559 q 394 631 465 631 q 284 599 329 631 q 216 506 239 567 q 192 359 192 444 q 213 222 192 283 q 278 124 233 160 q 394 88 323 88 m 174 802 l 349 958 l 440 958 l 611 802 l 490 802 l 393 892 l 288 802 l 174 802 m 589 956 l 442 1124 l 563 1124 l 673 956 l 589 956 z "},"ổ":{"ha":785,"x_min":65,"x_max":721,"o":"m 394 -14 q 220 29 294 -14 q 106 154 147 72 q 65 356 65 237 q 103 553 65 469 q 215 685 141 638 q 394 732 288 732 q 567 689 494 732 q 680 561 640 645 q 721 356 721 477 q 683 163 721 247 q 573 33 646 80 q 394 -14 501 -14 m 394 88 q 503 120 458 88 q 570 214 547 153 q 594 359 594 275 q 573 498 594 436 q 509 595 553 559 q 394 631 465 631 q 284 599 329 631 q 216 506 239 567 q 192 359 192 444 q 213 222 192 283 q 278 124 233 160 q 394 88 323 88 m 177 802 l 351 958 l 443 958 l 614 802 l 493 802 l 396 892 l 291 802 l 177 802 m 558 924 l 519 982 q 561 1026 549 1001 q 559 1075 574 1051 q 516 1097 545 1097 q 458 1078 487 1097 l 421 1136 q 535 1167 480 1174 q 620 1115 591 1160 q 637 1012 654 1063 q 558 924 619 961 z "},"ỗ":{"ha":785,"x_min":65,"x_max":721,"o":"m 394 -14 q 220 29 294 -14 q 106 154 147 72 q 65 356 65 237 q 103 553 65 469 q 215 685 141 638 q 394 732 288 732 q 567 689 494 732 q 680 561 640 645 q 721 356 721 477 q 683 163 721 247 q 573 33 646 80 q 394 -14 501 -14 m 394 88 q 503 120 458 88 q 570 214 547 153 q 594 359 594 275 q 573 498 594 436 q 509 595 553 559 q 394 631 465 631 q 284 599 329 631 q 216 506 239 567 q 192 359 192 444 q 213 222 192 283 q 278 124 233 160 q 394 88 323 88 m 175 802 l 349 958 l 441 958 l 612 802 l 491 802 l 394 892 l 289 802 l 175 802 m 209 1033 l 185 1110 q 234 1146 208 1131 q 300 1161 260 1161 q 365 1152 335 1161 q 424 1133 395 1142 q 483 1123 453 1123 q 537 1134 515 1123 q 581 1161 560 1146 l 603 1077 q 556 1050 585 1064 q 483 1037 527 1037 q 418 1046 446 1037 q 364 1064 390 1055 q 306 1072 338 1072 q 251 1061 272 1072 q 209 1033 231 1050 z "},"ȍ":{"ha":785,"x_min":44,"x_max":721,"o":"m 394 -14 q 220 29 294 -14 q 106 154 147 72 q 65 356 65 237 q 103 553 65 469 q 215 685 141 638 q 394 732 288 732 q 567 689 494 732 q 680 561 640 645 q 721 356 721 477 q 683 163 721 247 q 573 33 646 80 q 394 -14 501 -14 m 394 88 q 503 120 458 88 q 570 214 547 153 q 594 359 594 275 q 573 498 594 436 q 509 595 553 559 q 394 631 465 631 q 284 599 329 631 q 216 506 239 567 q 192 359 192 444 q 213 222 192 283 q 278 124 233 160 q 394 88 323 88 m 246 802 l 44 1004 l 181 1004 l 345 802 l 246 802 m 440 802 l 269 1004 l 403 1004 l 539 802 l 440 802 z "},"ö":{"ha":785,"x_min":65,"x_max":721,"o":"m 394 -14 q 220 29 294 -14 q 106 154 147 72 q 65 356 65 237 q 103 553 65 469 q 215 685 141 638 q 394 732 288 732 q 567 689 494 732 q 680 561 640 645 q 721 356 721 477 q 683 163 721 247 q 573 33 646 80 q 394 -14 501 -14 m 394 88 q 503 120 458 88 q 570 214 547 153 q 594 359 594 275 q 573 498 594 436 q 509 595 553 559 q 394 631 465 631 q 284 599 329 631 q 216 506 239 567 q 192 359 192 444 q 213 222 192 283 q 278 124 233 160 q 394 88 323 88 m 465 880 l 466 1004 l 592 1004 l 591 880 l 465 880 m 195 880 l 196 1004 l 322 1004 l 321 880 l 195 880 z "},"ọ":{"ha":785,"x_min":65,"x_max":721,"o":"m 394 -14 q 220 29 294 -14 q 106 154 147 72 q 65 356 65 237 q 103 553 65 469 q 215 685 141 638 q 394 732 288 732 q 567 689 494 732 q 680 561 640 645 q 721 356 721 477 q 683 163 721 247 q 573 33 646 80 q 394 -14 501 -14 m 394 88 q 503 120 458 88 q 570 214 547 153 q 594 359 594 275 q 573 498 594 436 q 509 595 553 559 q 394 631 465 631 q 284 599 329 631 q 216 506 239 567 q 192 359 192 444 q 213 222 192 283 q 278 124 233 160 q 394 88 323 88 m 328 -249 l 328 -125 l 458 -125 l 458 -249 l 328 -249 z "},"ò":{"ha":785,"x_min":65,"x_max":721,"o":"m 394 -14 q 220 29 294 -14 q 106 154 147 72 q 65 356 65 237 q 103 553 65 469 q 215 685 141 638 q 394 732 288 732 q 567 689 494 732 q 680 561 640 645 q 721 356 721 477 q 683 163 721 247 q 573 33 646 80 q 394 -14 501 -14 m 394 88 q 503 120 458 88 q 570 214 547 153 q 594 359 594 275 q 573 498 594 436 q 509 595 553 559 q 394 631 465 631 q 284 599 329 631 q 216 506 239 567 q 192 359 192 444 q 213 222 192 283 q 278 124 233 160 q 394 88 323 88 m 347 802 l 157 1004 l 303 1004 l 447 802 l 347 802 z "},"ỏ":{"ha":785,"x_min":65,"x_max":721,"o":"m 394 -14 q 220 29 294 -14 q 106 154 147 72 q 65 356 65 237 q 103 553 65 469 q 215 685 141 638 q 394 732 288 732 q 567 689 494 732 q 680 561 640 645 q 721 356 721 477 q 683 163 721 247 q 573 33 646 80 q 394 -14 501 -14 m 394 88 q 503 120 458 88 q 570 214 547 153 q 594 359 594 275 q 573 498 594 436 q 509 595 553 559 q 394 631 465 631 q 284 599 329 631 q 216 506 239 567 q 192 359 192 444 q 213 222 192 283 q 278 124 233 160 q 394 88 323 88 m 435 800 l 397 858 q 439 902 427 877 q 437 951 451 928 q 393 974 423 974 q 336 954 364 973 l 298 1013 q 413 1043 357 1051 q 497 992 469 1036 q 514 888 532 939 q 435 800 497 838 z "},"ơ":{"ha":835,"x_min":65,"x_max":824,"o":"m 394 -14 q 220 29 294 -14 q 106 154 147 72 q 65 356 65 237 q 103 553 65 469 q 215 685 141 638 q 394 732 288 732 q 529 707 469 732 q 631 635 589 683 q 681 650 663 638 q 710 690 700 661 q 722 773 719 719 l 824 773 q 810 660 824 706 q 764 590 796 615 q 678 560 731 565 q 721 356 721 478 q 683 163 721 247 q 573 33 646 80 q 394 -14 501 -14 m 394 88 q 503 120 458 88 q 570 214 547 153 q 594 359 594 275 q 573 498 594 436 q 509 595 553 559 q 394 631 465 631 q 284 599 329 631 q 216 506 239 567 q 192 359 192 444 q 213 222 192 283 q 278 124 233 160 q 394 88 323 88 z "},"ớ":{"ha":835,"x_min":65,"x_max":824,"o":"m 342 802 l 485 1004 l 631 1004 l 441 802 l 342 802 m 394 -14 q 220 29 294 -14 q 106 154 147 72 q 65 356 65 237 q 103 553 65 469 q 215 685 141 638 q 394 732 288 732 q 529 707 469 732 q 631 635 589 683 q 681 650 663 638 q 710 690 700 661 q 722 773 719 719 l 824 773 q 810 660 824 706 q 764 590 796 615 q 678 560 731 565 q 721 356 721 478 q 683 163 721 247 q 573 33 646 80 q 394 -14 501 -14 m 394 88 q 503 120 458 88 q 570 214 547 153 q 594 359 594 275 q 573 498 594 436 q 509 595 553 559 q 394 631 465 631 q 284 599 329 631 q 216 506 239 567 q 192 359 192 444 q 213 222 192 283 q 278 124 233 160 q 394 88 323 88 z "},"ợ":{"ha":835,"x_min":65,"x_max":824,"o":"m 316 -249 l 316 -125 l 446 -125 l 446 -249 l 316 -249 m 394 -14 q 220 29 294 -14 q 106 154 147 72 q 65 356 65 237 q 103 553 65 469 q 215 685 141 638 q 394 732 288 732 q 529 707 469 732 q 631 635 589 683 q 681 650 663 638 q 710 690 700 661 q 722 773 719 719 l 824 773 q 810 660 824 706 q 764 590 796 615 q 678 560 731 565 q 721 356 721 478 q 683 163 721 247 q 573 33 646 80 q 394 -14 501 -14 m 394 88 q 503 120 458 88 q 570 214 547 153 q 594 359 594 275 q 573 498 594 436 q 509 595 553 559 q 394 631 465 631 q 284 599 329 631 q 216 506 239 567 q 192 359 192 444 q 213 222 192 283 q 278 124 233 160 q 394 88 323 88 z "},"ờ":{"ha":835,"x_min":65,"x_max":824,"o":"m 340 802 l 149 1004 l 296 1004 l 439 802 l 340 802 m 394 -14 q 220 29 294 -14 q 106 154 147 72 q 65 356 65 237 q 103 553 65 469 q 215 685 141 638 q 394 732 288 732 q 529 707 469 732 q 631 635 589 683 q 681 650 663 638 q 710 690 700 661 q 722 773 719 719 l 824 773 q 810 660 824 706 q 764 590 796 615 q 678 560 731 565 q 721 356 721 478 q 683 163 721 247 q 573 33 646 80 q 394 -14 501 -14 m 394 88 q 503 120 458 88 q 570 214 547 153 q 594 359 594 275 q 573 498 594 436 q 509 595 553 559 q 394 631 465 631 q 284 599 329 631 q 216 506 239 567 q 192 359 192 444 q 213 222 192 283 q 278 124 233 160 q 394 88 323 88 z "},"ở":{"ha":835,"x_min":65,"x_max":824,"o":"m 431 800 l 394 858 q 436 902 424 877 q 433 951 448 928 q 390 974 419 974 q 333 954 360 973 l 294 1013 q 409 1043 353 1051 q 494 992 465 1036 q 511 888 528 939 q 431 800 493 838 m 394 -14 q 220 29 294 -14 q 106 154 147 72 q 65 356 65 237 q 103 553 65 469 q 215 685 141 638 q 394 732 288 732 q 529 707 469 732 q 631 635 589 683 q 681 650 663 638 q 710 690 700 661 q 722 773 719 719 l 824 773 q 810 660 824 706 q 764 590 796 615 q 678 560 731 565 q 721 356 721 478 q 683 163 721 247 q 573 33 646 80 q 394 -14 501 -14 m 394 88 q 503 120 458 88 q 570 214 547 153 q 594 359 594 275 q 573 498 594 436 q 509 595 553 559 q 394 631 465 631 q 284 599 329 631 q 216 506 239 567 q 192 359 192 444 q 213 222 192 283 q 278 124 233 160 q 394 88 323 88 z "},"ỡ":{"ha":835,"x_min":65,"x_max":824,"o":"m 208 847 l 183 923 q 233 960 207 944 q 299 975 260 975 q 364 965 333 975 q 423 946 394 956 q 482 936 451 936 q 536 948 513 936 q 579 975 559 959 l 601 890 q 555 864 583 877 q 482 850 526 850 q 417 859 444 850 q 363 877 389 868 q 305 886 337 886 q 250 875 271 886 q 208 847 229 863 m 394 -14 q 220 29 294 -14 q 106 154 147 72 q 65 356 65 237 q 103 553 65 469 q 215 685 141 638 q 394 732 288 732 q 529 707 469 732 q 631 635 589 683 q 681 650 663 638 q 710 690 700 661 q 722 773 719 719 l 824 773 q 810 660 824 706 q 764 590 796 615 q 678 560 731 565 q 721 356 721 478 q 683 163 721 247 q 573 33 646 80 q 394 -14 501 -14 m 394 88 q 503 120 458 88 q 570 214 547 153 q 594 359 594 275 q 573 498 594 436 q 509 595 553 559 q 394 631 465 631 q 284 599 329 631 q 216 506 239 567 q 192 359 192 444 q 213 222 192 283 q 278 124 233 160 q 394 88 323 88 z "},"ő":{"ha":785,"x_min":65,"x_max":745,"o":"m 394 -14 q 220 29 294 -14 q 106 154 147 72 q 65 356 65 237 q 103 553 65 469 q 215 685 141 638 q 394 732 288 732 q 567 689 494 732 q 680 561 640 645 q 721 356 721 477 q 683 163 721 247 q 573 33 646 80 q 394 -14 501 -14 m 394 88 q 503 120 458 88 q 570 214 547 153 q 594 359 594 275 q 573 498 594 436 q 509 595 553 559 q 394 631 465 631 q 284 599 329 631 q 216 506 239 567 q 192 359 192 444 q 213 222 192 283 q 278 124 233 160 q 394 88 323 88 m 444 802 l 608 1004 l 745 1004 l 542 802 l 444 802 m 250 802 l 386 1004 l 520 1004 l 349 802 l 250 802 z "},"ȏ":{"ha":785,"x_min":65,"x_max":721,"o":"m 394 -14 q 220 29 294 -14 q 106 154 147 72 q 65 356 65 237 q 103 553 65 469 q 215 685 141 638 q 394 732 288 732 q 567 689 494 732 q 680 561 640 645 q 721 356 721 477 q 683 163 721 247 q 573 33 646 80 q 394 -14 501 -14 m 394 88 q 503 120 458 88 q 570 214 547 153 q 594 359 594 275 q 573 498 594 436 q 509 595 553 559 q 394 631 465 631 q 284 599 329 631 q 216 506 239 567 q 192 359 192 444 q 213 222 192 283 q 278 124 233 160 q 394 88 323 88 m 180 839 q 220 921 190 888 q 294 972 251 954 q 389 989 338 989 q 487 971 443 989 q 561 919 531 953 q 601 839 591 886 l 508 839 q 465 893 496 872 q 389 914 433 914 q 315 893 345 914 q 273 839 285 872 l 180 839 z "},"ō":{"ha":785,"x_min":65,"x_max":721,"o":"m 394 -14 q 220 29 294 -14 q 106 154 147 72 q 65 356 65 237 q 103 553 65 469 q 215 685 141 638 q 394 732 288 732 q 567 689 494 732 q 680 561 640 645 q 721 356 721 477 q 683 163 721 247 q 573 33 646 80 q 394 -14 501 -14 m 394 88 q 503 120 458 88 q 570 214 547 153 q 594 359 594 275 q 573 498 594 436 q 509 595 553 559 q 394 631 465 631 q 284 599 329 631 q 216 506 239 567 q 192 359 192 444 q 213 222 192 283 q 278 124 233 160 q 394 88 323 88 m 185 858 l 185 948 l 600 948 l 600 858 l 185 858 z "},"ǫ":{"ha":785,"x_min":65,"x_max":721,"o":"m 417 -230 q 315 -200 349 -230 q 280 -120 280 -171 q 309 -45 280 -78 q 422 14 338 -12 l 515 6 q 414 -49 445 -24 q 383 -109 383 -75 q 398 -147 383 -134 q 447 -160 413 -160 q 506 -151 480 -160 q 547 -134 532 -142 l 547 -201 q 494 -220 529 -211 q 417 -230 458 -230 m 394 -14 q 220 29 294 -14 q 106 154 147 72 q 65 356 65 237 q 103 553 65 469 q 215 685 141 638 q 394 732 288 732 q 567 689 494 732 q 680 561 640 645 q 721 356 721 477 q 683 163 721 247 q 573 33 646 80 q 394 -14 501 -14 m 394 88 q 503 120 458 88 q 570 214 547 153 q 594 359 594 275 q 573 498 594 436 q 509 595 553 559 q 394 631 465 631 q 284 599 329 631 q 216 506 239 567 q 192 359 192 444 q 213 222 192 283 q 278 124 233 160 q 394 88 323 88 z "},"ø":{"ha":814,"x_min":28,"x_max":781,"o":"m 81 -8 l 28 47 l 729 724 l 781 669 l 81 -8 m 408 -14 q 234 29 308 -14 q 119 154 160 72 q 78 356 78 237 q 116 553 78 469 q 228 685 154 638 q 408 732 302 732 q 580 689 507 732 q 694 561 653 645 q 734 356 734 477 q 697 163 734 247 q 587 33 660 80 q 408 -14 515 -14 m 408 88 q 517 120 472 88 q 584 214 561 153 q 607 359 607 275 q 587 498 607 436 q 523 595 567 559 q 408 631 478 631 q 297 599 342 631 q 229 506 252 567 q 206 359 206 444 q 226 222 206 283 q 292 124 247 160 q 408 88 336 88 z "},"ǿ":{"ha":814,"x_min":28,"x_max":781,"o":"m 81 -8 l 28 47 l 729 724 l 781 669 l 81 -8 m 408 -14 q 234 29 308 -14 q 119 154 160 72 q 78 356 78 237 q 116 553 78 469 q 228 685 154 638 q 408 732 302 732 q 580 689 507 732 q 694 561 653 645 q 734 356 734 477 q 697 163 734 247 q 587 33 660 80 q 408 -14 515 -14 m 408 88 q 517 120 472 88 q 584 214 561 153 q 607 359 607 275 q 587 498 607 436 q 523 595 567 559 q 408 631 478 631 q 297 599 342 631 q 229 506 252 567 q 206 359 206 444 q 226 222 206 283 q 292 124 247 160 q 408 88 336 88 m 349 802 l 492 1004 l 638 1004 l 449 802 l 349 802 z "},"õ":{"ha":785,"x_min":65,"x_max":721,"o":"m 394 -14 q 220 29 294 -14 q 106 154 147 72 q 65 356 65 237 q 103 553 65 469 q 215 685 141 638 q 394 732 288 732 q 567 689 494 732 q 680 561 640 645 q 721 356 721 477 q 683 163 721 247 q 573 33 646 80 q 394 -14 501 -14 m 394 88 q 503 120 458 88 q 570 214 547 153 q 594 359 594 275 q 573 498 594 436 q 509 595 553 559 q 394 631 465 631 q 284 599 329 631 q 216 506 239 567 q 192 359 192 444 q 213 222 192 283 q 278 124 233 160 q 394 88 323 88 m 210 847 l 186 923 q 236 960 210 944 q 302 975 263 975 q 366 965 336 975 q 425 946 397 956 q 485 936 454 936 q 539 948 516 936 q 582 975 562 959 l 604 890 q 557 864 586 877 q 485 850 528 850 q 419 859 447 850 q 366 877 392 868 q 308 886 340 886 q 253 875 274 886 q 210 847 232 863 z "},"œ":{"ha":1317,"x_min":65,"x_max":1244,"o":"m 1244 376 l 1244 329 l 730 329 q 752 206 730 261 q 821 118 775 151 q 937 85 867 85 q 1055 117 1006 85 q 1119 210 1105 149 l 1240 210 q 1182 87 1227 137 q 1073 11 1137 37 q 940 -14 1009 -14 q 773 28 845 -14 q 662 147 701 69 q 560 29 626 72 q 394 -14 493 -14 q 220 29 294 -14 q 106 154 147 72 q 65 356 65 237 q 103 553 65 469 q 215 685 141 638 q 394 732 288 732 q 556 692 487 732 q 663 570 625 651 q 767 690 699 647 q 930 732 835 732 q 1101 688 1031 732 q 1208 565 1172 644 q 1244 376 1244 485 m 394 88 q 503 120 458 88 q 570 214 547 153 q 594 359 594 275 q 573 498 594 436 q 509 595 553 559 q 394 631 465 631 q 284 599 329 631 q 216 506 239 567 q 192 359 192 444 q 213 222 192 283 q 278 124 233 160 q 394 88 323 88 m 731 416 l 1121 416 q 1100 527 1121 478 q 1036 606 1079 577 q 929 635 994 635 q 818 602 862 635 q 752 520 774 570 q 731 416 730 469 z "},"p":{"ha":827,"x_min":106,"x_max":763,"o":"m 106 -224 l 106 718 l 234 718 l 235 593 q 268 640 248 615 q 316 685 288 664 q 384 719 345 706 q 472 732 422 732 q 623 693 558 732 q 726 573 689 653 q 763 369 763 492 q 727 160 763 245 q 624 31 691 75 q 461 -14 556 -14 q 376 0 413 -14 q 311 35 339 13 q 266 82 284 57 q 235 130 247 107 l 235 -224 l 106 -224 m 437 86 q 582 154 526 86 q 638 365 638 222 q 587 560 638 488 q 437 632 535 632 q 285 558 337 632 q 234 365 234 484 q 257 224 234 288 q 325 124 280 161 q 437 86 370 86 z "},"þ":{"ha":819,"x_min":106,"x_max":754,"o":"m 106 -224 l 106 1004 l 233 1004 l 233 619 q 278 665 250 638 q 350 712 306 692 q 460 732 394 732 q 610 692 543 732 q 715 572 676 652 q 754 369 754 491 q 715 160 754 246 q 607 31 676 75 q 447 -14 538 -14 q 338 6 385 -14 q 256 55 290 25 q 239 64 243 66 q 234 46 234 63 l 234 -224 l 106 -224 m 408 76 q 520 109 472 76 q 595 206 568 141 q 623 367 623 270 q 595 525 623 465 q 519 613 567 585 q 415 641 472 641 q 321 618 362 641 q 257 561 281 595 q 234 492 234 526 l 234 163 q 315 100 272 124 q 408 76 357 76 z "},"q":{"ha":827,"x_min":65,"x_max":722,"o":"m 592 -224 l 592 130 q 562 82 581 107 q 516 35 543 57 q 451 0 488 13 q 366 -14 414 -14 q 211 26 279 -14 q 104 151 143 66 q 65 369 65 235 q 98 565 65 483 q 197 689 132 646 q 356 732 262 732 q 443 719 405 732 q 511 685 482 706 q 559 640 540 664 q 592 593 579 615 l 593 718 l 722 718 l 722 -224 l 592 -224 m 390 86 q 502 124 457 86 q 570 224 547 161 q 593 365 593 288 q 542 558 593 484 q 390 632 491 632 q 245 566 302 632 q 189 365 189 500 q 241 160 189 235 q 390 86 292 86 z "},"r":{"ha":543,"x_min":106,"x_max":496,"o":"m 106 0 l 106 718 l 228 718 l 228 580 q 279 665 247 631 q 354 715 312 699 q 441 732 396 732 q 472 730 457 732 q 496 723 488 728 l 496 599 q 469 605 485 603 q 442 607 453 607 q 361 602 399 610 q 295 574 324 594 q 250 523 267 555 q 234 447 234 492 l 234 0 l 106 0 z "},"ŕ":{"ha":543,"x_min":106,"x_max":526,"o":"m 106 0 l 106 718 l 228 718 l 228 580 q 279 665 247 631 q 354 715 312 699 q 441 732 396 732 q 472 730 457 732 q 496 723 488 728 l 496 599 q 469 605 485 603 q 442 607 453 607 q 361 602 399 610 q 295 574 324 594 q 250 523 267 555 q 234 447 234 492 l 234 0 l 106 0 m 238 802 l 381 1004 l 526 1004 l 337 802 l 238 802 z "},"ř":{"ha":543,"x_min":73,"x_max":511,"o":"m 106 0 l 106 718 l 228 718 l 228 580 q 279 665 247 631 q 354 715 312 699 q 441 732 396 732 q 472 730 457 732 q 496 723 488 728 l 496 599 q 469 605 485 603 q 442 607 453 607 q 361 602 399 610 q 295 574 324 594 q 250 523 267 555 q 234 447 234 492 l 234 0 l 106 0 m 248 802 l 73 958 l 188 958 l 293 865 l 390 958 l 511 958 l 340 802 l 248 802 z "},"ŗ":{"ha":543,"x_min":92,"x_max":496,"o":"m 106 0 l 106 718 l 228 718 l 228 580 q 279 665 247 631 q 354 715 312 699 q 441 732 396 732 q 472 730 457 732 q 496 723 488 728 l 496 599 q 469 605 485 603 q 442 607 453 607 q 361 602 399 610 q 295 574 324 594 q 250 523 267 555 q 234 447 234 492 l 234 0 l 106 0 m 92 -264 l 149 -178 l 106 -174 l 106 -67 l 235 -67 l 235 -157 l 145 -264 l 92 -264 z "},"ȑ":{"ha":543,"x_min":-56,"x_max":496,"o":"m 106 0 l 106 718 l 228 718 l 228 580 q 279 665 247 631 q 354 715 312 699 q 441 732 396 732 q 472 730 457 732 q 496 723 488 728 l 496 599 q 469 605 485 603 q 442 607 453 607 q 361 602 399 610 q 295 574 324 594 q 250 523 267 555 q 234 447 234 492 l 234 0 l 106 0 m 146 802 l -56 1004 l 81 1004 l 245 802 l 146 802 m 340 802 l 169 1004 l 303 1004 l 439 802 l 340 802 z "},"ṛ":{"ha":543,"x_min":104,"x_max":496,"o":"m 106 0 l 106 718 l 228 718 l 228 580 q 279 665 247 631 q 354 715 312 699 q 441 732 396 732 q 472 730 457 732 q 496 723 488 728 l 496 599 q 469 605 485 603 q 442 607 453 607 q 361 602 399 610 q 295 574 324 594 q 250 523 267 555 q 234 447 234 492 l 234 0 l 106 0 m 104 -249 l 104 -125 l 234 -125 l 234 -249 l 104 -249 z "},"ȓ":{"ha":543,"x_min":80,"x_max":501,"o":"m 106 0 l 106 718 l 228 718 l 228 580 q 279 665 247 631 q 354 715 312 699 q 441 732 396 732 q 472 730 457 732 q 496 723 488 728 l 496 599 q 469 605 485 603 q 442 607 453 607 q 361 602 399 610 q 295 574 324 594 q 250 523 267 555 q 234 447 234 492 l 234 0 l 106 0 m 80 829 q 120 911 90 878 q 194 962 151 944 q 289 979 238 979 q 387 961 343 979 q 461 910 431 943 q 501 829 491 876 l 408 829 q 365 883 396 862 q 289 904 333 904 q 215 883 245 904 q 173 829 185 862 l 80 829 z "},"s":{"ha":703,"x_min":66,"x_max":641,"o":"m 365 -14 q 225 9 290 -14 q 119 82 161 33 q 66 209 76 132 l 183 209 q 217 139 192 167 q 281 96 243 110 q 364 82 319 82 q 481 109 437 82 q 526 192 526 136 q 502 256 526 232 q 430 291 479 280 l 281 328 q 143 393 194 349 q 90 517 91 438 q 121 628 90 581 q 212 704 151 676 q 364 732 273 732 q 553 680 481 732 q 628 526 624 627 l 514 526 q 468 607 507 577 q 363 638 429 638 q 251 610 294 638 q 208 525 208 583 q 239 465 208 487 q 328 428 269 443 l 473 392 q 555 358 522 379 q 606 310 588 336 q 633 255 625 283 q 641 199 641 226 q 608 86 641 133 q 514 12 576 38 q 365 -14 452 -14 z "},"ś":{"ha":703,"x_min":66,"x_max":641,"o":"m 365 -14 q 225 9 290 -14 q 119 82 161 33 q 66 209 76 132 l 183 209 q 217 139 192 167 q 281 96 243 110 q 364 82 319 82 q 481 109 437 82 q 526 192 526 136 q 502 256 526 232 q 430 291 479 280 l 281 328 q 143 393 194 349 q 90 517 91 438 q 121 628 90 581 q 212 704 151 676 q 364 732 273 732 q 553 680 481 732 q 628 526 624 627 l 514 526 q 468 607 507 577 q 363 638 429 638 q 251 610 294 638 q 208 525 208 583 q 239 465 208 487 q 328 428 269 443 l 473 392 q 555 358 522 379 q 606 310 588 336 q 633 255 625 283 q 641 199 641 226 q 608 86 641 133 q 514 12 576 38 q 365 -14 452 -14 m 309 802 l 452 1004 l 598 1004 l 408 802 l 309 802 z "},"š":{"ha":703,"x_min":66,"x_max":641,"o":"m 365 -14 q 225 9 290 -14 q 119 82 161 33 q 66 209 76 132 l 183 209 q 217 139 192 167 q 281 96 243 110 q 364 82 319 82 q 481 109 437 82 q 526 192 526 136 q 502 256 526 232 q 430 291 479 280 l 281 328 q 143 393 194 349 q 90 517 91 438 q 121 628 90 581 q 212 704 151 676 q 364 732 273 732 q 553 680 481 732 q 628 526 624 627 l 514 526 q 468 607 507 577 q 363 638 429 638 q 251 610 294 638 q 208 525 208 583 q 239 465 208 487 q 328 428 269 443 l 473 392 q 555 358 522 379 q 606 310 588 336 q 633 255 625 283 q 641 199 641 226 q 608 86 641 133 q 514 12 576 38 q 365 -14 452 -14 m 320 802 l 145 958 l 260 958 l 365 865 l 463 958 l 583 958 l 413 802 l 320 802 z "},"ş":{"ha":703,"x_min":66,"x_max":641,"o":"m 332 -286 q 262 -278 295 -286 q 200 -251 229 -269 l 222 -197 q 263 -220 240 -210 q 317 -230 286 -230 q 373 -217 355 -230 q 392 -179 392 -203 q 366 -134 392 -149 q 281 -118 340 -119 q 272 -116 274 -118 q 272 -109 270 -114 l 323 7 l 391 7 l 358 -77 q 433 -95 406 -79 q 471 -133 460 -110 q 483 -178 483 -156 q 462 -237 483 -214 q 407 -274 441 -261 q 332 -286 373 -286 m 365 -14 q 225 9 290 -14 q 119 82 161 33 q 66 209 76 132 l 183 209 q 217 139 192 167 q 281 96 243 110 q 364 82 319 82 q 481 109 437 82 q 526 192 526 136 q 502 256 526 232 q 430 291 479 280 l 281 328 q 143 393 194 349 q 90 517 91 438 q 121 628 90 581 q 212 704 151 676 q 364 732 273 732 q 553 680 481 732 q 628 526 624 627 l 514 526 q 468 607 507 577 q 363 638 429 638 q 251 610 294 638 q 208 525 208 583 q 239 465 208 487 q 328 428 269 443 l 473 392 q 555 358 522 379 q 606 310 588 336 q 633 255 625 283 q 641 199 641 226 q 608 86 641 133 q 514 12 576 38 q 365 -14 452 -14 z "},"ŝ":{"ha":703,"x_min":66,"x_max":641,"o":"m 365 -14 q 225 9 290 -14 q 119 82 161 33 q 66 209 76 132 l 183 209 q 217 139 192 167 q 281 96 243 110 q 364 82 319 82 q 481 109 437 82 q 526 192 526 136 q 502 256 526 232 q 430 291 479 280 l 281 328 q 143 393 194 349 q 90 517 91 438 q 121 628 90 581 q 212 704 151 676 q 364 732 273 732 q 553 680 481 732 q 628 526 624 627 l 514 526 q 468 607 507 577 q 363 638 429 638 q 251 610 294 638 q 208 525 208 583 q 239 465 208 487 q 328 428 269 443 l 473 392 q 555 358 522 379 q 606 310 588 336 q 633 255 625 283 q 641 199 641 226 q 608 86 641 133 q 514 12 576 38 q 365 -14 452 -14 m 147 802 l 321 958 l 413 958 l 583 802 l 463 802 l 365 892 l 260 802 l 147 802 z "},"ș":{"ha":703,"x_min":66,"x_max":641,"o":"m 365 -14 q 225 9 290 -14 q 119 82 161 33 q 66 209 76 132 l 183 209 q 217 139 192 167 q 281 96 243 110 q 364 82 319 82 q 481 109 437 82 q 526 192 526 136 q 502 256 526 232 q 430 291 479 280 l 281 328 q 143 393 194 349 q 90 517 91 438 q 121 628 90 581 q 212 704 151 676 q 364 732 273 732 q 553 680 481 732 q 628 526 624 627 l 514 526 q 468 607 507 577 q 363 638 429 638 q 251 610 294 638 q 208 525 208 583 q 239 465 208 487 q 328 428 269 443 l 473 392 q 555 358 522 379 q 606 310 588 336 q 633 255 625 283 q 641 199 641 226 q 608 86 641 133 q 514 12 576 38 q 365 -14 452 -14 m 276 -264 l 333 -178 l 290 -174 l 290 -67 l 419 -67 l 419 -157 l 329 -264 l 276 -264 z "},"ṣ":{"ha":703,"x_min":66,"x_max":641,"o":"m 365 -14 q 225 9 290 -14 q 119 82 161 33 q 66 209 76 132 l 183 209 q 217 139 192 167 q 281 96 243 110 q 364 82 319 82 q 481 109 437 82 q 526 192 526 136 q 502 256 526 232 q 430 291 479 280 l 281 328 q 143 393 194 349 q 90 517 91 438 q 121 628 90 581 q 212 704 151 676 q 364 732 273 732 q 553 680 481 732 q 628 526 624 627 l 514 526 q 468 607 507 577 q 363 638 429 638 q 251 610 294 638 q 208 525 208 583 q 239 465 208 487 q 328 428 269 443 l 473 392 q 555 358 522 379 q 606 310 588 336 q 633 255 625 283 q 641 199 641 226 q 608 86 641 133 q 514 12 576 38 q 365 -14 452 -14 m 288 -249 l 288 -125 l 418 -125 l 418 -249 l 288 -249 z "},"ß":{"ha":819,"x_min":106,"x_max":757,"o":"m 483 -14 q 380 -1 431 -14 q 293 34 328 13 l 338 119 q 398 90 367 103 q 474 77 428 77 q 593 112 548 77 q 638 211 638 147 q 614 288 638 259 q 552 334 590 316 q 467 367 513 351 q 397 398 431 380 q 341 446 363 416 q 319 524 319 476 q 348 610 319 576 q 434 677 377 644 q 485 711 460 694 q 527 751 510 728 q 544 808 544 774 q 509 884 544 856 q 409 913 474 913 q 282 865 331 913 q 234 725 234 817 l 234 0 l 108 0 l 106 702 q 127 822 107 767 q 186 918 147 877 q 284 982 225 959 q 419 1004 342 1004 q 560 977 506 1004 q 639 907 614 951 q 664 812 664 863 q 642 726 664 760 q 583 668 621 692 q 497 622 546 644 q 439 586 456 599 q 422 549 422 572 q 438 515 422 525 q 495 491 454 504 q 582 456 536 475 q 667 408 627 437 q 732 334 706 378 q 757 224 757 290 q 721 93 757 147 q 623 13 685 40 q 483 -14 560 -14 z "},"t":{"ha":540,"x_min":64,"x_max":476,"o":"m 369 -3 q 254 17 295 -3 q 197 76 213 37 q 181 174 181 116 l 181 624 l 64 624 l 64 718 l 184 718 l 215 927 l 310 927 l 310 719 l 472 719 l 472 624 l 310 624 l 310 178 q 318 122 310 140 q 344 99 326 104 q 397 94 363 94 l 476 94 l 476 8 q 436 0 463 3 q 369 -3 409 -3 z "},"ŧ":{"ha":540,"x_min":64,"x_max":476,"o":"m 71 374 l 71 456 l 464 456 l 464 374 l 71 374 m 369 -3 q 254 17 295 -3 q 197 76 213 37 q 181 174 181 116 l 181 624 l 64 624 l 64 718 l 184 718 l 215 927 l 310 927 l 310 719 l 472 719 l 472 624 l 310 624 l 310 178 q 318 122 310 140 q 344 99 326 104 q 397 94 363 94 l 476 94 l 476 8 q 436 0 463 3 q 369 -3 409 -3 z "},"ť":{"ha":587,"x_min":64,"x_max":490,"o":"m 369 -3 q 254 17 295 -3 q 197 76 213 37 q 181 174 181 116 l 181 624 l 64 624 l 64 718 l 184 718 l 215 927 l 310 927 l 310 719 l 472 719 l 472 624 l 310 624 l 310 178 q 318 122 310 140 q 344 99 326 104 q 397 94 363 94 l 476 94 l 476 8 q 436 0 463 3 q 369 -3 409 -3 m 369 786 l 422 914 l 383 921 l 383 1056 l 490 1056 l 490 914 l 435 786 l 369 786 z "},"ţ":{"ha":540,"x_min":64,"x_max":476,"o":"m 301 -282 q 231 -274 264 -282 q 169 -247 198 -265 l 191 -193 q 232 -216 209 -206 q 286 -226 256 -226 q 343 -212 324 -226 q 361 -175 361 -199 q 335 -130 361 -145 q 250 -114 310 -115 q 242 -112 244 -114 q 242 -105 240 -110 l 292 11 l 360 11 l 327 -72 q 402 -91 375 -75 q 441 -129 429 -106 q 452 -174 452 -151 q 431 -233 452 -209 q 376 -269 410 -257 q 301 -282 342 -282 m 369 -3 q 254 17 295 -3 q 197 76 213 37 q 181 174 181 116 l 181 624 l 64 624 l 64 718 l 184 718 l 215 927 l 310 927 l 310 719 l 472 719 l 472 624 l 310 624 l 310 178 q 318 122 310 140 q 344 99 326 104 q 397 94 363 94 l 476 94 l 476 8 q 436 0 463 3 q 369 -3 409 -3 z "},"ț":{"ha":540,"x_min":64,"x_max":476,"o":"m 369 -3 q 254 17 295 -3 q 197 76 213 37 q 181 174 181 116 l 181 624 l 64 624 l 64 718 l 184 718 l 215 927 l 310 927 l 310 719 l 472 719 l 472 624 l 310 624 l 310 178 q 318 122 310 140 q 344 99 326 104 q 397 94 363 94 l 476 94 l 476 8 q 436 0 463 3 q 369 -3 409 -3 m 246 -260 l 303 -174 l 259 -170 l 259 -63 l 389 -63 l 389 -153 l 299 -260 l 246 -260 z "},"ṭ":{"ha":540,"x_min":64,"x_max":476,"o":"m 369 -3 q 254 17 295 -3 q 197 76 213 37 q 181 174 181 116 l 181 624 l 64 624 l 64 718 l 184 718 l 215 927 l 310 927 l 310 719 l 472 719 l 472 624 l 310 624 l 310 178 q 318 122 310 140 q 344 99 326 104 q 397 94 363 94 l 476 94 l 476 8 q 436 0 463 3 q 369 -3 409 -3 m 258 -245 l 258 -121 l 388 -121 l 388 -245 l 258 -245 z "},"u":{"ha":806,"x_min":94,"x_max":701,"o":"m 370 -14 q 264 2 314 -13 q 176 49 215 18 q 116 125 138 79 q 94 231 94 170 l 94 718 l 223 718 l 223 244 q 266 130 223 174 q 397 86 310 86 q 525 127 476 86 q 573 251 573 169 l 573 718 l 701 718 l 701 0 l 599 0 l 585 138 q 541 50 572 83 q 465 1 509 17 q 370 -14 421 -15 z "},"ú":{"ha":806,"x_min":94,"x_max":701,"o":"m 370 -14 q 264 2 314 -13 q 176 49 215 18 q 116 125 138 79 q 94 231 94 170 l 94 718 l 223 718 l 223 244 q 266 130 223 174 q 397 86 310 86 q 525 127 476 86 q 573 251 573 169 l 573 718 l 701 718 l 701 0 l 599 0 l 585 138 q 541 50 572 83 q 465 1 509 17 q 370 -14 421 -15 m 344 802 l 487 1004 l 633 1004 l 443 802 l 344 802 z "},"ŭ":{"ha":806,"x_min":94,"x_max":701,"o":"m 370 -14 q 264 2 314 -13 q 176 49 215 18 q 116 125 138 79 q 94 231 94 170 l 94 718 l 223 718 l 223 244 q 266 130 223 174 q 397 86 310 86 q 525 127 476 86 q 573 251 573 169 l 573 718 l 701 718 l 701 0 l 599 0 l 585 138 q 541 50 572 83 q 465 1 509 17 q 370 -14 421 -15 m 399 800 q 303 817 347 800 q 230 868 260 835 q 189 951 200 902 l 283 951 q 324 896 294 917 q 399 875 354 875 q 474 896 442 875 q 517 951 506 917 l 610 951 q 570 870 599 903 q 496 818 540 836 q 399 800 452 800 z "},"ǔ":{"ha":806,"x_min":94,"x_max":701,"o":"m 370 -14 q 264 2 314 -13 q 176 49 215 18 q 116 125 138 79 q 94 231 94 170 l 94 718 l 223 718 l 223 244 q 266 130 223 174 q 397 86 310 86 q 525 127 476 86 q 573 251 573 169 l 573 718 l 701 718 l 701 0 l 599 0 l 585 138 q 541 50 572 83 q 465 1 509 17 q 370 -14 421 -15 m 354 802 l 179 958 l 294 958 l 399 865 l 497 958 l 617 958 l 447 802 l 354 802 z "},"û":{"ha":806,"x_min":94,"x_max":701,"o":"m 370 -14 q 264 2 314 -13 q 176 49 215 18 q 116 125 138 79 q 94 231 94 170 l 94 718 l 223 718 l 223 244 q 266 130 223 174 q 397 86 310 86 q 525 127 476 86 q 573 251 573 169 l 573 718 l 701 718 l 701 0 l 599 0 l 585 138 q 541 50 572 83 q 465 1 509 17 q 370 -14 421 -15 m 181 802 l 355 958 l 447 958 l 617 802 l 497 802 l 399 892 l 294 802 l 181 802 z "},"ȕ":{"ha":806,"x_min":50,"x_max":701,"o":"m 370 -14 q 264 2 314 -13 q 176 49 215 18 q 116 125 138 79 q 94 231 94 170 l 94 718 l 223 718 l 223 244 q 266 130 223 174 q 397 86 310 86 q 525 127 476 86 q 573 251 573 169 l 573 718 l 701 718 l 701 0 l 599 0 l 585 138 q 541 50 572 83 q 465 1 509 17 q 370 -14 421 -15 m 252 802 l 50 1004 l 188 1004 l 351 802 l 252 802 m 446 802 l 275 1004 l 409 1004 l 545 802 l 446 802 z "},"ü":{"ha":806,"x_min":94,"x_max":701,"o":"m 370 -14 q 264 2 314 -13 q 176 49 215 18 q 116 125 138 79 q 94 231 94 170 l 94 718 l 223 718 l 223 244 q 266 130 223 174 q 397 86 310 86 q 525 127 476 86 q 573 251 573 169 l 573 718 l 701 718 l 701 0 l 599 0 l 585 138 q 541 50 572 83 q 465 1 509 17 q 370 -14 421 -15 m 472 880 l 472 1004 l 598 1004 l 597 880 l 472 880 m 201 880 l 202 1004 l 328 1004 l 327 880 l 201 880 z "},"ụ":{"ha":806,"x_min":94,"x_max":701,"o":"m 370 -14 q 264 2 314 -13 q 176 49 215 18 q 116 125 138 79 q 94 231 94 170 l 94 718 l 223 718 l 223 244 q 266 130 223 174 q 397 86 310 86 q 525 127 476 86 q 573 251 573 169 l 573 718 l 701 718 l 701 0 l 599 0 l 585 138 q 541 50 572 83 q 465 1 509 17 q 370 -14 421 -15 m 336 -249 l 336 -125 l 466 -125 l 466 -249 l 336 -249 z "},"ù":{"ha":806,"x_min":94,"x_max":701,"o":"m 370 -14 q 264 2 314 -13 q 176 49 215 18 q 116 125 138 79 q 94 231 94 170 l 94 718 l 223 718 l 223 244 q 266 130 223 174 q 397 86 310 86 q 525 127 476 86 q 573 251 573 169 l 573 718 l 701 718 l 701 0 l 599 0 l 585 138 q 541 50 572 83 q 465 1 509 17 q 370 -14 421 -15 m 353 802 l 163 1004 l 310 1004 l 453 802 l 353 802 z "},"ủ":{"ha":806,"x_min":94,"x_max":701,"o":"m 370 -14 q 264 2 314 -13 q 176 49 215 18 q 116 125 138 79 q 94 231 94 170 l 94 718 l 223 718 l 223 244 q 266 130 223 174 q 397 86 310 86 q 525 127 476 86 q 573 251 573 169 l 573 718 l 701 718 l 701 0 l 599 0 l 585 138 q 541 50 572 83 q 465 1 509 17 q 370 -14 421 -15 m 441 800 l 403 858 q 445 902 433 877 q 443 951 458 928 q 400 974 429 974 q 342 954 370 973 l 304 1013 q 419 1043 363 1051 q 503 992 475 1036 q 520 888 538 939 q 441 800 503 838 z "},"ư":{"ha":906,"x_min":94,"x_max":902,"o":"m 370 -14 q 264 2 314 -13 q 176 49 215 18 q 116 125 138 79 q 94 231 94 170 l 94 718 l 223 718 l 223 244 q 266 130 223 174 q 397 86 310 86 q 525 127 476 86 q 573 251 573 169 l 573 718 l 701 718 l 701 634 q 756 647 735 635 q 787 688 776 658 q 800 773 797 718 l 902 773 q 882 646 902 695 q 818 575 863 597 q 701 558 774 554 l 701 0 l 599 0 l 585 138 q 541 50 572 83 q 465 1 509 17 q 370 -14 421 -15 z "},"ứ":{"ha":906,"x_min":94,"x_max":902,"o":"m 357 802 l 500 1004 l 646 1004 l 456 802 l 357 802 m 370 -14 q 264 2 314 -13 q 176 49 215 18 q 116 125 138 79 q 94 231 94 170 l 94 718 l 223 718 l 223 244 q 266 130 223 174 q 397 86 310 86 q 525 127 476 86 q 573 251 573 169 l 573 718 l 701 718 l 701 634 q 756 647 735 635 q 787 688 776 658 q 800 773 797 718 l 902 773 q 882 646 902 695 q 818 575 863 597 q 701 558 774 554 l 701 0 l 599 0 l 585 138 q 541 50 572 83 q 465 1 509 17 q 370 -14 421 -15 z "},"ự":{"ha":906,"x_min":94,"x_max":902,"o":"m 333 -249 l 333 -125 l 463 -125 l 463 -249 l 333 -249 m 370 -14 q 264 2 314 -13 q 176 49 215 18 q 116 125 138 79 q 94 231 94 170 l 94 718 l 223 718 l 223 244 q 266 130 223 174 q 397 86 310 86 q 525 127 476 86 q 573 251 573 169 l 573 718 l 701 718 l 701 634 q 756 647 735 635 q 787 688 776 658 q 800 773 797 718 l 902 773 q 882 646 902 695 q 818 575 863 597 q 701 558 774 554 l 701 0 l 599 0 l 585 138 q 541 50 572 83 q 465 1 509 17 q 370 -14 421 -15 z "},"ừ":{"ha":906,"x_min":94,"x_max":902,"o":"m 355 802 l 165 1004 l 311 1004 l 454 802 l 355 802 m 370 -14 q 264 2 314 -13 q 176 49 215 18 q 116 125 138 79 q 94 231 94 170 l 94 718 l 223 718 l 223 244 q 266 130 223 174 q 397 86 310 86 q 525 127 476 86 q 573 251 573 169 l 573 718 l 701 718 l 701 634 q 756 647 735 635 q 787 688 776 658 q 800 773 797 718 l 902 773 q 882 646 902 695 q 818 575 863 597 q 701 558 774 554 l 701 0 l 599 0 l 585 138 q 541 50 572 83 q 465 1 509 17 q 370 -14 421 -15 z "},"ử":{"ha":906,"x_min":94,"x_max":902,"o":"m 447 800 l 410 858 q 452 902 440 877 q 449 951 464 928 q 406 974 435 974 q 349 954 376 973 l 310 1013 q 425 1043 369 1051 q 510 992 481 1036 q 527 888 544 939 q 447 800 509 838 m 370 -14 q 264 2 314 -13 q 176 49 215 18 q 116 125 138 79 q 94 231 94 170 l 94 718 l 223 718 l 223 244 q 266 130 223 174 q 397 86 310 86 q 525 127 476 86 q 573 251 573 169 l 573 718 l 701 718 l 701 634 q 756 647 735 635 q 787 688 776 658 q 800 773 797 718 l 902 773 q 882 646 902 695 q 818 575 863 597 q 701 558 774 554 l 701 0 l 599 0 l 585 138 q 541 50 572 83 q 465 1 509 17 q 370 -14 421 -15 z "},"ữ":{"ha":906,"x_min":94,"x_max":902,"o":"m 223 847 l 199 923 q 249 960 222 944 q 315 975 275 975 q 379 965 349 975 q 438 946 409 956 q 497 936 467 936 q 551 948 528 936 q 594 975 574 959 l 617 890 q 570 864 599 877 q 497 850 541 850 q 432 859 460 850 q 378 877 404 868 q 320 886 352 886 q 265 875 286 886 q 223 847 244 863 m 370 -14 q 264 2 314 -13 q 176 49 215 18 q 116 125 138 79 q 94 231 94 170 l 94 718 l 223 718 l 223 244 q 266 130 223 174 q 397 86 310 86 q 525 127 476 86 q 573 251 573 169 l 573 718 l 701 718 l 701 634 q 756 647 735 635 q 787 688 776 658 q 800 773 797 718 l 902 773 q 882 646 902 695 q 818 575 863 597 q 701 558 774 554 l 701 0 l 599 0 l 585 138 q 541 50 572 83 q 465 1 509 17 q 370 -14 421 -15 z "},"ű":{"ha":806,"x_min":94,"x_max":751,"o":"m 370 -14 q 264 2 314 -13 q 176 49 215 18 q 116 125 138 79 q 94 231 94 170 l 94 718 l 223 718 l 223 244 q 266 130 223 174 q 397 86 310 86 q 525 127 476 86 q 573 251 573 169 l 573 718 l 701 718 l 701 0 l 599 0 l 585 138 q 541 50 572 83 q 465 1 509 17 q 370 -14 421 -15 m 451 802 l 615 1004 l 752 1004 l 549 802 l 451 802 m 257 802 l 393 1004 l 527 1004 l 356 802 l 257 802 z "},"ȗ":{"ha":806,"x_min":94,"x_max":701,"o":"m 370 -14 q 264 2 314 -13 q 176 49 215 18 q 116 125 138 79 q 94 231 94 170 l 94 718 l 223 718 l 223 244 q 266 130 223 174 q 397 86 310 86 q 525 127 476 86 q 573 251 573 169 l 573 718 l 701 718 l 701 0 l 599 0 l 585 138 q 541 50 572 83 q 465 1 509 17 q 370 -14 421 -15 m 186 839 q 227 921 197 888 q 301 972 257 954 q 395 989 344 989 q 493 971 449 989 q 567 919 538 953 q 607 839 597 886 l 515 839 q 471 893 502 872 q 395 914 440 914 q 321 893 351 914 q 279 839 291 872 l 186 839 z "},"ū":{"ha":806,"x_min":94,"x_max":701,"o":"m 370 -14 q 264 2 314 -13 q 176 49 215 18 q 116 125 138 79 q 94 231 94 170 l 94 718 l 223 718 l 223 244 q 266 130 223 174 q 397 86 310 86 q 525 127 476 86 q 573 251 573 169 l 573 718 l 701 718 l 701 0 l 599 0 l 585 138 q 541 50 572 83 q 465 1 509 17 q 370 -14 421 -15 m 192 858 l 192 948 l 607 948 l 607 858 l 192 858 z "},"ų":{"ha":806,"x_min":94,"x_max":726,"o":"m 370 -14 q 264 2 314 -13 q 176 49 215 18 q 116 125 138 79 q 94 231 94 170 l 94 718 l 223 718 l 223 244 q 266 130 223 174 q 397 86 310 86 q 525 127 476 86 q 573 251 573 169 l 573 718 l 701 718 l 701 0 l 599 0 l 585 138 q 541 50 572 83 q 465 1 509 17 q 370 -14 421 -15 m 597 -231 q 494 -202 529 -231 q 459 -122 459 -172 q 489 -47 459 -80 q 601 13 518 -14 l 694 4 q 593 -51 624 -25 q 563 -110 563 -76 q 577 -148 563 -135 q 626 -161 592 -161 q 685 -152 660 -161 q 726 -135 711 -144 l 726 -203 q 673 -222 709 -213 q 597 -231 638 -231 z "},"ů":{"ha":806,"x_min":94,"x_max":701,"o":"m 370 -14 q 264 2 314 -13 q 176 49 215 18 q 116 125 138 79 q 94 231 94 170 l 94 718 l 223 718 l 223 244 q 266 130 223 174 q 397 86 310 86 q 525 127 476 86 q 573 251 573 169 l 573 718 l 701 718 l 701 0 l 599 0 l 585 138 q 541 50 572 83 q 465 1 509 17 q 370 -14 421 -15 m 400 801 q 299 843 340 801 q 257 947 257 885 q 299 1045 257 1004 q 400 1085 342 1085 q 473 1066 440 1085 q 525 1015 506 1047 q 544 944 544 983 q 502 843 544 884 q 400 801 460 801 m 399 868 q 451 891 430 868 q 472 944 472 914 q 451 997 472 976 q 399 1017 430 1017 q 346 997 369 1017 q 324 944 324 976 q 346 891 324 914 q 399 868 369 868 z "},"ũ":{"ha":806,"x_min":94,"x_max":701,"o":"m 370 -14 q 264 2 314 -13 q 176 49 215 18 q 116 125 138 79 q 94 231 94 170 l 94 718 l 223 718 l 223 244 q 266 130 223 174 q 397 86 310 86 q 525 127 476 86 q 573 251 573 169 l 573 718 l 701 718 l 701 0 l 599 0 l 585 138 q 541 50 572 83 q 465 1 509 17 q 370 -14 421 -15 m 217 847 l 192 923 q 242 960 216 944 q 308 975 269 975 q 373 965 342 975 q 432 946 403 956 q 491 936 460 936 q 545 948 522 936 q 588 975 568 959 l 610 890 q 564 864 592 877 q 491 850 535 850 q 426 859 453 850 q 372 877 398 868 q 314 886 346 886 q 259 875 280 886 q 217 847 238 863 z "},"v":{"ha":701,"x_min":33,"x_max":668,"o":"m 292 0 l 33 718 l 153 718 l 344 161 l 356 161 l 548 718 l 668 718 l 410 0 l 292 0 z "},"w":{"ha":1083,"x_min":36,"x_max":1047,"o":"m 258 0 l 36 718 l 156 718 l 319 166 l 331 166 l 492 718 l 590 718 l 758 167 l 769 167 l 926 718 l 1047 718 l 829 0 l 703 0 l 540 530 l 383 0 l 258 0 z "},"ẃ":{"ha":1083,"x_min":36,"x_max":1047,"o":"m 258 0 l 36 718 l 156 718 l 319 166 l 331 166 l 492 718 l 590 718 l 758 167 l 769 167 l 926 718 l 1047 718 l 829 0 l 703 0 l 540 530 l 383 0 l 258 0 m 491 802 l 634 1004 l 780 1004 l 590 802 l 491 802 z "},"ŵ":{"ha":1083,"x_min":36,"x_max":1047,"o":"m 258 0 l 36 718 l 156 718 l 319 166 l 331 166 l 492 718 l 590 718 l 758 167 l 769 167 l 926 718 l 1047 718 l 829 0 l 703 0 l 540 530 l 383 0 l 258 0 m 328 802 l 502 958 l 594 958 l 765 802 l 644 802 l 547 892 l 442 802 l 328 802 z "},"ẅ":{"ha":1083,"x_min":36,"x_max":1047,"o":"m 258 0 l 36 718 l 156 718 l 319 166 l 331 166 l 492 718 l 590 718 l 758 167 l 769 167 l 926 718 l 1047 718 l 829 0 l 703 0 l 540 530 l 383 0 l 258 0 m 619 880 l 619 1004 l 745 1004 l 744 880 l 619 880 m 349 880 l 349 1004 l 475 1004 l 474 880 l 349 880 z "},"ẁ":{"ha":1083,"x_min":36,"x_max":1047,"o":"m 258 0 l 36 718 l 156 718 l 319 166 l 331 166 l 492 718 l 590 718 l 758 167 l 769 167 l 926 718 l 1047 718 l 829 0 l 703 0 l 540 530 l 383 0 l 258 0 m 501 802 l 310 1004 l 457 1004 l 600 802 l 501 802 z "},"x":{"ha":784,"x_min":44,"x_max":740,"o":"m 44 0 l 320 373 l 66 718 l 206 718 l 392 466 l 579 718 l 719 718 l 464 373 l 740 0 l 601 0 l 392 281 l 184 0 l 44 0 z "},"y":{"ha":743,"x_min":33,"x_max":710,"o":"m 178 -229 q 91 -220 115 -229 q 67 -211 67 -211 l 67 -128 l 141 -129 q 207 -124 181 -131 q 249 -105 233 -117 q 274 -78 265 -93 q 288 -51 283 -64 l 313 17 l 33 718 l 163 718 l 374 164 l 585 718 l 710 718 l 408 -54 q 345 -160 380 -122 q 269 -214 311 -199 q 178 -229 227 -229 z "},"ý":{"ha":743,"x_min":33,"x_max":710,"o":"m 178 -229 q 91 -220 115 -229 q 67 -211 67 -211 l 67 -128 l 141 -129 q 207 -124 181 -131 q 249 -105 233 -117 q 274 -78 265 -93 q 288 -51 283 -64 l 313 17 l 33 718 l 163 718 l 374 164 l 585 718 l 710 718 l 408 -54 q 345 -160 380 -122 q 269 -214 311 -199 q 178 -229 227 -229 m 318 802 l 461 1004 l 607 1004 l 417 802 l 318 802 z "},"ŷ":{"ha":743,"x_min":33,"x_max":710,"o":"m 178 -229 q 91 -220 115 -229 q 67 -211 67 -211 l 67 -128 l 141 -129 q 207 -124 181 -131 q 249 -105 233 -117 q 274 -78 265 -93 q 288 -51 283 -64 l 313 17 l 33 718 l 163 718 l 374 164 l 585 718 l 710 718 l 408 -54 q 345 -160 380 -122 q 269 -214 311 -199 q 178 -229 227 -229 m 158 802 l 333 958 l 424 958 l 595 802 l 474 802 l 377 892 l 272 802 l 158 802 z "},"ÿ":{"ha":743,"x_min":33,"x_max":710,"o":"m 178 -229 q 91 -220 115 -229 q 67 -211 67 -211 l 67 -128 l 141 -129 q 207 -124 181 -131 q 249 -105 233 -117 q 274 -78 265 -93 q 288 -51 283 -64 l 313 17 l 33 718 l 163 718 l 374 164 l 585 718 l 710 718 l 408 -54 q 345 -160 380 -122 q 269 -214 311 -199 q 178 -229 227 -229 m 447 880 l 447 1004 l 573 1004 l 572 880 l 447 880 m 176 880 l 177 1004 l 303 1004 l 302 880 l 176 880 z "},"ỵ":{"ha":743,"x_min":33,"x_max":710,"o":"m 178 -229 q 91 -220 115 -229 q 67 -211 67 -211 l 67 -128 l 141 -129 q 207 -124 181 -131 q 249 -105 233 -117 q 274 -78 265 -93 q 288 -51 283 -64 l 313 17 l 33 718 l 163 718 l 374 164 l 585 718 l 710 718 l 408 -54 q 345 -160 380 -122 q 269 -214 311 -199 q 178 -229 227 -229 m 486 -241 l 486 -117 l 616 -117 l 616 -241 l 486 -241 z "},"ỳ":{"ha":743,"x_min":33,"x_max":710,"o":"m 178 -229 q 91 -220 115 -229 q 67 -211 67 -211 l 67 -128 l 141 -129 q 207 -124 181 -131 q 249 -105 233 -117 q 274 -78 265 -93 q 288 -51 283 -64 l 313 17 l 33 718 l 163 718 l 374 164 l 585 718 l 710 718 l 408 -54 q 345 -160 380 -122 q 269 -214 311 -199 q 178 -229 227 -229 m 328 802 l 138 1004 l 285 1004 l 428 802 l 328 802 z "},"ỷ":{"ha":743,"x_min":33,"x_max":710,"o":"m 178 -229 q 91 -220 115 -229 q 67 -211 67 -211 l 67 -128 l 141 -129 q 207 -124 181 -131 q 249 -105 233 -117 q 274 -78 265 -93 q 288 -51 283 -64 l 313 17 l 33 718 l 163 718 l 374 164 l 585 718 l 710 718 l 408 -54 q 345 -160 380 -122 q 269 -214 311 -199 q 178 -229 227 -229 m 416 800 l 378 858 q 420 902 408 877 q 418 951 433 928 q 375 974 404 974 q 317 954 345 973 l 279 1013 q 394 1043 338 1051 q 478 992 450 1036 q 495 888 513 939 q 416 800 478 838 z "},"ỹ":{"ha":743,"x_min":33,"x_max":710,"o":"m 178 -229 q 91 -220 115 -229 q 67 -211 67 -211 l 67 -128 l 141 -129 q 207 -124 181 -131 q 249 -105 233 -117 q 274 -78 265 -93 q 288 -51 283 -64 l 313 17 l 33 718 l 163 718 l 374 164 l 585 718 l 710 718 l 408 -54 q 345 -160 380 -122 q 269 -214 311 -199 q 178 -229 227 -229 m 192 847 l 167 923 q 217 960 191 944 q 283 975 244 975 q 348 965 317 975 q 407 946 378 956 q 466 936 435 936 q 520 948 497 936 q 563 975 543 959 l 585 890 q 539 864 567 877 q 466 850 510 850 q 401 859 428 850 q 347 877 373 868 q 289 886 321 886 q 234 875 255 886 q 192 847 213 863 z "},"z":{"ha":667,"x_min":53,"x_max":615,"o":"m 53 0 l 53 80 l 458 624 l 70 624 l 70 718 l 611 718 l 611 638 l 206 94 l 615 94 l 615 0 l 53 0 z "},"ź":{"ha":667,"x_min":53,"x_max":615,"o":"m 53 0 l 53 80 l 458 624 l 70 624 l 70 718 l 611 718 l 611 638 l 206 94 l 615 94 l 615 0 l 53 0 m 283 802 l 426 1004 l 572 1004 l 383 802 l 283 802 z "},"ž":{"ha":667,"x_min":53,"x_max":615,"o":"m 53 0 l 53 80 l 458 624 l 70 624 l 70 718 l 611 718 l 611 638 l 206 94 l 615 94 l 615 0 l 53 0 m 294 802 l 119 958 l 235 958 l 340 865 l 437 958 l 558 958 l 387 802 l 294 802 z "},"ż":{"ha":667,"x_min":53,"x_max":615,"o":"m 53 0 l 53 80 l 458 624 l 70 624 l 70 718 l 611 718 l 611 638 l 206 94 l 615 94 l 615 0 l 53 0 m 275 880 l 275 1004 l 405 1004 l 405 880 l 275 880 z "},"ẓ":{"ha":667,"x_min":53,"x_max":615,"o":"m 53 0 l 53 80 l 458 624 l 70 624 l 70 718 l 611 718 l 611 638 l 206 94 l 615 94 l 615 0 l 53 0 m 275 -249 l 275 -125 l 405 -125 l 405 -249 l 275 -249 z "},"ﬁ":{"ha":894,"x_min":50,"x_max":788,"o":"m 202 0 l 202 624 l 50 624 l 50 718 l 202 718 l 202 829 q 245 959 202 915 q 376 1004 289 1004 l 511 1004 l 512 913 l 405 913 q 344 890 360 913 q 328 818 328 866 l 328 718 l 505 718 l 505 624 l 331 624 l 331 0 l 202 0 m 660 0 l 660 718 l 784 718 l 784 0 l 660 0 m 656 870 l 656 1003 l 788 1003 l 788 870 l 656 870 z "},"ﬂ":{"ha":971,"x_min":50,"x_max":902,"o":"m 202 0 l 202 624 l 50 624 l 50 718 l 202 718 l 202 829 q 245 959 202 915 q 376 1004 289 1004 l 511 1004 l 512 913 l 405 913 q 344 890 360 913 q 328 818 328 866 l 328 718 l 505 718 l 505 624 l 331 624 l 331 0 l 202 0 m 838 -9 q 743 7 779 -9 q 689 50 708 23 q 663 112 669 77 q 656 185 656 147 l 656 1032 l 783 1032 l 783 197 q 804 116 783 143 q 863 86 825 89 l 902 85 l 902 2 q 869 -6 886 -3 q 838 -9 851 -9 z "},"ª":{"ha":568,"x_min":71,"x_max":474,"o":"m 222 550 q 110 584 149 550 q 71 676 71 618 q 130 781 71 742 q 297 826 188 819 l 373 833 l 373 865 q 345 931 373 912 q 274 951 318 951 q 210 937 238 951 q 160 885 183 924 l 82 906 q 155 987 107 958 q 278 1015 202 1015 q 416 975 373 1015 q 460 865 460 935 q 460 771 460 810 q 460 702 460 733 q 460 675 460 692 q 462 641 461 658 q 465 608 463 623 l 474 558 l 383 558 l 372 617 q 300 567 335 583 q 222 550 266 550 m 251 613 q 341 647 303 613 q 364 673 356 660 q 373 702 373 686 l 373 776 l 309 772 q 199 743 236 767 q 162 681 162 719 q 186 631 162 650 q 251 613 211 613 z "},"º":{"ha":564,"x_min":65,"x_max":499,"o":"m 281 552 q 165 582 214 552 q 91 663 117 611 q 65 783 65 715 q 92 906 65 853 q 168 988 119 958 q 281 1017 217 1017 q 398 988 349 1017 q 473 905 447 958 q 499 783 499 852 q 473 663 499 715 q 398 582 447 611 q 281 552 349 552 m 281 618 q 374 663 343 618 q 405 786 405 707 q 374 906 405 863 q 281 950 343 950 q 190 906 221 950 q 160 786 160 863 q 190 663 160 707 q 281 618 221 618 z "},"π":{"ha":915,"x_min":37,"x_max":874,"o":"m 97 0 q 126 129 113 58 q 151 281 140 201 q 168 445 162 362 q 174 610 174 529 q 163 624 174 624 l 37 624 l 37 718 l 874 718 l 874 624 l 717 624 l 717 0 l 592 0 l 592 624 l 297 624 q 290 449 297 538 q 272 276 283 360 q 246 120 261 192 q 215 0 231 49 l 97 0 z "},"⁰":{"ha":527,"x_min":38,"x_max":489,"o":"m 263 508 q 97 592 156 508 q 38 829 38 676 q 98 1071 38 985 q 264 1157 157 1157 q 430 1072 371 1157 q 489 831 489 986 q 430 593 489 677 q 263 508 372 508 m 264 582 q 366 642 333 582 q 398 831 398 703 q 365 1023 398 960 q 263 1085 332 1085 q 162 1022 195 1085 q 128 831 128 959 q 162 643 128 704 q 264 582 195 582 z "},"¹":{"ha":333,"x_min":32,"x_max":241,"o":"m 153 517 l 153 1015 l 32 1015 l 32 1073 q 145 1091 114 1073 q 178 1149 176 1108 l 241 1149 l 241 517 l 153 517 z "},"²":{"ha":510,"x_min":32,"x_max":470,"o":"m 45 519 l 45 570 l 45 595 q 69 691 45 652 q 131 759 93 731 q 211 809 169 787 q 291 855 253 832 q 353 907 329 878 q 377 978 377 937 q 344 1055 377 1026 q 255 1083 311 1083 q 158 1050 197 1083 q 115 956 120 1017 l 32 956 q 58 1058 32 1012 q 134 1131 83 1103 q 258 1159 184 1159 q 410 1109 354 1159 q 466 978 466 1060 q 442 883 466 922 q 382 817 419 844 q 303 768 345 790 q 224 725 261 747 q 163 674 187 703 q 140 605 140 646 l 140 594 l 470 594 l 470 519 l 45 519 z "},"³":{"ha":558,"x_min":45,"x_max":513,"o":"m 269 511 q 108 565 168 512 q 45 704 47 618 l 130 704 q 177 615 138 646 q 272 585 215 585 q 381 615 340 585 q 422 695 422 646 q 380 779 422 747 q 266 811 338 810 l 208 813 l 208 885 l 263 886 q 335 901 303 887 q 386 940 367 916 q 405 992 405 964 q 370 1059 405 1031 q 272 1088 335 1088 q 208 1074 238 1088 q 158 1034 178 1061 q 138 964 138 1007 l 53 964 q 82 1068 53 1024 q 160 1135 110 1111 q 272 1159 210 1159 q 388 1140 338 1159 q 467 1084 438 1121 q 495 995 495 1048 q 466 912 495 949 q 381 853 438 875 q 476 797 439 836 q 513 695 513 757 q 481 595 513 637 q 393 532 449 554 q 269 511 338 510 z "},"⁴":{"ha":545,"x_min":32,"x_max":514,"o":"m 326 517 l 326 677 l 32 677 l 32 753 l 324 1149 l 410 1149 l 410 752 l 514 752 l 514 677 l 410 677 l 410 517 l 326 517 m 115 752 l 325 752 l 325 1034 l 115 752 z "},"⁵":{"ha":553,"x_min":38,"x_max":515,"o":"m 285 508 q 129 553 196 508 q 38 672 62 599 l 112 702 q 177 613 135 647 q 279 580 219 580 q 386 618 347 580 q 425 722 425 657 q 384 820 425 783 q 285 857 344 857 q 215 846 247 857 q 149 794 183 835 q 144 794 145 794 q 140 796 143 794 l 70 817 l 99 1149 l 478 1149 l 476 1075 l 171 1075 l 156 881 q 221 918 186 906 q 302 930 256 930 q 407 907 359 930 q 485 838 456 883 q 515 724 515 792 q 452 566 515 625 q 285 508 390 508 z "},"⁶":{"ha":537,"x_min":38,"x_max":499,"o":"m 278 510 q 102 594 166 510 q 38 824 38 679 q 104 1070 38 983 q 285 1158 169 1158 q 384 1138 340 1158 q 458 1080 429 1117 q 494 990 488 1042 l 413 990 q 367 1061 401 1036 q 287 1086 334 1086 q 165 1020 205 1086 q 130 833 125 953 q 194 901 151 876 q 289 926 238 926 q 442 871 385 926 q 499 725 499 817 q 471 612 499 660 q 394 536 444 563 q 278 510 345 510 m 278 580 q 371 619 334 580 q 408 722 408 658 q 372 822 408 788 q 277 856 336 856 q 211 839 242 856 q 162 797 181 823 q 143 742 143 771 q 180 624 142 668 q 278 580 218 580 z "},"⁷":{"ha":494,"x_min":32,"x_max":476,"o":"m 144 519 q 182 667 153 576 q 260 866 210 759 q 382 1076 310 973 l 32 1076 l 32 1151 l 476 1151 l 476 1078 q 394 944 435 1020 q 320 789 353 869 q 264 639 286 710 q 236 519 242 567 l 144 519 z "},"⁸":{"ha":576,"x_min":45,"x_max":531,"o":"m 288 510 q 112 559 178 510 q 45 691 45 608 q 63 760 45 727 q 108 817 81 793 q 167 849 136 841 q 98 903 123 869 q 73 984 73 937 q 133 1111 73 1065 q 288 1158 193 1158 q 442 1111 382 1158 q 502 984 502 1065 q 477 903 502 937 q 408 849 453 869 q 468 817 440 841 q 513 760 495 793 q 531 691 531 727 q 464 559 531 608 q 288 510 397 510 m 288 578 q 398 609 357 578 q 438 692 438 640 q 397 776 438 744 q 288 809 356 809 q 178 776 219 809 q 137 692 137 744 q 177 609 137 640 q 288 578 218 578 m 288 885 q 381 912 347 885 q 415 987 415 939 q 380 1065 415 1035 q 288 1094 345 1094 q 195 1065 231 1094 q 160 987 160 1035 q 194 912 160 939 q 288 885 228 885 z "},"⁹":{"ha":539,"x_min":40,"x_max":501,"o":"m 251 510 q 151 531 197 510 q 75 589 105 551 q 40 676 46 626 l 122 676 q 167 608 133 634 q 248 582 201 582 q 375 645 330 582 q 415 838 419 708 q 353 766 395 793 q 253 739 310 739 q 100 794 158 739 q 42 943 42 849 q 69 1056 42 1008 q 146 1131 97 1104 q 260 1158 195 1158 q 437 1073 373 1158 q 501 844 501 988 q 434 595 501 680 q 251 510 367 510 m 263 812 q 328 828 298 812 q 377 871 358 844 q 397 926 396 897 q 360 1043 397 999 q 262 1088 322 1088 q 170 1049 206 1088 q 135 947 135 1010 q 169 846 135 881 q 263 812 203 812 z "},"⁄":{"ha":322,"x_min":-217,"x_max":544,"o":"m -131 -6 l -217 -5 l 460 1015 l 544 1015 l -131 -6 z "}}}
